<?xml version="1.0" standalone="no"?>
<!DOCTYPE svg PUBLIC "-//W3C//DTD SVG 1.1//EN" "http://www.w3.org/Graphics/SVG/1.1/DTD/svg11.dtd" >
<svg xmlns="http://www.w3.org/2000/svg" xmlns:xlink="http://www.w3.org/1999/xlink" version="1.1">
<metadata>
Created by FontForge 20161003 at Mon Aug 14 07:49:18 2017
 By www-data
Copyright (c) 2010 by Andryushkin Artem, Jovanny Lemonad. All rights reserved.
</metadata>
<defs>
<font id="Flow" horiz-adv-x="196" >
  <font-face 
    font-family="Flow"
    font-weight="400"
    font-stretch="normal"
    units-per-em="1000"
    panose-1="2 0 5 6 5 0 0 2 0 4"
    ascent="750"
    descent="-250"
    x-height="507"
    cap-height="699"
    bbox="-179.593 -417.727 983.6 920.226"
    underline-thickness="50"
    underline-position="-150"
    unicode-range="U+0020-2122"
  />
<missing-glyph horiz-adv-x="300" 
 />
    <glyph glyph-name=".notdef" horiz-adv-x="300" 
 />
    <glyph glyph-name=".null" horiz-adv-x="0" 
 />
    <glyph glyph-name="nonmarkingreturn" horiz-adv-x="333" 
 />
    <glyph glyph-name="space" unicode=" " horiz-adv-x="300" 
 />
    <glyph glyph-name="exclam" unicode="!" horiz-adv-x="288" 
d="M195 687q5 23 36 26q29 3 35 -16q2 -7 0 -16q-16 -69 -47 -232t-54 -249q-6 -23 -36 -25q-30 -3 -35 18v15q22 84 52.5 245t48.5 234zM96 70q28 -3 41.5 -22.5t2.5 -38t-44 -19.5q-15 -1 -30.5 9t-22.5 25q-9 24 9.5 36.5t43.5 9.5z" />
    <glyph glyph-name="quotedbl" unicode="&#x22;" horiz-adv-x="234" 
d="M258 704q25 -14 12 -50q-8 -31 -27 -85.5t-26 -75.5q-3 -13 -15 -20t-24 -1q-23 12 -12 48q8 27 27 81.5t26 81.5q3 12 15.5 19.5t23.5 1.5zM107 675q8 25 36 30q26 5 30 -15q1 -8 -2 -18q-9 -26 -33 -76.5t-33 -77.5q-8 -24 -35 -29q-26 -5 -29 16l2 17q9 27 32 77.5
t32 75.5z" />
    <glyph glyph-name="numbersign" unicode="#" horiz-adv-x="541" 
d="M294 295q4 15 15 57t16 65q-15 0 -45.5 -0.5t-46.5 -0.5q-18 -80 -30 -118q16 0 46.5 -1.5t44.5 -1.5zM518 488q26 -1 22 -32q-3 -30 -25 -40q-6 -3 -12 -3q-16 1 -33 1.5t-37 1t-31 0.5q-15 -54 -30 -118q51 2 99 10q28 6 30 -19t-19 -41q-6 -6 -14 -7q-57 -11 -114 -12
q-9 -36 -43 -158q-6 -24 -39 -25q-31 -2 -37 18q-2 6 0 13q15 47 41 152q-14 0 -44 0.5t-45 0.5q-6 -25 -19.5 -82.5t-20.5 -88.5q-3 -17 -23 -22t-37.5 5.5t-13.5 29.5q6 31 37 157q-2 0 -25 -2t-34 -4q-28 -4 -30.5 21t18.5 40q8 5 15 6q40 5 74 5q14 64 28 117
q-31 -3 -35 -4q-51 -3 -62 3q-10 4 -13.5 14t-0.5 21t9.5 20.5t16 13.5t20.5 0q6 -4 61 3q18 2 20 3q19 90 28 154q3 24 35 29q30 4 39 -14q2 -5 1 -12q-8 -74 -26 -154q32 1 94 1q2 8 15 61t21 81q5 23 38 25q30 1 36 -19v-13q-20 -80 -32 -136q16 0 48.5 -0.5t48.5 -0.5z
" />
    <glyph glyph-name="dollar" unicode="$" horiz-adv-x="434" 
d="M314 172q3 40 -16.5 69t-57.5 58q-33 -149 -48 -249q49 9 83 41t39 81zM152 538q-14 -65 44 -123q20 84 49 222q-19 -6 -28 -11q-53 -33 -65 -88zM410 670q20 -9 23.5 -26.5t-9.5 -27.5t-34 -1q-42 20 -76 24q-32 -141 -60 -274q4 -3 22.5 -17.5t25.5 -20t19.5 -17
t21 -21t14.5 -18.5q33 -57 28 -114t-46.5 -103t-102.5 -59q-49 -6 -54 -6q0 -6 -9 -71q-3 -24 -33 -34q-29 -11 -36 7q-2 6 -1 13q1 17 5.5 47.5t5.5 42.5q-38 6 -72 22q-1 0 -13 6.5t-19 10.5t-19.5 12t-18 14.5t-10 14.5t-1 15.5t13.5 14.5q15 9 35 2t28 -21v-1
q10 -4 14 -6q30 -17 41 -20q11 -5 32 -8q25 154 57 297q-59 54 -85 101q-27 52 -18 105.5t51 94.5q53 51 126 53q5 15 14 69q4 23 34 34q30 12 37 -7q1 -5 0 -13q-11 -53 -17 -88q42 -7 86 -26z" />
    <glyph glyph-name="percent" unicode="%" horiz-adv-x="662" 
d="M135 607q-72 -52 -39 -110q20 -39 51.5 -49.5t68.5 17.5q50 44 32 123q-4 16 5 32q-6 0 -12 6q-34 29 -106 -19zM235 391q-56 -33 -104 -16.5t-80 74.5q-29 52 -18 113.5t59 99.5q19 15 40 26t46 19t49.5 4.5t43.5 -20.5q9 -9 10 -27t-5 -31q21 2 28 -26
q15 -62 -2 -122.5t-67 -93.5zM535 685q17 25 38 6q20 -18 13 -42q-1 -6 -5 -11q-190 -285 -235 -347q-64 -92 -116 -148q-4 -4 -14.5 -15t-15 -16t-13.5 -15.5t-14 -17t-12.5 -16.5t-12.5 -18t-10 -18t-8 -20q-12 -31 -36 -18q-22 11 -21 37q0 7 2 13q26 66 93 138
q77 85 123 150q46 64 128 186.5t116 171.5zM469 58q34 0 66.5 34.5t42 75t-10.5 73.5q-12 15 -1 31q-94 -7 -130 -81q-26 -56 -12 -92q20 -42 45 -41zM626 288q22 -28 25 -64t-8 -68.5t-32 -63.5q-32 -45 -79.5 -75t-94.5 -20q-44 10 -67 45.5t-22 78.5t21 82q34 67 95 103
q43 24 130 30q22 1 28 -13.5t-5 -28.5q2 -1 6 -4l1.5 -1.5t1.5 -0.5z" />
    <glyph glyph-name="ampersand" unicode="&#x26;" horiz-adv-x="606" 
d="M342 131q4 4 14 12.5t14 12.5q-21 30 -38 64q-16 27 -41.5 78.5t-35.5 69.5q-3 2 -3 3q-75 -44 -124 -90q-15 -16 -29.5 -37t-26.5 -48.5t-15.5 -51.5t8 -45.5t40.5 -32.5q105 -41 237 65zM266 596q-14 -62 21 -138q21 12 24 13q25 16 38.5 25.5t31.5 29t23 39.5
q12 42 -18 66.5t-69.5 15.5t-50.5 -51zM511 203q-24 -25 -50 -50q52 -68 88 -108q20 -21 -5 -37q-26 -16 -50 -4l-7 6q-39 42 -81 95q-189 -158 -342 -89q-55 25 -74.5 77t4.5 107q48 116 179 196q7 5 51 29q-20 36 -30 78q-17 61 4 117.5t79 77.5q36 10 76 9t77 -23.5
t47 -58.5q31 -98 -103 -186q-24 -15 -58 -33q43 -72 53 -94q21 -51 55 -104q105 105 115 114q17 17 47 6q26 -10 19 -29q-3 -5 -9 -11q-13 -12 -27.5 -26t-31.5 -32t-26 -27z" />
    <glyph glyph-name="quotesingle" unicode="'" horiz-adv-x="104" 
d="M79 665q4 26 31 36q26 9 32 -12q2 -6 1 -16q-5 -28 -20.5 -82t-19.5 -81q-4 -25 -30 -34q-25 -9 -31 11q-2 7 -1 17q5 28 19.5 81t18.5 80z" />
    <glyph glyph-name="parenleft" unicode="(" horiz-adv-x="247" 
d="M299 705q-214 -278 -219 -526q-2 -105 24 -177q8 -30 28 -67q2 -4 7 -12.5t7.5 -13.5t4.5 -12.5t2 -15.5q0 -29 -21.5 -34t-31.5 16q-64 104 -76.5 226t20.5 241t87.5 225.5t129.5 204.5q18 25 35 1.5t8 -48.5q-2 -4 -5 -8z" />
    <glyph glyph-name="parenright" unicode=")" horiz-adv-x="245" 
d="M98 719q-7 18 9 29.5t37 8.5t27 -19q67 -194 50 -381q-30 -281 -234 -495q-19 -19 -47 -6q-26 11 -18 32q3 5 8 11q157 164 200.5 386t-32.5 434z" />
    <glyph glyph-name="asterisk" unicode="*" horiz-adv-x="344" 
d="M318 604q14 0 21 -9.5t2 -21.5q-17 -29 -52 -29h-26q2 -5 6 -13t7 -15t5 -14q8 -22 -20 -44t-43 -7q-3 3 -5 8q-3 7 -9 20.5t-11 24.5t-10 21q-5 -9 -15.5 -24t-14.5 -21q-17 -26 -44 -24q-21 2 -18 20q1 9 9 19q6 11 29 45q-63 -3 -66 -3q-12 -1 -19 9.5t0 21.5
q11 28 49 28q8 1 16.5 1.5t18.5 1t15 0.5q-12 22 -22 36q-9 15 3 35t29.5 26.5t29.5 -5.5q24 -38 28 -43q27 33 65 58q28 20 41 1q13 -18 -6 -40l-11 -10q-27 -18 -59 -55q52 2 77 2z" />
    <glyph glyph-name="plus" unicode="+" horiz-adv-x="492" 
d="M436 370q20 0 30.5 -14.5t2 -29t-31.5 -14.5q-79 0 -159 -3q-16 -88 -23 -133q-7 -34 -38 -46q-13 -5 -22.5 1.5t-7.5 19.5q18 104 27 155q-22 0 -65 -0.5t-64 -0.5h-3h-26q-21 0 -31 14.5t-1.5 29t32.5 14.5q85 0 169 3q10 59 26 147q5 36 36 46q14 5 24 -1.5t7 -20.5
q-5 -28 -15 -85t-15 -85q75 3 148 3z" />
    <glyph glyph-name="comma" unicode="," horiz-adv-x="176" 
d="M43 10v2q-15 -8 -34.5 -1t-25.5 25q-10 29 15 48.5t54 10.5q36 -10 51.5 -33.5t11.5 -52t-18 -57t-35 -50.5q-20 -20 -49 -9q-25 10 -13 31q2 5 7 10q40 40 36 76z" />
    <glyph glyph-name="hyphen" unicode="-" horiz-adv-x="327" 
d="M44 262q-28 0 -23 26q5 25 29 36l15 4h238q28 0 23 -26q-5 -25 -29 -36l-15 -4h-238z" />
    <glyph glyph-name="period" unicode="." horiz-adv-x="131" 
d="M62 51q8 -7 8 -18.5t-8 -19.5q-25 -25 -57 -7q-16 9 -22 27.5t3 34.5q8 12 24 17t30 0q11 -3 18.5 -13t3.5 -21z" />
    <glyph glyph-name="slash" unicode="/" horiz-adv-x="411" 
d="M410 694q18 24 43 15q23 -8 16 -31q-2 -7 -7 -13q-49 -67 -96 -137.5t-98 -153.5t-84 -138t-92.5 -157t-84.5 -144q-21 -31 -47 -27q-13 4 -17.5 16t2.5 24q22 38 86 146.5t95.5 161.5t85 140t101.5 158.5t97 139.5z" />
    <glyph glyph-name="zero" unicode="0" horiz-adv-x="538" 
d="M332 710q59 0 107 -46.5t64 -103.5q32 -117 -2 -244.5t-117 -229.5q-40 -48 -94.5 -74.5t-111.5 -18.5q-44 6 -76.5 35.5t-45.5 74.5q-34 121 5 254q53 197 144 289q64 64 127 64zM448 487q0 38 -24.5 80t-64 62.5t-87.5 -4.5q-46 -27 -88 -112q-71 -134 -79 -232
q-6 -99 13 -147q18 -50 66 -65.5t96 9.5q81 38 132 172q36 112 36 237z" />
    <glyph glyph-name="one" unicode="1" horiz-adv-x="344" 
d="M283 717q20 16 32 -2.5t7 -36.5q-61 -238 -135 -623h81q38 0 47 -28q4 -13 -4 -22.5t-22 -9.5h-281q-35 0 -46 27q-4 13 4.5 23t22.5 10h141q45 253 115 551q-47 -37 -143 -109q-25 -19 -35.5 8t6.5 49q3 4 7 7q130 94 203 156z" />
    <glyph glyph-name="two" unicode="2" horiz-adv-x="428" 
d="M380 416q-107 -158 -271 -306q-52 -46 -56 -50q37 0 56 2q156 0 234 -2q28 -1 22 -26q-6 -24 -30 -34q-8 -3 -15 -3q-117 3 -234 0q-4 0 -24.5 -1.5t-35.5 -1t-32.5 3t-26.5 12.5t-6 26q1 7 4 14t10 14.5t9.5 10.5t13.5 12l10 9q9 8 33.5 30.5t39.5 34.5q99 99 136 142
q68 74 113 149q44 71 46 114q2 29 -20.5 51.5t-53.5 28.5q-70 14 -150 -45q-18 -14 -33.5 -7.5t-15 23t17.5 31.5q44 34 99 52t113 8t93 -57q58 -76 -46 -235z" />
    <glyph glyph-name="three" unicode="3" horiz-adv-x="442" 
d="M453 648l-1 -1q-8 -9 -10 -12q-18 -18 -26 -28q-12 -13 -37 -39t-37 -39q-19 -21 -57.5 -63t-57.5 -62q44 -5 73 -23q56 -32 74 -71q28 -66 0 -152q-27 -79 -97.5 -120.5t-152.5 -39.5t-154 40q-29 14 -16 36q13 21 38 19q8 -1 15 -5q55 -28 114.5 -31t110.5 27.5
t70 92.5q18 68 2 108q-17 40 -55 52t-92 9q-17 -1 -32.5 13.5t-2.5 29.5q171 190 228 247q-25 1 -98 3.5t-113 3.5q-22 0 -31.5 15t-1 29.5t31.5 13.5q238 -8 286 -6q23 2 34 -14t-5 -33z" />
    <glyph glyph-name="four" unicode="4" horiz-adv-x="473" 
d="M106 288q90 3 180 3l24 129t25 129q-96 -109 -135 -154q-13 -15 -45 -50.5t-49 -56.5zM440 288q18 -1 27.5 -20.5t4 -37.5t-24.5 -18q-68 4 -105 4q-24 -124 -37 -186q-5 -23 -35 -32.5t-36 8.5q-2 6 0 13q7 33 19.5 99t18.5 99q-109 -1 -240 -8q-20 -1 -28.5 24.5
t2.5 40.5q16 23 37 49t36 43.5t43 48t39 43.5q180 206 213 244q17 17 35 4t19 -36q2 -6 0 -12q-33 -152 -72 -368q30 0 84 -2z" />
    <glyph glyph-name="five" unicode="5" horiz-adv-x="439" 
d="M436 705q25 0 22 -28.5t-24 -40.5q-7 -4 -14 -4q-20 0 -68.5 -2.5t-75.5 -2.5h-59q-33 -165 -40 -209q66 7 92 0q29 -7 53 -29.5t36 -52.5q24 -59 11 -133.5t-55 -122.5q-73 -83 -200 -85q-110 0 -130 41q-8 16 4.5 33.5t30 20t27.5 -10.5q4 -7 25 -13q36 -6 57 -6
q92 0 132 48q30 37 40.5 98t-13.5 103q-32 49 -70 49q-16 -1 -46 -4.5t-45 -3.5q-10 -1 -18 7t-7 18q6 44 15 92t21 106.5t18 90.5q7 29 33 36q13 11 29 5q10 -5 25 -7t26.5 -1.5t29.5 2t25 1.5q62 5 113 5z" />
    <glyph glyph-name="six" unicode="6" horiz-adv-x="475" 
d="M377 248q-4 43 -26.5 66t-53 24.5t-67 -8.5t-69.5 -27.5t-59 -37.5v-4q2 -113 46 -168q32 -35 87.5 -32.5t90.5 34.5q29 29 42.5 70.5t8.5 82.5zM281 561q-100 -80 -148 -161q-15 -25 -21 -50q44 31 87.5 48.5t93 17.5t86.5 -28q47 -36 58 -105t-12 -135.5t-66 -103.5
q-41 -36 -95 -51.5t-107 2.5q-78 34 -100 139q-14 59 -14 125q-7 17 2 34q0 18 1 25q7 75 70 162q73 94 166 162q34 23 53.5 35t53 24.5t61.5 12.5q24 1 24 -27q0 -29 -21 -43q-8 -4 -15 -5q-26 0 -58.5 -14.5t-49.5 -27t-49 -36.5z" />
    <glyph glyph-name="seven" unicode="7" horiz-adv-x="424" 
d="M483 681q0 -8 -9 -19q-2 -11 -10 -15q-14 -10 -28 -26.5t-21.5 -29.5t-20 -36t-17.5 -32q-18 -29 -52 -86t-52 -86q-8 -13 -85.5 -141t-117.5 -195q-11 -14 -30 -13t-32 16.5t-3 31.5q39 67 113.5 190.5t92.5 154.5q36 58 106 176q6 10 19.5 33.5t21.5 34.5
q-26 0 -75.5 -1.5t-74.5 -2t-77 0.5q-48 2 -56 23q-9 19 12.5 32t42.5 6h4q215 -9 313 11q13 2 25 -6t11 -21z" />
    <glyph glyph-name="eight" unicode="8" horiz-adv-x="485" 
d="M394 513l6 21q-2 10 2 22q13 48 -37.5 73t-97.5 14q-27 -7 -55 -26.5t-38 -42.5q-20 -48 52 -138q23 -25 45 -39q112 56 123 116zM338 130q20 75 -12 118q-18 20 -76 65q-12 -5 -32.5 -16t-24.5 -13q-2 -1 -14.5 -8.5t-16 -9.5t-14 -8.5t-15.5 -10.5t-13 -10.5t-13 -12.5
t-10 -13q-16 -23 -15.5 -59t18.5 -56q44 -50 134 -36q90 19 104 70zM389 702q47 -23 65 -64t5 -90q-1 -5 -5 -11q2 -9 1 -12q-10 -55 -44 -94.5t-89 -73.5q34 -29 54.5 -54t25.5 -57q12 -57 -3.5 -116t-58.5 -93q-56 -41 -128 -51t-133 28q-45 34 -55.5 91.5t12.5 108.5
q13 33 42.5 62t52.5 43.5t66 38.5q-39 39 -63 88q-36 78 -19 135q18 53 78 95q105 70 196 26z" />
    <glyph glyph-name="nine" unicode="9" horiz-adv-x="503" 
d="M181 366q19 -19 46 -21t57.5 11.5t49.5 25t45 29.5q12 5 13 5q18 74 15 127q-2 74 -57 86q-131 27 -174 -28q-37 -52 -28 -136q0 -2 2.5 -16t3 -19t3.5 -17t6 -18.5t7.5 -14.5t10.5 -14zM437 650q51 -46 45 -143q-10 -124 -48 -221q-79 -205 -342 -286q-27 -8 -44 15
q-17 22 2 36q5 4 12 6q243 72 306 270q-176 -88 -256 18q-38 51 -43 133t28 136q47 78 157 80q130 0 183 -44z" />
    <glyph glyph-name="colon" unicode=":" horiz-adv-x="210" 
d="M189 474q0 -1 -3 -23q0 -1 -1 -2.5t-1.5 -3t-0.5 -3.5q-6 -30 -39 -35q-14 -2 -26 4q-11 11 -11 19q1 5 3.5 13.5t2.5 12.5l1 2v3v3q-1 9 11 21t27 12q16 2 25 -4q8 -5 12 -19zM98 48q8 -7 8 -17.5t-8 -18.5q-23 -23 -54 -7q-15 9 -20.5 26.5t2.5 32.5q17 25 51 16
q11 -3 18 -12.5t3 -19.5z" />
    <glyph glyph-name="semicolon" unicode=";" horiz-adv-x="202" 
d="M160 510q31 -24 19 -61q-1 -3 -3.5 -9t-4.5 -9q0 -1 -1 -2q-5 -13 -15 -17q-9 -5 -24 4q-11 7 -16.5 22.5t0.5 28.5q2 8 5 12q0 11 1 16q5 13 17 17.5t22 -2.5zM89 67q28 -14 26 -49q-5 -47 -54 -98q-29 -27 -50 -15q-11 7 -10.5 21t9.5 24q19 21 26 33q2 4 9 17
q-17 -6 -28 1q-12 8 -11.5 21t9.5 23q14 17 33.5 23.5t40.5 -1.5z" />
    <glyph glyph-name="less" unicode="&#x3c;" horiz-adv-x="503" 
d="M420 563q22 15 47 0q24 -15 13 -33q-4 -6 -11 -11q-51 -37 -175.5 -97t-180.5 -107q50 -27 148 -66.5t138 -59.5q28 -14 11 -37q-16 -21 -43 -16l-10 3q-38 19 -150.5 65t-167.5 81q-12 8 -16.5 18t4.5 23q49 48 118.5 87t147.5 77.5t127 72.5z" />
    <glyph glyph-name="equal" unicode="=" horiz-adv-x="520" 
d="M99 226q-32 -28 -61 -9q-24 15 -15 40q6 13 20 22q8 10 42.5 8.5t42.5 -0.5q47 7 93.5 8.5t118.5 0t91 -1.5q13 0 20.5 -10t0.5 -23q-15 -28 -51 -28q-165 5 -212 2zM90 404q-21 0 -29 15t2 29.5t33 14.5q239 0 361 15q26 3 39 -20q11 -23 -9 -34q-7 -4 -16 -5
q-136 -15 -381 -15z" />
    <glyph glyph-name="greater" unicode="&#x3e;" horiz-adv-x="530" 
d="M92 484q-27 13 -14 36q13 22 39 20q7 -1 13 -4q41 -19 113 -55t132.5 -64.5t115.5 -49.5q16 -6 18 -23t-18 -27q-52 -24 -194.5 -81t-218.5 -95q-26 -14 -48 6q-20 17 -1 34q4 4 10 7q52 26 110.5 51t132 54.5t111.5 45.5q-58 25 -160 76t-141 69z" />
    <glyph glyph-name="question" unicode="?" horiz-adv-x="391" 
d="M244 737q58 -2 101.5 -36.5t44.5 -90.5q5 -100 -85 -202q-11 -13 -58 -57.5t-71 -79t-30 -73.5q-7 -31 -31 -23q-23 6 -28 31v16q8 45 36 88.5t58.5 73t67 70t56.5 76.5q11 21 17 39.5t7 38.5t-12 34t-40 18q-75 9 -142 -28q-4 -22 -24 -17q-5 0 -7 1q-13 3 -22.5 15
t-9.5 26q0 28 34.5 48t72 26.5t65.5 5.5zM45 53q9 21 31 29t39 -8q16 -19 9 -41q-3 -14 -15.5 -23.5t-26.5 -10.5q-16 0 -21 8q-1 1 -4 7q-11 5 -15 13q-3 9 3 26z" />
    <glyph glyph-name="at" unicode="@" horiz-adv-x="949" 
d="M368 90q19 -21 63 2t74 51q30 29 55 91q6 17 37 99q4 15 9 62q-12 5 -15 8q-61 58 -127 26q-49 -27 -66 -60q-37 -77 -45 -147q-6 -25 -5 -69t20 -63zM887 520q60 -114 34 -245q-19 -104 -78.5 -176t-157.5 -80q-81 -4 -115 23q-20 18 -22 53q-42 -34 -88 -55t-94.5 -15
t-73.5 51q-36 67 -8 192q26 115 69 157q63 63 143 70.5t148 -51.5q16 2 29.5 -6.5t13.5 -22.5q-2 -35 -5 -52q0 -1 -0.5 -4t-0.5 -5q-1 -4 -3.5 -12.5t-2.5 -10.5l-1 -1q-1 -2 -1 -3q-3 -11 -13.5 -49t-14.5 -60q-6 -24 -15 -83q-8 -38 -4 -49q9 -27 96 0q42 21 68 54
q40 55 57 130.5t2 141.5q-20 81 -65.5 145t-116.5 90q-76 30 -203 6q-71 -10 -100 -21q-87 -31 -146.5 -109.5t-82.5 -170t-18 -186.5q7 -138 88 -211q60 -53 142 -70q52 -15 114 -17q9 0 33 -1.5t37.5 -1.5t33 2t33.5 7q34 11 52 -10q8 -11 3 -23.5t-18 -17.5
q-68 -22 -196 -10q-78 3 -143 24q-119 38 -181 117q-118 151 -49 415q62 227 234 302q52 23 120 35q125 21 178 15q96 -11 171.5 -63t117.5 -138z" />
    <glyph glyph-name="A" unicode="A" horiz-adv-x="546" 
d="M164 259q28 2 209 5q-27 150 -39 297q-56 -102 -170 -302zM443 208q11 -55 37 -163q6 -22 -5.5 -35t-27.5 -8t-22 27q-25 96 -40 176h-63t-70.5 -0.5t-59 -3.5t-66.5 -9q-19 -33 -53.5 -93.5t-48.5 -85.5q-16 -29 -38 -16q-21 12 -15 37q2 7 5 13l96 171q-6 22 17 29
q179 314 239 426q1 27 24 27q14 5 25 -7t10 -29v-2q7 -188 45 -395h3q38 2 48 -24q6 -12 -2 -22.5t-21 -11.5q-3 0 -8.5 -0.5t-8.5 -0.5z" />
    <glyph glyph-name="B" unicode="B" horiz-adv-x="530" 
d="M444 492q19 42 0 92t-65 62q-39 10 -85.5 3t-81.5 -29q-13 -58 -42 -232q34 2 48 4q10 11 24 10q4 0 14 -1.5t15 -2.5q24 4 36 8q112 24 137 86zM237 325q-6 1 -14 7q-37 -2 -62 -3q-30 -171 -53 -258q120 -4 189 12q79 18 104 61q55 92 -2 134q-21 15 -52.5 25.5
t-50.5 13.5t-59 8zM527 505q-17 -97 -132 -140q34 -18 52 -37q26 -28 33.5 -66.5t0.5 -75t-25 -70.5q-24 -47 -69 -76t-95.5 -36.5t-107 -10.5t-104.5 2q-15 1 -22 1q-16 2 -22 14q-19 11 -14 29q33 112 67.5 325t55.5 300q4 14 21 20.5t34 1.5q52 22 113.5 22t113 -20
t81.5 -68.5t19 -114.5z" />
    <glyph glyph-name="C" unicode="C" horiz-adv-x="510" 
d="M533 684q28 -8 11 -34q-14 -25 -40 -27q-6 -1 -12 1q-54 15 -102.5 17t-98 -16.5t-82.5 -60.5q-77 -96 -92 -235q-17 -123 34 -198q69 -102 262 -60q13 2 23.5 -6t9.5 -21q-3 -28 -39 -36q-237 -51 -322 82q-63 101 -38 248q36 191 134 283q134 126 352 63z" />
    <glyph glyph-name="D" unicode="D" horiz-adv-x="581" 
d="M499 335q13 47 16.5 92.5t-10.5 96t-49 78.5q-46 37 -139 39q-86 0 -116 -8q1 -8 -1 -18q-60 -287 -100 -536q-2 -5 -6 -13q163 -19 266 53q99 68 139 216zM501 664q43 -38 62.5 -96.5t17.5 -115.5t-19 -115q-57 -195 -184 -279q-134 -90 -340 -57q-21 4 -17 25.5
t23 36.5q-5 8 -2 23q37 226 99 528q-15 6 -12.5 29.5t20.5 35.5q58 35 184 33q120 -4 168 -48z" />
    <glyph glyph-name="E" unicode="E" horiz-adv-x="496" 
d="M511 707q26 1 25 -20q-1 -24 -25 -39q-10 -5 -19 -6q-130 -3 -261 -3q-21 -141 -40 -244q38 -2 221 6q29 1 38 -23q9 -23 -13 -33q-7 -3 -16 -3q-25 -1 -80 -3.5t-80 -3t-80 1.5q-25 -135 -57 -274q-1 -1 -1 -3q100 -12 278 5q23 2 32 -12.5t-0.5 -30t-30.5 -17.5
q-213 -20 -342 0q-14 2 -18.5 15t2.5 24q3 4 8 8q16 46 65 323t48 292q1 12 13 22t26 13q6 3 14 3q195 0 293 2z" />
    <glyph glyph-name="F" unicode="F" horiz-adv-x="507" 
d="M540 703q18 0 24 -19.5t-3 -39t-27 -19.5h-284q-26 -117 -59 -252q25 0 104.5 2t122.5 2q28 0 39 -24q10 -23 -12 -32l-16 -3q-48 0 -136 -2t-116 -2q-40 -170 -60 -298q-3 -18 -23.5 -21.5t-38 7.5t-14.5 29q22 132 61 299q-10 10 -7.5 22.5t16.5 16.5q54 234 62 270
q-9 16 -1 40t28 24h340z" />
    <glyph glyph-name="G" unicode="G" horiz-adv-x="578" 
d="M222 580q-80 -70 -107 -177q-40 -178 27 -269q40 -50 110 -68q90 -21 166 50q12 70 41 175q-11 -2 -49.5 -1.5t-49.5 0.5q-24 -1 -24 27q-1 29 21 43q8 5 15 5q14 0 39.5 -1t47 -0.5t39.5 4.5q20 4 27 -11t2 -35q-45 -162 -62 -276q-4 -26 -27.5 -33t-30.5 15
q-72 -50 -158 -39q-37 5 -75.5 24t-62.5 46q-37 42 -54.5 101.5t-17 116.5t13.5 116q36 159 135 240q140 117 352 64q17 -4 17.5 -23.5t-13.5 -36t-32 -12.5q-186 46 -290 -45z" />
    <glyph glyph-name="H" unicode="H" horiz-adv-x="656" 
d="M604 694q13 2 23 -6t8 -21q-36 -203 -122 -636q-6 -25 -31.5 -31t-32.5 15q-2 8 0 19q44 218 58 298q-85 -2 -344 0q-41 -205 -66 -315q-4 -13 -15 -21t-23 -3q-24 13 -17 49q32 139 64 296q-18 14 -14.5 41.5t27.5 27.5h1q25 133 56 276q2 12 14 20.5t24 3.5
q25 -13 16 -49q-22 -101 -52 -251q227 -2 339 0h5q32 164 46 245q5 36 36 42z" />
    <glyph glyph-name="I" unicode="I" horiz-adv-x="264" 
d="M167 672q3 17 23 24t38 -1t15 -27q-57 -348 -127 -638q-5 -23 -37 -26q-31 -2 -38 17q-2 6 0 14q63 265 126 637z" />
    <glyph glyph-name="J" unicode="J" horiz-adv-x="306" 
d="M230 697q2 13 14 19t24 0q12 -8 16 -23t0 -29q-3 -13 -12 -70q-57 -364 -124 -504q-75 -159 -169 -87q-27 21 -16 51q3 13 14 19.5t23 -1.5q86 -65 148 208q20 77 45 220.5t37 196.5z" />
    <glyph glyph-name="K" unicode="K" horiz-adv-x="544" 
d="M557 663q-131 -187 -291 -296q6 -6 13 -12.5t12 -12t11.5 -14.5t10.5 -14t11 -15.5t10 -14.5t10 -16t8.5 -15t9 -15.5t8.5 -14.5q48 -83 99 -181q13 -25 -14 -37q-26 -12 -46 4q-5 4 -8 9q-6 12 -40 75.5t-53 96.5q-3 5 -21 34.5t-25.5 41t-23 31.5t-30.5 33
q-17 -8 -35 -19q-4 -2 -6 -2q-28 -126 -70 -289q-5 -17 -26 -22t-38 4.5t-12 27.5q54 202 84 353q4 17 14.5 67t15.5 75.5t11 66t8 73.5q1 18 21 27t38.5 3t17.5 -24q-1 -26 -4.5 -53t-9 -58t-9 -51t-11.5 -57t-11 -52q181 103 332 319q17 25 34 2q18 -22 10 -49
q-2 -5 -5 -9z" />
    <glyph glyph-name="L" unicode="L" horiz-adv-x="476" 
d="M429 60q13 0 21 -10.5t4 -22.5q-9 -29 -46 -27h-360q-13 0 -21.5 10.5t-4.5 22.5q4 13 23 23q26 69 48 154t34 146t30.5 163t28.5 151q5 23 33 30.5t35 -11.5q2 -7 0 -17q-10 -50 -28.5 -150.5t-30.5 -162t-34 -146t-47 -153.5l158 1q157 1 157 -1z" />
    <glyph glyph-name="M" unicode="M" horiz-adv-x="793" 
d="M758 684q17 -7 14 -25q-7 -80 -23 -174.5t-29 -158.5t-38.5 -176.5t-35.5 -161.5q-5 -23 -37 -28q-30 -4 -37 15q-3 6 -1 14q8 37 37 168t45.5 216t28.5 169q-43 -57 -147.5 -177.5t-154.5 -188.5q-10 -13 -20 -13t-18 11q-9 3 -13 16q-18 51 -35 110t-36.5 131
t-30.5 111q-41 -223 -110 -517q-5 -24 -38 -30q-32 -6 -38 13q-2 5 0 12q80 340 136 655q3 14 17 23q10 18 26.5 21.5t25.5 -17.5q0 -1 1 -2q7 -7 6 -19q23 -69 60 -207t58 -203q38 49 161 194t181 232q13 17 25.5 11.5t19.5 -24.5z" />
    <glyph glyph-name="N" unicode="N" horiz-adv-x="661" 
d="M582 669q5 30 29 24q21 -6 28 -30l1 -18q-41 -242 -136 -630q-7 -31 -32 -23q-22 6 -27 30q-2 8 0 16q0 1 0.5 4t1.5 4q-53 99 -139.5 290t-107.5 234q-62 -286 -99 -523q-7 -37 -32 -40q-13 -1 -21.5 11t-6.5 25q54 334 125 642q6 22 22 27.5t28 -7.5t7 -36q-2 -6 -2 -8
v-2q42 -84 122 -261t125 -266q76 313 114 537z" />
    <glyph glyph-name="O" unicode="O" horiz-adv-x="611" 
d="M40 298q0 58 9 112.5t29.5 111.5t61 101t96.5 65q55 24 106 33.5t106 -5.5t86 -64q41 -63 52 -152.5t-5 -162.5q-30 -151 -161 -264q-56 -50 -122 -77t-124 -5q-132 51 -134 298v9zM252 617q-67 -37 -100 -82t-46 -125q-25 -142 12 -252q25 -78 76 -93q103 -32 229 99
q115 124 105 293q-7 128 -67 169q-73 49 -209 -9z" />
    <glyph glyph-name="P" unicode="P" horiz-adv-x="567" 
d="M500 487q33 96 -31 146q-68 54 -216 27q-33 -176 -63 -321q100 -22 189.5 16t120.5 132zM535 668q40 -36 49.5 -90.5t-11.5 -103.5q-23 -60 -70 -106.5t-108 -70.5q-99 -42 -218 -18q-32 -160 -64 -295q-5 -22 -35 -28.5t-37 13.5q-2 6 0 15q26 113 68 315q-13 4 -28 11
q-12 6 -13.5 19t8.5 21q17 18 46 11q39 191 62 314q-2 11 3 19q2 10 3 14q3 16 19.5 24.5t33.5 5.5t19 -18q185 28 273 -52z" />
    <glyph glyph-name="Q" unicode="Q" horiz-adv-x="617" 
d="M173 87q81 -33 173 4q-7 6 -19 20q-3 3 -9.5 10t-9 9t-8 6.5t-9 5t-9 1t-11 -2t-12.5 -6.5q-28 -17 -39 5t7 42q5 5 11 9q61 34 95 15q9 -5 19.5 -13t17 -14.5t17 -17.5t15.5 -16q2 -2 7 -6t7 -6q53 41 83 99q70 147 30 278q-18 54 -43.5 84t-74.5 37q-100 12 -188 -30
q-32 -13 -50 -29q0 -7 -3 -14q-68 -153 -71 -296q0 -31 1.5 -52.5t8 -48t22.5 -45t42 -28.5zM590 46q27 1 26 -23q-1 -25 -24 -39q-8 -5 -17 -5q-95 -3 -170 57l-1 2q-54 -27 -111.5 -38t-116.5 5t-92 64q-57 80 -39 243q7 73 28 151q-9 11 -8 28q5 90 79 145t171 69
q104 16 174 -23q79 -45 104 -189q18 -109 -13.5 -224.5t-108.5 -184.5q57 -41 119 -38z" />
    <glyph glyph-name="R" unicode="R" horiz-adv-x="545" 
d="M484 512q7 102 -67 123q-64 17 -150 2q-25 -93 -69 -281q272 0 286 156zM452 698q49 -27 73 -77.5t19 -109.5q-6 -69 -40.5 -121t-96.5 -77q-35 -14 -56 -18q16 -24 40 -80q11 -25 35 -85.5t39 -92.5q11 -24 -9 -50q-19 -25 -35 -7q-3 4 -5 9q-13 30 -36 86.5t-29 72.5
q-2 5 -12 29.5t-16 37.5t-18 30t-24 25q-7 4 -10 13q-50 -3 -91 -2q-44 -187 -66 -270q-4 -17 -24.5 -18t-36.5 12t-11 30q25 96 70 291t70 291q-15 0 -24 17t-5 36t21 24q187 53 278 4z" />
    <glyph glyph-name="S" unicode="S" horiz-adv-x="440" 
d="M467 690q14 -12 12.5 -31t-16.5 -33t-31 -5q-58 32 -138.5 20.5t-130.5 -52.5q-29 -24 -30 -52.5t22.5 -56t50 -50.5t59 -47.5t43.5 -35.5q38 -40 61 -86t22.5 -99.5t-34.5 -96.5q-103 -128 -376 -65q-18 4 -20 24t10.5 36.5t29.5 12.5q153 -35 246 -7q77 23 82 74
q4 47 -21.5 90t-60.5 70.5t-79.5 64t-64.5 64.5q-30 42 -33.5 83t16 73t52.5 60t77 44.5t88.5 24t88 1.5t75.5 -25z" />
    <glyph glyph-name="T" unicode="T" horiz-adv-x="486" 
d="M512 700q18 0 27.5 -19t4 -37.5t-24.5 -18.5q-33 -1 -99 -1t-99 -1q-18 -106 -60.5 -309t-59.5 -301q-3 -18 -23.5 -24t-38 3.5t-13.5 28.5q17 105 59.5 306t58.5 296q-57 -2 -171 -2q-17 0 -26.5 19t-4 38t25.5 19q74 0 222.5 1.5t221.5 1.5z" />
    <glyph glyph-name="U" unicode="U" horiz-adv-x="565" 
d="M511 673q4 17 24.5 23.5t37 -2t11.5 -29.5q-17 -72 -55 -283q-25 -143 -50 -204q-36 -90 -113 -139t-174 -39q-62 7 -98.5 48t-46 92t-5.5 113q5 66 22 147.5t30 128.5t42 144q7 24 38 26q30 1 35 -19l-1 -15q-4 -13 -17.5 -59.5t-18.5 -64.5t-15.5 -58t-15.5 -65
t-11.5 -59t-9.5 -65t-4 -54.5t2.5 -59t13 -59t30.5 -42t53 -20.5q89 -5 140 44q42 41 67 128q24 81 50 233.5t39 208.5z" />
    <glyph glyph-name="V" unicode="V" horiz-adv-x="488" 
d="M491 688q10 20 27.5 21t25 -13.5t-1.5 -35.5q-22 -43 -82.5 -160.5t-92.5 -177.5t-82.5 -153t-95.5 -169q-10 -19 -30 -22t-26 21q-52 291 -92 661q-3 26 23 44q25 16 35 -4q2 -5 3 -12q30 -284 80 -586q76 134 309 586z" />
    <glyph glyph-name="W" unicode="W" horiz-adv-x="738" 
d="M739 689q3 28 27 33q23 6 30 -15q2 -9 1 -20q-5 -44 -43 -131q-36 -84 -88 -188q-14 -28 -76.5 -148.5t-93.5 -187.5q-6 -15 -19 -22t-24.5 -0.5t-13.5 24.5q-11 95 -23 276.5t-20 263.5q-170 -333 -260 -563q-6 -15 -19.5 -21.5t-25 -0.5t-12.5 24q-5 87 -18.5 308.5
t-19.5 342.5q-2 27 24 41q24 12 33 -9q3 -6 3 -15q11 -197 32 -527q94 222 256 532q8 15 20.5 21.5t23.5 1t13 -24.5q10 -79 17.5 -166t15 -200t11.5 -166q21 43 63 122.5t60 115.5q58 120 85 181q3 7 11.5 27.5t13 31t9.5 28t7 31.5z" />
    <glyph glyph-name="X" unicode="X" horiz-adv-x="492" 
d="M481 696q13 13 32.5 10.5t32 -18.5t0.5 -31q-92 -116 -245 -299q79 -189 123 -319q9 -25 -14 -45t-37 -2q-4 4 -6 11q-44 125 -116 296q-226 -279 -240 -298q-13 -12 -32.5 -9.5t-32 18.5t-0.5 31q86 111 273 337q-78 186 -112 282q-10 24 14 44q22 20 37 2l6 -11
q21 -57 104 -260q159 192 213 261z" />
    <glyph glyph-name="Y" unicode="Y" horiz-adv-x="454" 
d="M468 704q21 25 37 4t4 -48q-2 -5 -5 -9q-53 -64 -144 -190t-132 -178q-40 -223 -51 -269q-4 -16 -24 -22t-36.5 3t-11.5 29q10 41 18.5 84.5t18.5 106t14 84.5q-22 67 -58.5 191.5t-53.5 177.5q-11 37 12 51q11 6 23 -1.5t17 -19.5q15 -47 49.5 -166.5t55.5 -183.5
q39 50 127 171.5t140 184.5z" />
    <glyph glyph-name="Z" unicode="Z" horiz-adv-x="484" 
d="M523 696q19 0 27 -11t-5 -31q-87 -107 -259.5 -305.5t-248.5 -290.5q65 2 183.5 -0.5t156.5 -2.5q24 0 31 -15t-4 -30t-32 -15q-45 0 -128.5 2t-151.5 2t-129 -4q-31 -2 -33 21t22 34v1q86 106 254.5 300.5t242.5 283.5q-333 -3 -335 -3q-18 0 -27.5 19t-4.5 38.5
t23 19.5q65 0 196 1t197 1q17 0 25 -15z" />
    <glyph glyph-name="bracketleft" unicode="[" horiz-adv-x="269" 
d="M8 -142q-38 0 -46 27q-6 18 11 29l1 1q36 125 72.5 286t53 242.5t57.5 289.5q-1 14 10.5 29.5t26.5 19.5q4 1 13 1q104 -5 131 -1q29 4 30.5 -21t-19.5 -40q-8 -5 -15 -6q-32 -5 -124 -3q-14 -119 -42.5 -250.5t-69.5 -294.5t-60 -247q0 -2 -1 -3h74q36 0 47 -27
q3 -13 -5 -22.5t-22 -9.5h-123z" />
    <glyph glyph-name="backslash" unicode="\" horiz-adv-x="509" 
d="M43 653q-8 17 7 32t33.5 15t29.5 -15q11 -24 68.5 -148.5t79 -170.5t67 -141.5t82.5 -168.5t76 -145q9 -16 -6 -31t-34 -15.5t-30 14.5q-117 219 -373 774z" />
    <glyph glyph-name="bracketright" unicode="]" horiz-adv-x="263" 
d="M-76 -150q-18 0 -22.5 19t6 38t28.5 19h119q57 346 145 772q-6 1 -44.5 3.5t-57.5 7.5q-9 1 -14 12q-4 10 0.5 22.5t11.5 18.5q16 13 37 14.5t57.5 -4.5t43.5 -7q11 0 20.5 -20t7.5 -33q-98 -481 -152 -801q7 -18 -3 -39.5t-30 -21.5h-153z" />
    <glyph glyph-name="asciicircum" unicode="^" horiz-adv-x="434" 
d="M430 451q8 -15 -5.5 -34.5t-31.5 -25.5t-28 6q-55 97 -117 235q-94 -133 -188 -241q-20 -25 -45 -18q-22 6 -13 29q3 7 10 14q124 148 221 289q12 19 33.5 27t31.5 -10q64 -153 132 -271z" />
    <glyph glyph-name="underscore" unicode="_" horiz-adv-x="379" 
d="M-75 -218q-19 0 -23.5 18.5t6 37.5t27.5 20q64 2 199.5 -0.5t199.5 0.5q25 1 25 -28q0 -31 -22 -44l-14 -4q-62 -3 -198 -0.5t-200 0.5z" />
    <glyph glyph-name="grave" unicode="`" horiz-adv-x="149" 
d="M56 653q-24 19 -12 52q4 11 15.5 17t22.5 -2q13 -12 23.5 -28.5t15 -27t12.5 -34.5t11 -32q12 -35 -7 -52q-11 -9 -23.5 -4.5t-17.5 17.5q-3 8 -9 30t-13 38t-18 26z" />
    <glyph glyph-name="a" unicode="a" horiz-adv-x="512" 
d="M260 127q53 90 79 201q4 24 7 36q8 39 13 89q-66 26 -123.5 2.5t-96.5 -82.5q-26 -38 -43.5 -79t-24.5 -89.5t10 -88.5q11 -28 33 -46.5t49 -18.5q51 -1 97 76zM509 92q11 -25 -22 -46q-25 -17 -51.5 -27t-53 -12t-46 14.5t-24.5 52.5q0 1 -3 14q-28 -40 -58 -62
q-43 -35 -96 -38t-95 28.5t-54 88.5q-13 63 4 135.5t55.5 133t94.5 105t122.5 52t137.5 -25.5q15 -9 10 -25v-6q-2 -32 -5 -46q1 -6 0 -15q-1 -4 -3 -13t-4 -13q-10 -61 -25 -113q-15 -77 -15 -137q0 -56 14 -63q5 -3 12 -3t13 2t14 6t13.5 7.5t12.5 8.5t9 6q10 7 24.5 5
t18.5 -14z" />
    <glyph glyph-name="b" unicode="b" horiz-adv-x="500" 
d="M399 323q5 20 4 64.5t-22 57.5q-30 18 -79 -3q-73 -26 -150 -89q-47 -209 -60 -279q109 -29 183 10q101 55 124 239zM321 526q77 14 110.5 -43.5t27.5 -138.5q-19 -243 -147 -323q-111 -70 -289 -5q-23 9 -22 43q1 30 21 34q5 1 11 -1q19 104 58 272q-4 23 9 36
q50 226 63 297q6 32 30 22q22 -8 28 -34q1 -7 0 -14q-16 -88 -44 -209q78 52 144 64z" />
    <glyph glyph-name="c" unicode="c" horiz-adv-x="392" 
d="M366 511q17 -10 15.5 -28t-18.5 -32.5t-33 -8.5q-51 19 -93.5 8.5t-76 -43.5t-56 -75.5t-31.5 -88.5q-22 -109 27 -156q59 -59 187 -8q30 11 38 -14q7 -24 -13 -42q-5 -4 -11 -7q-182 -69 -254 13q-69 79 -37 215q13 60 45 117t79 101t106 58.5t126 -9.5z" />
    <glyph glyph-name="d" unicode="d" horiz-adv-x="458" 
d="M196 61q43 19 102 82q25 179 49 294q-130 40 -203 -34q-66 -68 -71 -190q-2 -121 60 -155q25 -13 63 3zM402 697q5 18 25.5 20.5t37.5 -10t12 -30.5q-86 -369 -115 -664q-2 -18 -21.5 -20.5t-37.5 9.5t-16 30q0 3 0.5 9.5t0.5 9.5q-25 -20 -44 -30q-34 -20 -68.5 -28
t-70.5 2t-61 41q-60 77 -39 208q22 144 122 221q98 74 233 40z" />
    <glyph glyph-name="e" unicode="e" horiz-adv-x="456" 
d="M342 348q30 29 22 60.5t-48 45.5q-61 22 -119.5 -16t-84.5 -101q-5 -11 -13 -39q174 -20 243 50zM423 465q22 -52 3 -98.5t-65 -78.5q-107 -75 -273 -60q-2 -65 27 -114q21 -36 55.5 -49.5t69 -8t72.5 23.5q12 7 24.5 2t13.5 -19q2 -14 -6.5 -27t-22.5 -19
q-39 -18 -68 -25q-79 -19 -140.5 18t-81.5 115q-21 79 -1 162t73 145q59 70 145 92q50 12 101 -2t74 -57z" />
    <glyph glyph-name="f" unicode="f" horiz-adv-x="271" 
d="M373 681q21 -14 17 -45q-4 -26 -22 -25q-8 0 -17 6q-127 83 -176 -126q17 0 49 -1t49 -1q27 0 21 -27q-6 -26 -30 -37q-7 -4 -15 -4q-58 0 -87 2q-13 -86 -17 -146q-10 -87 -29 -232q-16 -131 -42 -192q-35 -83 -88 -98q-60 -17 -146 30q-23 12 -19 43q4 27 25 27
q8 0 16 -4q87 -51 130 -3q17 18 29 49.5t15.5 49t10.5 57.5q10 63 45 367q5 42 7 52q-10 0 -29 -1t-28 -1q-14 -1 -19 12t-1 25q10 29 44 31q14 2 43 2q19 93 54 153q37 61 94.5 69.5t115.5 -32.5z" />
    <glyph glyph-name="g" unicode="g" horiz-adv-x="460" 
d="M196 89q56 33 112 92q5 32 12.5 84t14 91.5t13.5 67.5q-107 42 -181 -20q-71 -61 -92 -176q-19 -109 16 -148q20 -15 49 -10.5t56 19.5zM388 487q22 3 39.5 -9t9.5 -29q-7 -18 -13 -36.5t-10.5 -43.5t-6.5 -37t-6 -45t-5 -39q-25 -177 -50 -252q-45 -137 -122 -178
q-101 -54 -242 5q-13 4 -19 17t2 24q16 21 51 6q48 -19 88 -18.5t68 16t50.5 46t37 66.5t26.5 84q-38 -32 -83 -53q-23 -11 -47.5 -16.5t-51 -2t-43.5 20.5q-68 67 -45 217q23 155 117 236q55 46 124.5 50t130.5 -29z" />
    <glyph glyph-name="h" unicode="h" horiz-adv-x="502" 
d="M454 475q6 -20 7.5 -40.5t-2 -45.5t-6 -39t-9.5 -43q-6 -26 -29.5 -128.5t-34.5 -158.5q-7 -38 -34 -39q-13 0 -20.5 11.5t-5.5 24.5q13 69 58 261q1 7 7.5 34t9 40t4.5 34t1 37q-3 39 -55 36q-89 -2 -197 -93q-44 -207 -73 -340q-6 -23 -38 -29q-30 -5 -36 15q-2 5 0 13
q12 53 63 291.5t84 365.5q4 23 34.5 29.5t37.5 -12.5q2 -7 0 -15q-37 -153 -51 -221q95 70 177 71q91 6 108 -59z" />
    <glyph glyph-name="i" unicode="i" 
d="M99 504q4 18 24 20t37.5 -11t13.5 -31q-12 -58 -46 -223.5t-54 -255.5q-4 -17 -24 -19t-37 11t-12 31q19 90 52.5 256t45.5 222zM215 711q21 -29 20 -59q0 -22 -19 -34q-37 -19 -79 5q-15 9 -21.5 29t0.5 37q7 14 17 21q10 6 27 12q9 3 28.5 0.5t26.5 -11.5z" />
    <glyph glyph-name="j" unicode="j" 
d="M116 488q6 30 30 23q22 -7 28 -32v-17q-13 -62 -38.5 -187t-38.5 -187q-28 -136 -52 -199q-44 -117 -153 -103q-23 2 -30 33t12 41q7 3 16 2q13 -2 38 -2q19 2 34 18t21.5 31.5t13.5 39.5q19 56 49 201q12 56 35 169t35 169zM212 661q-3 -3 -11 -7q4 2 6 2zM234 672
q6 -21 -9 -34q-1 -1 -4 -3.5t-5 -3.5q-11 -5 -21 -6q-12 -3 -23 0q-15 1 -26 9t-10 22q1 10 8 15q0 1 -1 1l-1 2q-4 14 5 23q18 13 40 12q12 0 24 -7q18 -15 23 -30z" />
    <glyph glyph-name="k" unicode="k" horiz-adv-x="433" 
d="M427 448q-15 -17 -45 -52.5t-49 -57t-48 -48t-57 -42.5q28 -28 54 -71.5t39.5 -73t34.5 -82.5q10 -26 -11 -48q-20 -21 -35 -1q-3 5 -6 11q-14 37 -20 52.5t-22.5 50.5t-30 55t-34 42.5t-43.5 34.5h-1q-1 0 -8 -1.5t-11 -2.5q-17 -97 -36 -188q-5 -23 -37 -29
q-33 -7 -40 13q-1 5 0 11q21 97 62 314.5t67 332.5q5 23 37 29.5t38 -12.5q2 -5 0 -12q-30 -139 -75 -382q10 8 20 0h1q34 18 66.5 50t69.5 78t51 61q17 19 51 6q28 -12 23 -30q-1 -4 -5 -8z" />
    <glyph glyph-name="l" unicode="l" horiz-adv-x="258" 
d="M160 681q5 18 25.5 21t38 -9t13.5 -30q-12 -54 -40.5 -169.5t-47.5 -205t-29 -172.5q-6 -14 -5.5 -46t22.5 -33q4 0 7.5 1t8.5 2t9 2q26 6 43 -16.5t-4 -36.5q-5 -4 -14 -6q-77 -17 -115 11q-37 28 -31 99q3 60 36 212q76 341 83 376z" />
    <glyph glyph-name="m" unicode="m" horiz-adv-x="762" 
d="M719 417q9 -68 -22 -207q-19 -82 -57 -192q-8 -23 -42 -22q-29 2 -34 21q-1 6 1 13q25 71 38.5 115.5t27 110.5t13.5 120q0 43 -11 65q-3 7 -9 14q-4 3 -8 3q-28 -1 -64.5 -22t-60 -40t-58.5 -51q-2 -51 -11.5 -103.5t-30 -131t-25.5 -100.5q-4 -17 -24.5 -21t-37.5 6.5
t-13 29.5t22.5 90t27.5 117.5t12 92.5q-24 18 1 38l2 1v3q0 49 -12 75l-9 16q-5 3 -8 4l3 -2l-6 2q-34 -5 -72 -32q-53 -35 -108 -85q-7 -37 -18.5 -103.5t-22 -121.5t-22.5 -103q-7 -31 -32 -24q-22 7 -27 29q-2 9 0 18q10 41 53 271q-18 5 -24 18t9 29q9 9 29 27
q3 16 11 52.5t12 56.5q4 12 17 15.5t23 -3.5q25 -19 16 -52v-4q13 10 48 33q68 38 110 36q81 -1 102 -92q103 86 182 88q46 2 74.5 -25t34.5 -73z" />
    <glyph glyph-name="n" unicode="n" horiz-adv-x="502" 
d="M448 452q28 -81 -8 -229q-8 -34 -28 -102t-28 -102q-6 -24 -38 -27q-31 -2 -38 17q-3 6 -1 14q7 29 33 111t36.5 141.5t5.5 114.5q-3 51 -21 62q-21 13 -64 -9q-58 -31 -153 -112q-22 -160 -68 -317q-3 -13 -16 -20.5t-24 -0.5q-23 13 -13 49q36 121 61 277
q-14 6 -17 15.5t10 22.5q3 3 15 13q4 32 13 109q2 23 17.5 29.5t29 -5t11.5 -33.5q-2 -16 -6 -44q67 51 119 73q24 10 49 14t49.5 0.5t44.5 -19t29 -42.5z" />
    <glyph glyph-name="o" unicode="o" horiz-adv-x="485" 
d="M259 76q62 49 89.5 119.5t16.5 149.5q-9 80 -48 105q-28 18 -74.5 -7.5t-74.5 -54.5q-48 -50 -65.5 -115t-1.5 -129q16 -70 57 -93q41 -24 101 25zM328 509q38 -11 65 -41t37 -67t14 -79t-3 -77q-14 -93 -58 -149q-75 -93 -159 -108q-76 -8 -126.5 28.5t-65.5 98.5
t-8.5 130.5t40 130t83.5 91.5q96 65 181 42z" />
    <glyph glyph-name="p" unicode="p" horiz-adv-x="485" 
d="M384 296q9 117 -46 137q-75 26 -203 -107q-9 -40 -24.5 -120t-23.5 -120q130 -52 214 30q72 68 83 180zM401 477q62 -69 37 -212q-28 -146 -121 -222q-53 -43 -118.5 -51t-127.5 18q-28 -132 -53 -224q-8 -30 -32 -15q-24 14 -25 40q-1 7 1 13q35 129 83.5 375t59.5 295
q3 13 15.5 17t22.5 -4q26 -17 19 -52q-1 -2 -2 -6t-2 -7.5t-2 -7.5q22 19 41 31q34 23 67 36t72 9.5t65 -33.5z" />
    <glyph glyph-name="q" unicode="q" horiz-adv-x="519" 
d="M151 60q90 -4 186 107q0 2 2 4q8 37 27 121.5t29 129.5q-72 35 -134.5 8.5t-105.5 -88.5t-52 -131q-20 -150 48 -151zM434 472q19 2 33.5 -7t10.5 -25q-48 -210 -70 -316q-3 -15 -12.5 -59t-13.5 -66t-11 -57.5t-11 -66t-7 -59.5q-2 -19 -22 -25t-39 3.5t-17 27.5
q9 78 39 232q-99 -68 -186 -49q-47 8 -74 41.5t-30.5 75t0.5 86.5q22 160 136 240q63 45 134.5 52t139.5 -28z" />
    <glyph glyph-name="r" unicode="r" horiz-adv-x="360" 
d="M360 501q30 -10 15 -36q-13 -24 -39 -25q-6 0 -12 2q-13 4 -25.5 4t-23.5 -2.5t-22.5 -8.5t-20.5 -12.5t-20 -16t-19 -17t-18.5 -18t-17.5 -16.5q-1 -1 -3.5 -3t-4.5 -3q-47 -252 -72 -353q-3 -13 -15.5 -20.5t-24.5 -1.5q-23 11 -14 49q15 56 70 336q-4 9 2 20
q18 90 21 108q5 21 21.5 28.5t29 -3.5t7.5 -33q-2 -6 -3.5 -18t-2.5 -15q49 39 94 55t98 0z" />
    <glyph glyph-name="s" unicode="s" horiz-adv-x="353" 
d="M337 491q26 -14 10 -37q-15 -22 -40 -19q-7 1 -13 4q-54 29 -112 13q-32 -10 -53.5 -34.5t-9.5 -53.5q12 -27 40 -50t55.5 -37.5t53 -40t32.5 -57.5q12 -49 -13 -94t-73 -71q-110 -61 -237 -4q-28 12 -11 35q15 21 41 20q7 0 13 -3q26 -11 56 -15.5t59.5 -0.5t53.5 21
t34 46q12 32 -2.5 60.5t-37.5 45.5t-57.5 39.5t-47.5 34.5q-47 48 -33.5 105.5t71.5 88.5q51 28 110.5 29.5t110.5 -25.5z" />
    <glyph glyph-name="t" unicode="t" horiz-adv-x="299" 
d="M275 501q29 3 41 -21q11 -22 -11 -33q-6 -3 -15 -4q-40 -4 -122 -4q-35 -140 -50 -241q-17 -104 0 -144q4 -9 8.5 -14.5t8.5 -4.5q18 0 51 20q34 20 52 3q9 -10 5.5 -24t-14.5 -21q-113 -67 -162 -21q-38 36 -29 144q8 106 58 303q-33 0 -49 -1q-40 0 -46 25
q-3 12 7 22.5t23 10.5q26 1 78 1q16 66 22 99q5 23 36 29t37 -14q2 -6 0 -14q-4 -18 -11.5 -52t-10.5 -48q50 0 93 4z" />
    <glyph glyph-name="u" unicode="u" horiz-adv-x="487" 
d="M391 494q7 32 30 25q21 -6 25 -31q1 -8 -1 -17q-26 -120 -45 -238q-2 -12 -6.5 -38.5t-6.5 -40.5q11 -14 -3 -27q0 -3 -2 -3q-7 -53 -7 -89q0 -23 -15 -31.5t-29.5 1.5t-14.5 33q1 10 1 30q-160 -126 -250 -62q-22 16 -33.5 41t-12 59t1 54.5t6.5 55.5q6 42 14.5 84.5
t24.5 109t20 84.5q4 17 24 18t36.5 -12.5t12.5 -31.5q-4 -19 -23 -98.5t-27 -123.5q-12 -72 -12 -111q-3 -65 9 -83q13 -19 99 29q60 35 113 85q6 6 11 7q9 47 14 84q29 162 46 237z" />
    <glyph glyph-name="v" unicode="v" horiz-adv-x="429" 
d="M440 507q17 -18 0 -53q-82 -144 -270 -438q-10 -16 -28 -16.5t-23 19.5q-57 270 -78 444q-5 35 22 50q11 7 23.5 2.5t13.5 -18.5q18 -142 65 -380q163 258 230 378q7 11 20 15.5t25 -3.5z" />
    <glyph glyph-name="w" unicode="w" horiz-adv-x="686" 
d="M646 487q13 29 39 25q21 -4 20 -26q0 -8 -4 -17q-40 -92 -129.5 -258.5t-107.5 -202.5q-10 -20 -29.5 -17.5t-22.5 25.5q-6 61 -28 180t-29 180q-12 -20 -93.5 -156t-123.5 -208q-6 -12 -19 -16.5t-24 2t-11 22.5q0 85 -19.5 239t-23.5 208q-2 27 23 43q24 14 33 -7
q3 -6 4 -15q4 -63 19.5 -182t20.5 -173q35 59 214 357q6 11 18.5 16t23 -1.5t11.5 -22.5q1 -42 7 -92t12 -85t16.5 -93.5t15.5 -86.5q15 27 48 88t52 96t44 85.5t43 92.5z" />
    <glyph glyph-name="x" unicode="x" horiz-adv-x="442" 
d="M386 503q15 17 32.5 14.5t21.5 -18t-9 -33.5q-33 -37 -94 -106t-85 -96q88 -177 117 -237q12 -26 -18 -36q-28 -10 -47 7q-4 4 -6 9q-43 89 -98 200q-61 -70 -183 -202q-22 -23 -44 -10q-20 12 -9 34q3 6 9 12q102 112 200 221q-60 118 -100 210q-12 25 16 35t48 -7
l7 -10q38 -84 80 -169q27 30 81 91t81 91z" />
    <glyph glyph-name="y" unicode="y" horiz-adv-x="445" 
d="M391 499q11 22 42 18q29 -3 31 -23q1 -8 -3 -16q-109 -224 -195 -388q-77 -147 -114 -199q-83 -123 -178 -80q-12 5 -13 18t8 22q18 16 31 11t31 -2.5t33 25.5q8 13 39.5 61.5t49.5 80.5q-73 270 -92 440q-2 17 15.5 28.5t37.5 8t22 -23.5q14 -127 70 -356q36 67 185 375
z" />
    <glyph glyph-name="z" unicode="z" horiz-adv-x="426" 
d="M395 507q18 1 26 -17t2 -37.5t-24 -21.5q-65 -68 -175.5 -199t-154.5 -180h234q23 0 33.5 -14.5t2.5 -29t-31 -14.5h-309q-21 0 -32 14t-5 28t26 16q3 1 4 5q61 64 168 191t155 180h-68.5h-80.5h-68q-19 0 -27 19t-1 38.5t25 20.5q275 0 300 1z" />
    <glyph glyph-name="braceleft" unicode="{" horiz-adv-x="337" 
d="M377 763q30 -8 16 -33q-12 -23 -38 -26q-7 -1 -13 1q-16 5 -27 3q-2 0 -8 -6q-16 -15 -32 -55q-11 -34 -24.5 -99t-16.5 -76q-35 -141 -103 -185q23 -48 5 -184q-1 -6 -5 -36.5t-5.5 -44.5t-1.5 -37.5t4 -41.5q12 -53 88 -29q27 8 34 -20q7 -29 -12 -45q-5 -4 -11 -6
q-103 -31 -140 29q-31 51 -18 155q1 16 9 76t9 94q0 37 -6 43q-7 11 -36 6q-24 -7 -26 24q-29 6 -15 30q13 24 39 28h12q32 -6 50.5 11t31.5 54q12 32 46 175q50 236 194 195z" />
    <glyph glyph-name="bar" unicode="|" horiz-adv-x="255" 
d="M157 685q4 24 38 29q31 5 38 -13q3 -6 1 -13q-93 -454 -134 -789q-4 -25 -35 -31q-32 -5 -42 15q-3 5 -2 13q45 336 136 789z" />
    <glyph glyph-name="braceright" unicode="}" horiz-adv-x="296" 
d="M214 370q17 6 30 -10t12 -36.5t-18 -26.5q-33 -11 -56 0q-8 -3 -9 -6q-10 -14 -14 -25q-12 -31 -17 -71q-3 -22 -10.5 -81.5t-13.5 -92.5q-7 -41 -21.5 -75.5t-38.5 -64t-58 -38.5t-80 1q-19 8 -19.5 24.5t15 31.5t32.5 11q34 -11 54 -3t31 39q15 36 31 154q1 5 4 35
t4.5 41t6 37.5t10 41t14 34t21 33.5t27.5 24q-13 57 7 159q1 7 6 30.5t7 34.5t4.5 30t3.5 35t0 31q-4 28 -5 31q-2 5 -4 6q-16 12 -50 3q-17 -4 -30.5 12.5t-12.5 36.5t18 24q93 21 126 -47q25 -54 11 -158q-3 -19 -13 -77t-13 -90q-3 -30 -3 -31q0 -6 2 -9q1 0 4 1t5 1z
" />
    <glyph glyph-name="asciitilde" unicode="~" horiz-adv-x="554" 
d="M65 280q-21 -15 -47 1q-26 15 -14 34l10 10q4 3 29.5 21t35 24t29.5 16t38 14q59 14 145 -23q7 -3 24 -11t26.5 -12t23.5 -8t26 -4q7 0 14 2t13 7.5t10.5 10.5t9.5 14l7.5 13.5t7 14t5.5 11.5q7 16 28.5 18t37 -9.5t7.5 -29.5q-66 -143 -194 -99q-11 4 -57.5 24.5
t-73.5 25.5q-19 4 -40.5 -3t-33 -13.5t-37.5 -26z" />
    <glyph glyph-name="currency" unicode="&#xa4;" horiz-adv-x="591" 
d="M177 316q3 -34 32.5 -52.5t68 -18t71.5 18.5q9 7 20 13q36 28 40.5 72.5t-19.5 73.5q-12 5 -15 16q-44 39 -106 7q-5 -3 -11 -3q-38 -22 -61 -56t-20 -71zM520 177q13 -12 2 -31.5t-30.5 -26.5t-34.5 2q-64 67 -92 85q-45 -15 -94.5 -16t-94.5 15q-28 -26 -102 -79
q-37 -23 -51 -2q-6 11 1.5 25.5t19.5 22.5q45 28 85 62q-29 27 -29 71q-3 89 79 159q-9 10 -32.5 37.5t-36.5 42.5q-7 12 -0.5 23.5t20.5 17.5q32 19 53 -5q9 -11 30 -36.5t32 -40.5q28 13 65 18q15 0 20 -1q53 0 91 -25q50 48 78 74q20 21 51 11q26 -9 19 -29q-2 -6 -8 -12
q-16 -16 -48 -45.5t-47 -44.5q4 -5 9 -18q18 -43 9 -92.5t-43 -84.5q16 -14 45 -43z" />
    <glyph glyph-name="brokenbar" unicode="&#xa6;" horiz-adv-x="244" 
d="M185 419q-1 -23 -31 -37t-40 4q-2 5 -2 13q0 98 36 302q4 24 36 37q32 14 38 -5q2 -5 1 -12q-34 -190 -38 -302zM81 219q13 31 38 28q20 -2 20 -24q0 -9 -5 -19q-15 -36 -23.5 -75.5t-16 -94t-11.5 -76.5q-5 -28 -31 -37q-24 -8 -30 14q-2 8 -1 18q3 19 10.5 65t12 71
t14.5 62t23 68z" />
    <glyph glyph-name="section" unicode="&#xa7;" horiz-adv-x="500" 
d="M377 406q-11 10 -26.5 16t-39 11t-30.5 7q-11 -9 -21 -9q-32 -2 -65 -17.5t-55 -40.5q-7 -9 -13 -22t-6 -28t11 -22q9 -7 20.5 -12t26.5 -10t23 -8q25 -12 33 -19l2 1q2 1 20 11t32 18t34.5 21.5t33.5 25.5t23.5 26t9.5 27t-13 24zM429 632q-39 12 -93 0t-83 -44
q-10 -12 -11.5 -22.5t6 -18.5t17.5 -15t25 -12.5t27 -9.5t26 -8t19 -6q55 -19 76.5 -76t-7.5 -108q-14 -26 -41 -49t-44.5 -34t-56.5 -33q31 -43 24.5 -93.5t-52.5 -81.5q-95 -66 -228 -9q-15 10 -12 28t21 32t35 6q75 -34 134 -13q54 21 34 62q-25 52 -81 76q-6 3 -30.5 12
t-36.5 15q-40 23 -40.5 73.5t25.5 86.5q44 71 130 101q-2 4 -6 10t-7 10q-23 39 -17.5 76.5t32.5 62t65 43t79 20.5t74 -5q24 -7 27 -40q3 -32 -17 -37q-6 -1 -13 1z" />
    <glyph glyph-name="copyright" unicode="&#xa9;" horiz-adv-x="755" 
d="M474 90q83 39 136.5 117.5t60.5 166.5q9 94 -38 159.5t-136 82.5q-71 11 -165 -23.5t-157 -95.5q-55 -54 -80 -123.5t-8 -131.5q21 -73 83 -122.5t140.5 -58t163.5 28.5zM734 443q3 -91 -33.5 -183t-107.5 -161q-84 -82 -193.5 -106.5t-201.5 16.5q-115 49 -158 162.5
t13 245.5q62 134 188 203q106 61 243 64q107 3 176.5 -63.5t73.5 -177.5zM450 291q17 28 38 11q19 -17 12 -43q-1 -5 -4 -10q-28 -47 -71 -75t-89 -17q-43 10 -75.5 40.5t-42.5 73.5q-12 55 6 109.5t65 95.5q25 21 50.5 28.5t56 1t45.5 -11.5t50 -20q15 -6 17 -27
t-9.5 -36.5t-28.5 -7.5q-2 1 -20 9.5t-24.5 11t-23 7.5t-26.5 4.5t-23 -4t-24 -11.5q-32 -23 -48.5 -57t-5.5 -65q10 -27 31 -44.5t46 -20.5t52 11.5t46 46.5z" />
    <glyph glyph-name="guillemotleft" unicode="&#xab;" horiz-adv-x="453" 
d="M94 256q81 -75 108 -149q10 -23 -17 -45q-25 -20 -41 -4l-5 9q-26 69 -112 149q-12 10 -4 30q9 22 24.5 42t37.5 43t32 36q6 7 34 47.5t48 56.5q32 22 47 5q9 -10 6 -24t-13 -22q-18 -15 -43 -51t-31 -44q-10 -12 -35 -37.5t-36 -41.5zM393 492q20 18 34 -9q13 -28 0 -51
l-6 -7q-18 -16 -43 -53t-38 -51q-43 -45 -62 -67q42 -60 73 -132q11 -25 -9 -47q-19 -20 -35 0q-3 4 -6 10q-37 82 -85 142q-19 24 1 54q16 23 51.5 60t48.5 53q7 9 22 31t27.5 38t26.5 29z" />
    <glyph glyph-name="logicalnot" unicode="&#xac;" horiz-adv-x="494" 
d="M46 314q-18 0 -23.5 19t4.5 38.5t30 19.5q41 0 179.5 6t213.5 1q19 0 23 -27t-13 -41q-40 -32 -42 -96q-1 -32 -27 -42q-21 -7 -29 12q-3 7 -3 16q0 59 19 104q-58 1 -169 -4.5t-163 -5.5z" />
    <glyph glyph-name="uni00AD" unicode="&#xad;" horiz-adv-x="326" 
d="M52 282q-29 0 -32 23q-1 21 22 32q9 4 21 4h210q30 0 33 -23q2 -22 -23 -32q-9 -4 -19 -4h-212z" />
    <glyph glyph-name="registered" unicode="&#xae;" horiz-adv-x="589" 
d="M486 300q20 49 15.5 107.5t-29.5 106.5t-65 82.5t-92 36.5t-110 -31q-47 -23 -75 -70t-38 -104q-15 -85 15 -158t104 -87q76 -15 160 14.5t115 102.5zM568 408q-3 -79 -43.5 -148t-113.5 -109q-54 -30 -116 -41t-120 2t-94 51q-47 50 -56.5 136.5t15 170t89 149
t152.5 75.5q61 16 117 -3.5t93.5 -62.5t58.5 -101t18 -119zM331 460q-13 34 -64 38q-3 -35 -15 -105q34 7 61 24.5t18 42.5zM407 473q-4 -65 -75 -105q21 -24 35 -64q5 -18 -12 -32.5t-35.5 -14t-25.5 15.5q-17 42 -36 63q-3 -1 -9 -2.5t-8 -1.5q-2 -9 -5.5 -26.5
t-3.5 -19.5q-4 -24 -33 -36q-30 -12 -36 9q-2 6 0 15q33 163 36 230q-5 8 -2 18q3 9 8 14q10 19 32.5 28.5t30.5 -4.5q35 2 66 -4.5t53.5 -27.5t19.5 -55z" />
    <glyph glyph-name="degree" unicode="&#xb0;" horiz-adv-x="305" 
d="M140 399h-6h-2q-74 2 -88 74q-14 69 29 144q45 79 114 90q25 4 51 -3q50 -13 72.5 -61t8.5 -103q-18 -62 -66 -99.5t-113 -41.5zM228 627q-50 17 -94 -32q-37 -42 -32 -82q4 -35 41 -37q39 2 72 19.5t45 52.5q9 25 0 47.5t-32 31.5z" />
    <glyph glyph-name="plusminus" unicode="&#xb1;" horiz-adv-x="474" 
d="M221 310q-82 3 -143 17q-30 8 -18 33q12 23 38 27q8 1 15 -1q57 -12 117 -15q4 22 12.5 71t13.5 75q4 25 34 41q29 15 36 -4q1 -6 0 -14q-5 -28 -15 -84.5t-15 -84.5q40 2 128 8q29 2 29 -19t-24 -34q-11 -6 -22 -7q-18 -1 -57.5 -3.5t-61.5 -3.5q-6 -36 -14 -108
q-3 -26 -33 -41q-28 -15 -35 5q-2 5 -1 14q4 46 16 128zM404 128q25 2 24 -21q-2 -26 -25 -44q-10 -8 -20 -9q-199 -14 -339 -14q-27 0 -23 27t27 40q8 5 16 5q151 3 340 16z" />
    <glyph glyph-name="mu" unicode="&#xb5;" horiz-adv-x="572" 
d="M474 470q5 29 27 29q21 1 28 -21q4 -11 1 -23q-8 -49 -46 -223q5 -12 -7 -31q-2 -2 -2 -4q-26 -114 -39 -172q-5 -22 -21 -27t-28 8t-7 36q3 10 7 31t6 31q-92 -87 -182 -87q-72 -3 -102 61q-7 -27 -22 -102q-3 -19 -7 -36.5t-12.5 -47t-19.5 -49.5t-25 -36t-33.5 -15.5
t-41.5 20.5q-18 17 2.5 39.5t43.5 17.5q1 2 1 5q3 8 14 51q9 49 21 99q7 35 30.5 130.5t35 163.5t11.5 134q0 24 30 39q28 13 38 -5q3 -5 3 -11q22 -8 15 -38q-11 -43 -14.5 -57t-12 -54.5t-10.5 -63.5t-1.5 -55.5t6.5 -59.5q18 -63 66 -56q49 3 117 54q32 26 49 46
q8 6 22 24q2 1 4 3q1 2 2 2q50 234 53 250z" />
    <glyph glyph-name="mu" unicode="&#x3bc;" horiz-adv-x="572" 
d="M474 470q5 29 27 29q21 1 28 -21q4 -11 1 -23q-8 -49 -46 -223q5 -12 -7 -31q-2 -2 -2 -4q-26 -114 -39 -172q-5 -22 -21 -27t-28 8t-7 36q3 10 7 31t6 31q-92 -87 -182 -87q-72 -3 -102 61q-7 -27 -22 -102q-3 -19 -7 -36.5t-12.5 -47t-19.5 -49.5t-25 -36t-33.5 -15.5
t-41.5 20.5q-18 17 2.5 39.5t43.5 17.5q1 2 1 5q3 8 14 51q9 49 21 99q7 35 30.5 130.5t35 163.5t11.5 134q0 24 30 39q28 13 38 -5q3 -5 3 -11q22 -8 15 -38q-11 -43 -14.5 -57t-12 -54.5t-10.5 -63.5t-1.5 -55.5t6.5 -59.5q18 -63 66 -56q49 3 117 54q32 26 49 46
q8 6 22 24q2 1 4 3q1 2 2 2q50 234 53 250z" />
    <glyph glyph-name="paragraph" unicode="&#xb6;" horiz-adv-x="471" 
d="M374 684q5 24 37 36q32 11 38 -7q2 -5 1 -12q-22 -129 -67 -385t-68 -384q-5 -24 -38 -36q-31 -11 -38 7q-1 5 0 12q22 129 67.5 385t67.5 384zM251 444q6 -5 3 -15.5t-12 -20.5q-11 -60 -41.5 -224.5t-46.5 -254.5q-5 -30 -29 -33q-22 -3 -29 17q-3 10 -1 20
q12 67 26 142.5t31 166.5t27 143q-27 5 -49 18q-43 24 -60.5 74.5t-1.5 107.5q16 65 66 103t107 31q5 23 21 30t28.5 -4t8.5 -32q-45 -253 -48 -269z" />
    <glyph glyph-name="guillemotright" unicode="&#xbb;" horiz-adv-x="448" 
d="M249 286q10 -14 -6 -30q-31 -39 -101 -105.5t-78 -74.5q-23 -27 -51 -16q-12 6 -13 19.5t8 22.5q19 20 77 75.5t87 88.5q-19 32 -48 92t-40 81q-8 17 6 32.5t33 16.5t30 -14q9 -17 41.5 -85.5t54.5 -102.5zM402 351q1 -2 6.5 -11t7 -12.5t5.5 -11.5t5 -12.5t1.5 -11.5
t-1 -13t-5.5 -12q-20 -33 -47 -64.5t-68.5 -73t-55.5 -57.5q-15 -17 -32 -14.5t-20.5 18t10.5 33.5q13 15 47 50.5t58 63t44 53.5q0 2 -1 4q-4 7 -13 23.5t-14 25.5q-29 50 -65 107q-9 15 2 34t28 22.5t30 -11.5q43 -69 78 -130z" />
    <glyph glyph-name="afii10023" unicode="&#x401;" horiz-adv-x="509" 
d="M521 683q13 -1 22 -12t4 -23q-9 -24 -49 -20q-44 6 -137 5t-137 6q-32 -105 -55 -240q30 1 114 5t130 4q29 0 38 -24q10 -24 -13 -32q-7 -3 -17 -3q-39 0 -127 -4t-135 -4q-8 -45 -21 -130t-19 -120q5 1 27.5 3.5t29.5 3t27 2.5t29 2t27 0.5t29.5 -1t26.5 -3t28.5 -5.5
t27.5 -9q24 -10 20 -43q-3 -30 -23 -34q-7 -1 -14 2q-32 12 -71.5 15.5t-68 0.5t-75.5 -9t-70 -8q-16 -2 -23.5 13t-3.5 33.5t17 26.5q6 36 26.5 174.5t38 225.5t43.5 171q-22 7 -25 23t11 27t34 6q14 18 33 13t20 -26q48 -8 140 -7t141 -5zM320 890q22 -15 6 -51l-15 -21
q0 -4 -3 -8v-1q0 -3 -1 -4q0 -14 -9.5 -26.5t-23.5 -13.5q-13 -1 -19 10t-6 25q0 22 12 48q15 26 16 27q8 12 19 17t24 -2zM438 742q-11 -2 -24.5 5.5t-10.5 20.5q2 8 5.5 23t4.5 22q0 1 0.5 5t0.5 7q-16 10 -10 28q10 28 47 26q9 -1 16 -3.5t11 -7.5t7 -10t3.5 -13
t0.5 -13.5t-2 -15t-3 -14t-3 -14t-3 -12.5q-6 -32 -40 -34z" />
    <glyph glyph-name="afii10051" unicode="&#x402;" horiz-adv-x="636" 
d="M611 296q24 -101 -74 -210q-89 -99 -189 -133q-30 -10 -35 15q-5 23 17 39q6 5 13 7q69 21 135 92t63 139q-5 87 -122 87q-30 0 -72 -7q-17 -2 -33 -6q-7 -1 -12 -3q5 4 10 9q-8 -10 -22.5 -15t-25.5 -3q-37 -170 -41 -269q0 -22 -15 -30.5t-29 2t-13 33.5
q3 111 48.5 309t54.5 254q-161 -7 -207 -7q-26 0 -20 26q6 27 30 39q8 4 15 4q74 0 211.5 5.5t196.5 6.5q26 0 19.5 -26t-30.5 -39q-8 -4 -16 -4q-46 0 -138 -4q-10 -58 -51 -236q13 5 28 9q82 14 107 14q35 1 62 -1.5t56.5 -11.5t50 -30.5t28.5 -54.5z" />
    <glyph glyph-name="afii10052" unicode="&#x403;" horiz-adv-x="514" 
d="M573 674q4 -13 -5 -23.5t-21 -10.5h-306q-107 -493 -140 -620q-6 -22 -23 -28t-29.5 5.5t-6.5 34.5q19 71 39.5 156t33 143t35 162.5t32.5 149.5q-22 8 -27 25q-4 12 4.5 22.5t20.5 10.5h345q37 0 48 -27zM331 760q-11 8 -10 20.5t10 21.5q14 14 52.5 48.5t57.5 55.5
q18 21 46 11q25 -9 17 -31q-2 -6 -8 -13q-20 -23 -59 -58t-51 -47q-11 -10 -26.5 -12.5t-28.5 4.5z" />
    <glyph glyph-name="afii10053" unicode="&#x404;" horiz-adv-x="539" 
d="M573 693q30 -8 24 -30q-5 -20 -29 -25q-11 -2 -21 1q-101 27 -200.5 -4.5t-162.5 -113.5q-39 -51 -55 -136q161 -7 265 8q17 2 27.5 -16t6 -38t-23.5 -23q-95 -13 -283 -7q-2 -5 -2 -16q-6 -143 50 -197q24 -25 57.5 -36.5t73 -9t69.5 8t69 16.5q28 7 49 -16
q19 -20 -2 -33q-5 -3 -12 -5q-254 -70 -360 36q-82 80 -71 244q9 185 96 277q83 90 201.5 119.5t233.5 -4.5z" />
    <glyph glyph-name="afii10054" unicode="&#x405;" horiz-adv-x="440" 
d="M467 690q14 -12 12.5 -31t-16.5 -33t-31 -5q-58 32 -138.5 20.5t-130.5 -52.5q-29 -24 -30 -52.5t22.5 -56t50 -50.5t59 -47.5t43.5 -35.5q38 -40 61 -86t22.5 -99.5t-34.5 -96.5q-103 -128 -376 -65q-18 4 -20 24t10.5 36.5t29.5 12.5q153 -35 246 -7q77 23 82 74
q4 47 -21.5 90t-60.5 70.5t-79.5 64t-64.5 64.5q-30 42 -33.5 83t16 73t52.5 60t77 44.5t88.5 24t88 1.5t75.5 -25z" />
    <glyph glyph-name="afii10055" unicode="&#x406;" horiz-adv-x="264" 
d="M167 672q3 17 23 24t38 -1t15 -27q-57 -348 -127 -638q-5 -23 -37 -26q-31 -2 -38 17q-2 6 0 14q63 265 126 637z" />
    <glyph glyph-name="afii10056" unicode="&#x407;" horiz-adv-x="270" 
d="M197 674q7 23 39 31q30 7 35 -12q2 -6 0 -14q-3 -9 -23 -78.5t-24.5 -85.5t-21.5 -77.5t-23 -86t-18.5 -77.5t-19.5 -87t-15 -78.5t-13 -85.5q-2 -23 -30 -31q-30 -9 -40 9q-4 7 -2 17q7 54 18 114.5t20 103t28.5 117t27 101.5t32.5 115.5t30 104.5zM182 777
q-16 -7 -28 9q-16 14 -16 50q0 15 9 28.5t22 17.5q21 7 30 -9q6 1 13 0q13 -4 16.5 -17.5t-1.5 -23.5v-4q-4 -9 -5 -16q-15 -25 -40 -35zM366 856q9 -18 -3 -31q-12 -22 -33 -28q-12 -3 -28 0q-16 5 -29 12q-13 6 -14 19.5t9 22.5q10 16 33 18q6 4 8 5q31 14 47 -6
q7 -7 10 -12z" />
    <glyph glyph-name="afii10057" unicode="&#x408;" horiz-adv-x="306" 
d="M230 697q2 13 14 19t24 0q12 -8 16 -23t0 -29q-3 -13 -12 -70q-57 -364 -124 -504q-75 -159 -169 -87q-27 21 -16 51q3 13 14 19.5t23 -1.5q86 -65 148 208q20 77 45 220.5t37 196.5z" />
    <glyph glyph-name="afii10058" unicode="&#x409;" horiz-adv-x="928" 
d="M680 87q132 45 131 141q-1 44 -29 73t-70 39t-87 8.5t-84 -12.5q-40 -160 -53 -277q91 -6 192 28zM556 398q43 8 87 9t87.5 -8t77.5 -27.5t56 -52.5t23 -79q1 -49 -21.5 -90t-60 -67t-85.5 -46t-98.5 -27t-99 -10.5t-87.5 3.5q-11 2 -19 9.5t-7 18.5q13 121 55 301
q-11 8 -8.5 21t20.5 21q23 92 69 254q-104 14 -207 0q-2 -2 -2 -6q-16 -54 -44 -155t-36 -131q-37 -131 -64 -190q-72 -153 -220 -164q-30 -2 -31 21q-1 22 22 33l17 5q59 4 94 45t62 110q24 62 44.5 131.5t44 161t35.5 133.5q8 14 16 18q-7 11 -0.5 23.5t25.5 16.5
q162 26 301 1q31 -5 24 -35q-55 -187 -70 -248z" />
    <glyph glyph-name="afii10059" unicode="&#x40a;" horiz-adv-x="934" 
d="M758 128q42 38 56 93.5t-18 104.5q-34 44 -134 44q-53 0 -80 -2q-46 -206 -62 -311q8 1 40.5 5.5t45.5 6.5t40 8t42.5 12t35 16t34.5 23zM875 335q30 -63 12.5 -129.5t-69.5 -112.5q-30 -27 -73 -44.5t-76.5 -24.5t-88.5 -15.5t-80 -14.5q-19 -4 -33.5 7t-13.5 25
q-12 14 -10 28q23 149 59 308h-3q-150 -10 -319 -10q-45 -183 -82 -330q-6 -23 -21.5 -26.5t-27.5 11t-7 34.5q45 175 81 323q-9 9 -6 22t16 19q1 6 4 19t5 19q6 19 16 57l15 57q1 3 7 25.5t9 38.5t0 21q-11 24 8 47q17 22 33 5q5 -5 8 -13q16 -33 -2 -108q-11 -50 -30 -121
q-1 -6 -5 -20t-6 -23q161 3 320 12q5 15 6 28q2 10 18 105t37 140q8 17 29.5 18t36.5 -11.5t7 -29.5q-16 -34 -25 -73.5t-17 -93t-13 -78.5q36 4 78.5 2t80 -8t71 -28t51.5 -57z" />
    <glyph glyph-name="afii10060" unicode="&#x40b;" horiz-adv-x="636" 
d="M528 399q77 -45 64 -182q-6 -45 -32.5 -128t-28.5 -92q-8 -31 -32 -21q-22 10 -25 36q-1 7 1 15q3 10 19 54t25.5 80t16 78.5t-7.5 69.5t-48 31q-23 2 -47 0t-51.5 -10t-44.5 -13.5t-49.5 -18.5t-44.5 -17q-35 -147 -52 -268q-2 -18 -22 -21t-38 9t-16 30q15 106 49 256
q-5 13 -2 29.5t14 23.5q39 147 77 287q-122 -4 -182 -4q-20 0 -27.5 19.5t1 39t26.5 19.5q90 0 258 5t237 6q15 0 22.5 -12t7 -26.5t-8.5 -26.5t-21 -12q-40 0 -232 -5q-13 -51 -38 -143.5t-31 -115.5q43 18 69 27t64 17.5t70 4.5t60 -21z" />
    <glyph glyph-name="afii10061" unicode="&#x40c;" horiz-adv-x="542" 
d="M408 788q-12 5 -15.5 17t5.5 22q10 11 22.5 23t24.5 22t27 18.5t30 13.5q13 4 26.5 -1t17.5 -18q7 -26 -31 -38l-5 -3q-3 -3 -9 -8t-9 -7l-30 -30q-25 -24 -54 -11zM576 680q-40 -54 -67.5 -88.5t-66.5 -78.5t-79.5 -77.5t-84.5 -59.5q118 -191 178 -341q10 -23 -11 -48
q-20 -25 -36 -9q-3 4 -6 11q-59 150 -186 356q-18 -8 -51 -20q-4 -20 -15 -78t-17 -87.5t-16 -75.5t-21 -83q-4 -13 -17.5 -15.5t-23.5 5.5q-22 18 -13 54q28 95 64 298q0 7 2 9q46 242 90 359q12 29 35 11q23 -17 22 -45q0 -6 -2 -11q-41 -104 -74 -273q42 15 83 41.5
t70 51t67.5 69t57 68t57.5 75.5q8 13 21.5 20t27.5 3q13 -5 16.5 -18t-4.5 -23z" />
    <glyph glyph-name="afii10062" unicode="&#x40e;" horiz-adv-x="525" 
d="M201 764q-25 0 -25 28q-1 29 21 42q7 5 15 5h255q20 0 24.5 -18.5t-6.5 -37.5t-28 -19h-256zM505 687q1 30 24 31q22 1 32 -23q3 -8 3 -18q-1 -20 -8 -44.5t-13.5 -40t-21 -46t-18.5 -38.5q-64 -140 -140 -261q-80 -130 -131 -185q-112 -119 -183 -35q-18 22 -3 48
q14 24 35 11q6 -3 11 -9q3 -4 11.5 -6t19.5 2q29 14 64 49q36 42 53 64q-1 1 -2.5 3.5t-2.5 3.5q-11 29 -73 185t-90 241q-10 8 -10 20l-3 15q-1 19 15.5 35t34.5 12q14 -4 22 -18t14 -38t8 -29q20 -56 48 -128q15 -40 45.5 -116.5t44.5 -111.5q15 22 41 66q79 138 122 234
q33 75 39 91q2 6 5 14t3 10q1 2 2 8l2 8v-4z" />
    <glyph glyph-name="afii10145" unicode="&#x40f;" horiz-adv-x="663" 
d="M565 668q5 23 37 30q32 6 39 -12q2 -6 1 -13q-12 -68 -32 -200t-39.5 -236.5t-44.5 -196.5l-2 -4q-3 -5 -5 -7q4 -12 -3.5 -22t-26.5 -11q-69 -8 -184 -8q-7 -27 -15 -85.5t-16 -86.5q-7 -25 -37 -29q-29 -5 -34 16q-1 7 2 16q8 30 16 88t14 84q-69 3 -162 13
q-26 2 -31.5 22t12.5 31v5q5 24 54 259t72 357q5 25 38 31q31 5 38 -14q1 -6 0 -12q-31 -169 -125 -617l-3 -9q182 -17 325 -5q25 90 43.5 191t38 231.5t30.5 193.5z" />
    <glyph glyph-name="afii10017" unicode="&#x410;" horiz-adv-x="552" 
d="M187 309q98 14 165 13q-34 166 -42 222q-26 -52 -70 -129q-28 -53 -53 -106zM491 -5q1 -18 -17 -27.5t-38 -4.5t-22 23q-11 104 -45 259q-97 3 -191 -16q-2 -17 -16 -26q-10 -6 -22 -1q-64 -134 -109 -202q-18 -24 -43 -17q-23 7 -17 30q2 7 7 15q47 68 109.5 207
t89.5 188q64 115 87 163q31 68 34 78v22.5v26.5v23q0 14 12.5 22.5t29.5 10.5q37 16 38 -17q2 -24 -3 -48q2 -135 57 -388h4l3 -1q24 -4 26 -34t-17 -41q31 -130 43 -245z" />
    <glyph glyph-name="afii10018" unicode="&#x411;" horiz-adv-x="541" 
d="M182 369h-4q-11 -28 -23 -65q-39 -106 -62 -177q-1 -4 -7 -26.5t-9 -39t-2 -27.5q82 4 170 34q134 47 170 117q25 44 13 94t-58 72q-72 35 -188 18zM536 731q18 0 23.5 -19t-5 -38.5t-29.5 -19.5q-117 0 -282 -23q-5 -89 -43 -200q139 11 222 -37q57 -35 78 -96t-7 -124
q-46 -102 -205 -157q-127 -43 -237 -42q-25 -8 -38 7q-19 13 -10 33q-2 26 15 90q15 59 55 173q5 14 30 79.5t34.5 94.5t21.5 80t13 93q-21 8 -18 39.5t26 34.5h2q14 14 31.5 17t25.5 -10q190 25 297 25z" />
    <glyph glyph-name="afii10019" unicode="&#x412;" horiz-adv-x="589" 
d="M486 496q29 35 17 75t-53 59q-62 30 -180 16q-22 -120 -64 -254q71 11 114 24q126 36 166 80zM422 129q35 34 30.5 79.5t-42.5 76.5q-47 38 -108 47q-57 -14 -123 -20q-73 -210 -93 -274q73 1 151 17q134 28 185 74zM556 478q-34 -70 -136 -110q19 -10 33 -22
q54 -39 69 -101.5t-23 -119.5q-62 -84 -230 -124q-135 -30 -246 -25q-17 1 -21 10.5t2 21.5t18 21q0 10 1 16q25 81 96 284q-8 16 -3 34t21 22q53 160 73 271q-13 15 -11 36.5t21 23.5q56 9 91.5 11.5t86 -5t85.5 -32.5q49 -35 73 -95t0 -117z" />
    <glyph glyph-name="afii10020" unicode="&#x413;" horiz-adv-x="499" 
d="M535 705q17 -3 22.5 -24t-4 -38.5t-28.5 -12.5q-60 9 -95 7t-95.5 -9.5t-95.5 -7.5q-62 -282 -122 -600q-4 -17 -24.5 -23.5t-38 2t-13.5 27.5q65 346 134 653q5 18 29 23.5t38 -4.5q35 0 97.5 7t97.5 8.5t98 -8.5z" />
    <glyph glyph-name="afii10021" unicode="&#x414;" horiz-adv-x="615" 
d="M-49 44q0 22 22.5 38t44.5 -1q7 0 19 -1t22 -1.5t19 -0.5q11 7 20 19q20 27 37 62q39 79 72 180q33 113 50 183q14 62 15 83l2 6v-1q0 12 3 18h-6q-26 0 -23.5 27.5t25.5 39.5q7 4 15 4h254q14 0 20.5 -10.5t4.5 -24.5q-11 -70 -59.5 -263.5t-55.5 -302.5q70 -2 119 -14
q16 -4 20.5 -19.5t0.5 -32.5q-5 -19 -17 -52.5t-19.5 -61t-7.5 -54.5q-1 -30 -23 -32q-21 -3 -31 19q-4 9 -3 21q0 12 2 25t4 23t6 25t6.5 22.5l8 24l7.5 22.5q-28 17 -241 0.5t-231 -13.5h-3q-13 0 -37 2q-2 -8 -9.5 -41.5t-10.5 -55.5t-3 -44q0 -23 -29 -37q-30 -14 -39 5
q-2 5 -2 12q1 36 15.5 103t15.5 99zM258 311q-47 -141 -88 -211q-5 -6 -13 -20q36 2 113 9t118 9q8 104 54 291t55 239h-162q4 -24 -17 -100q-25 -112 -60 -217zM275 606l-1 1v1q1 -1 1 -2z" />
    <glyph glyph-name="afii10022" unicode="&#x415;" horiz-adv-x="522" 
d="M542 687q17 -6 19.5 -27t-8.5 -37.5t-28 -11.5q-41 15 -85.5 16t-109 -7t-88.5 -9q-33 -91 -59 -208q14 1 120.5 9.5t162.5 4.5q12 -1 19 -9t8 -19.5t-2 -22.5t-11 -18.5t-18 -6.5q-58 3 -163 -5t-131 -9q-48 -230 -59 -273q40 1 126 11.5t131 11.5q29 0 39 -25
q9 -22 -13 -30q-6 -3 -16 -3q-47 -1 -139.5 -12.5t-138.5 -12.5l-15 3q-16 -8 -32 9.5t-9 39.5q23 80 63.5 279t75.5 302q-6 19 5 40t32 20q34 -2 80.5 2.5t82.5 9.5t80 3t81 -15z" />
    <glyph glyph-name="afii10024" unicode="&#x416;" horiz-adv-x="720" 
d="M735 640q-48 -99 -159 -207q-65 -63 -112 -94q57 -18 85 -59q22 -31 41 -71.5t38.5 -90t32.5 -75.5q11 -24 -15 -46q-25 -20 -42 -6q-4 3 -6 8q-7 14 -42 97.5t-60 123.5q-37 58 -114 63q-28 -183 -51 -270q-8 -31 -32 -25q-22 6 -25 31q-1 8 1 17q26 92 50 254
q-4 4 -4 11q-29 -10 -62.5 -34t-51.5 -41t-50 -49q-2 -2 -14.5 -14t-15.5 -15.5t-14.5 -15t-16 -16.5t-14 -16t-14.5 -18.5t-11.5 -17t-11 -19t-7.5 -18.5q-7 -17 -28 -19.5t-37.5 8.5t-10.5 28q27 74 143 183q99 95 169 124q-59 62 -102 145.5t-63 170.5q-3 17 15 25.5
t38.5 2t24.5 -23.5q17 -78 58 -156.5t96 -133.5q33 188 68 289q5 12 17.5 16.5t22.5 -3.5q23 -17 10 -53q-33 -96 -64 -264q69 35 140 108q100 103 140 184q11 26 39 23q23 -2 25 -22q1 -8 -4 -19z" />
    <glyph glyph-name="afii10025" unicode="&#x417;" horiz-adv-x="465" 
d="M437 517q-31 -87 -148 -143q34 -17 53 -37q42 -43 47.5 -107t-26.5 -116q-36 -60 -107 -97t-145.5 -37t-140.5 39q-13 12 -7.5 29t25 27.5t34.5 0.5q58 -41 154 -22.5t131 82.5q40 74 -11 134t-131 59q-17 -7 -36 -10q-24 -7 -31 21q-8 30 10 47q6 5 12 7q58 16 95 28
t86 39.5t74 62.5q20 34 1.5 68t-53.5 48q-18 7 -36.5 10t-44 0t-36 -4.5t-44 -10t-36.5 -9.5q-24 -6 -31 23q-6 29 12 46q5 4 12 6q5 1 16 4q40 10 62 14.5t56.5 7.5t63 -4.5t53.5 -25.5q44 -31 64.5 -81.5t2.5 -98.5z" />
    <glyph glyph-name="afii10026" unicode="&#x418;" horiz-adv-x="671" 
d="M613 663q19 -2 30.5 -12.5t4.5 -26.5q-8 -20 -15 -40t-13.5 -44t-10.5 -40.5t-9 -45t-7 -41t-7.5 -45.5t-6.5 -42t-6.5 -39.5t-7.5 -42t-6.5 -39t-7.5 -41.5t-8.5 -38.5t-10 -41.5t-10.5 -37.5t-13 -39.5q-5 -17 -26 -19.5t-37.5 9t-9.5 29.5q13 37 24 84.5t16 73
t16 91.5l13 78q25 142 37 190q-38 -40 -79 -87t-70.5 -81.5t-77 -93t-68 -84t-75 -94.5t-68.5 -86q-19 -24 -44 -15q-23 8 -15 31l3 7q-10 10 -6 26q18 56 32.5 113.5t27.5 128.5t19.5 112t20 130t17.5 117q4 24 35 33q32 9 40 -10q2 -5 1 -12q-4 -24 -19 -124t-22 -142
t-21 -116t-29 -134q242 307 419 488q26 28 49 14z" />
    <glyph glyph-name="afii10027" unicode="&#x419;" horiz-adv-x="666" 
d="M582 663q7 25 33 32q26 8 30 -15q1 -6 0 -14q-28 -190 -124 -626q-3 -14 -12.5 -25.5t-23.5 -12.5q-13 -2 -21 8.5t-6 23.5q79 355 110 542q-31 -33 -200 -236q-18 -22 -77.5 -91.5t-98 -116.5t-74.5 -93q-8 -11 -26 -15q-8 -12 -21.5 -16t-23 4.5t-6.5 27.5
q12 97 64.5 308.5t61.5 327.5q3 27 27 35q24 9 31 -13q3 -7 2 -17q-9 -107 -57 -303t-55 -232q75 90 196 233q19 22 72 85.5t91 107t77 81.5q11 10 31 10zM595 831q-29 -24 -73.5 -44t-92.5 -29.5t-85.5 9.5t-46.5 71q-4 24 25 39q30 15 43 -3q3 -5 4 -11q7 -39 44.5 -43
t74 13t61.5 37q24 18 48 5q22 -12 8 -33q-4 -6 -10 -11z" />
    <glyph glyph-name="afii10028" unicode="&#x41a;" horiz-adv-x="535" 
d="M387 460q-53 -58 -97 -87q46 -23 101 -127q78 -143 105 -246q5 -18 -12 -29.5t-37.5 -8.5t-25.5 21q-18 70 -77 190q-35 70 -60 106q-16 24 -28 34q-1 1 -3.5 4t-3.5 3q-25 -2 -39 11q-8 -2 -14 -2q-4 -2 -12 -2q-24 -123 -82 -301q-8 -27 -35 -30q-22 -2 -26 18
q-2 9 2 20q121 366 114 623q0 36 26 47q12 6 24 0.5t13 -18.5q4 -132 -21 -289q76 20 155 113q80 92 96 160q6 24 33 32q26 8 31 -13q2 -7 -1 -18q-23 -96 -126 -211z" />
    <glyph glyph-name="afii10029" unicode="&#x41b;" horiz-adv-x="665" 
d="M645 713q13 -4 18 -16.5t-2 -23.5q-49 -89 -81.5 -200.5t-62 -245.5t-53.5 -211q-7 -23 -41 -22q-31 1 -36 21q-1 7 1 14q24 77 53 204t60 235.5t74 195.5q-25 0 -73.5 -12.5t-60.5 -14.5q-44 -9 -86 1q2 -56 -28 -172q-41 -147 -94 -249q-23 -43 -39 -70.5t-44.5 -61
t-59.5 -52.5q-46 -31 -84 -27q-32 2 -42.5 33.5t13.5 53.5q10 8 20.5 4t16.5 -14q54 5 100 66q52 63 100 175q45 107 66 197q21 96 17 142v11q-14 20 15 34q29 13 50 -2l3 -3q11 -11 31.5 -13t34.5 0.5t41.5 10.5t30.5 9q88 19 142 3z" />
    <glyph glyph-name="afii10030" unicode="&#x41c;" horiz-adv-x="785" 
d="M693 703q17 18 47 10t23 -36q-18 -70 -50 -209t-60 -248.5t-60 -206.5q-6 -17 -27 -20t-37.5 8.5t-10.5 30.5q17 48 31.5 97.5t30.5 113t24 95t27 114.5t23 101q-11 -14 -108 -142.5t-155 -189.5q0 -25 -32.5 -35.5t-39.5 17.5l-1 3q-1 2 -1 3q-17 12 -7 27q-9 30 -20 60
t-26 65t-24.5 56t-29.5 63.5t-27 57.5q-8 -90 -35 -255.5t-35 -229.5q-4 -24 -34 -36q-30 -11 -37 7q-2 6 -1 13q9 69 30 194.5t34 228.5t14 196q0 22 26 34.5t39 -2.5q18 4 23 -12q20 -53 79 -178.5t82 -196.5q42 49 149 191t176 211z" />
    <glyph glyph-name="afii10031" unicode="&#x41d;" horiz-adv-x="648" 
d="M555 651q0 18 18.5 28.5t36.5 6t18 -25.5q-2 -127 -57 -350t-65 -289q-3 -22 -33 -31q-31 -10 -39 9q-2 6 -1 14q16 100 68 294q-38 0 -113.5 -4.5t-113.5 -5t-112 6.5q-44 -188 -53 -273q-2 -23 -29 -31q-28 -10 -37 11q-3 8 -2 18q5 47 14 95t27 124t22 95
q3 15 16 70.5t18 82t10.5 70t5.5 78.5q-1 24 27 38q28 15 39 -5q3 -5 3 -13q2 -95 -45 -287q73 -7 111.5 -7t112 4t110.5 4h6q34 155 37 273z" />
    <glyph glyph-name="afii10032" unicode="&#x41e;" horiz-adv-x="622" 
d="M327 77q105 61 166.5 193t41.5 254q-23 135 -118 137q-99 1 -180 -96q-22 -26 -42 -7q-17 16 -6 40q3 5 7 10q14 18 24 27q-17 -4 -34 -23q-14 -16 -32 -51q-33 -73 -45 -170q-24 -179 27 -277q29 -58 83.5 -65t107.5 28zM585 605q41 -141 -16.5 -303.5t-174.5 -254.5
q-29 -23 -60.5 -40.5t-67.5 -28t-72 -5t-65 30.5q-82 67 -88 243q-6 164 46 305q61 151 154 157q16 1 20 -12t-3 -28q78 62 162 66q61 1 104.5 -34.5t60.5 -95.5z" />
    <glyph glyph-name="afii10033" unicode="&#x41f;" horiz-adv-x="676" 
d="M607 699q28 6 44 -19q15 -23 -7 -35l-13 -5q-2 0 -6 -0.5t-7 -0.5l2 -2q5 -73 -7.5 -159t-31.5 -154t-40.5 -157t-29.5 -155q-2 -18 -22 -25t-38 1.5t-15 27.5q9 76 40.5 193t52.5 222t14 195v3q-48 -4 -197 -9q-4 0 -32.5 -2t-49.5 -2t-53 3q-83 -247 -111 -561
q-2 -39 -29 -43q-12 -2 -21.5 9t-8.5 24q31 328 116 591q-9 10 -7 25q1 18 23 20q6 11 16 15t21 -2q9 -5 13 -18q14 -2 41 -2q14 1 57 2t67 3q147 4 219 17z" />
    <glyph glyph-name="afii10034" unicode="&#x420;" horiz-adv-x="581" 
d="M490 464q24 47 4.5 103t-73.5 70q-66 16 -177 -3q2 -40 -5 -91t-12.5 -76t-25 -95t-21.5 -78q57 -1 135 32q136 55 175 138zM481 678q63 -31 88.5 -100t-5.5 -132q-32 -63 -96 -109.5t-141 -72.5q-96 -29 -163 -24q-43 -143 -54 -231q-4 -23 -31 -32q-29 -10 -37 11
q-2 7 -1 16q10 75 59 250q-18 7 -37 19q-11 9 -10 22t11 19q24 17 53 -1q4 15 12.5 44.5t13.5 47t12 45t10.5 48t6.5 45t2.5 48t-3.5 46.5q-12 12 -7.5 27.5t26.5 19.5q62 12 100 16.5t94.5 1t96.5 -23.5z" />
    <glyph glyph-name="afii10035" unicode="&#x421;" horiz-adv-x="531" 
d="M536 678q27 -16 6 -36q-21 -19 -47 -13l-9 4q-46 27 -96 24.5t-94 -23.5t-82 -58q-101 -98 -96 -245q6 -162 87 -239q87 -83 214 0q24 14 48 -2q23 -17 7 -36q-4 -4 -10 -8q-50 -32 -102.5 -46t-108 -4t-99.5 48q-59 52 -87 133t-26 166q5 188 144 293q53 41 110 61.5
t120.5 17t120.5 -36.5z" />
    <glyph glyph-name="afii10036" unicode="&#x422;" horiz-adv-x="533" 
d="M569 695q11 -1 17 -9.5t6.5 -20t-2.5 -22.5t-11.5 -18.5t-19.5 -6.5q-87 9 -203 4q0 -9 -3 -15q3 6 1 -1q-3 -10 -3 -11q-5 -11 -6 -23q-11 -39 -16 -67q-26 -120 -38 -181q-4 -19 -27 -130.5t-38 -169.5q-8 -31 -31 -26q-20 5 -25 29q-1 9 1 19q15 61 39 177.5t29 140.5
q4 18 15 78.5t20 101t21 77.5q-152 -6 -230 -3q-18 1 -23 21t4 38.5t27 17.5q70 -3 248 3t248 -3z" />
    <glyph glyph-name="afii10037" unicode="&#x423;" horiz-adv-x="522" 
d="M492 672q13 22 44 18q25 -4 26 -22q0 -8 -6 -17q-14 -23 -84 -172q-72 -152 -123 -237q-15 -25 -26.5 -42t-31 -45t-36.5 -47t-39.5 -41t-45 -35t-47.5 -22t-51.5 -7.5t-53.5 12.5q-28 12 -13 37q14 23 39 22l13 -3q54 -23 124 50q27 28 55 68l-3 3l-2 3q-13 21 -24 43
t-22 55t-15 45.5t-15.5 56.5t-12.5 47q-7 25 -17.5 70t-20.5 82t-22 68q-7 19 9 31t37 9t27 -20q17 -43 37.5 -126t25.5 -102q37 -141 63 -196q18 29 28 50q53 95 110 218q53 114 73 146z" />
    <glyph glyph-name="afii10038" unicode="&#x424;" horiz-adv-x="736" 
d="M655 413q9 98 -45 151q-56 56 -157 26q-1 -3 -3 -11t-3 -13q-21 -93 -43 -210q-6 -35 -17.5 -100.5t-16.5 -93.5q114 -5 195.5 66.5t89.5 184.5zM151 200q49 -57 142 -43q12 81 37 223q28 146 45 217v4h-11q-97 12 -165 -62t-82 -176q-14 -104 34 -163zM654 621
q71 -79 60 -212q-11 -138 -104 -232q-100 -97 -253 -91q-1 -7 -7 -41t-10 -52q-3 -18 -23 -19t-36.5 12t-13.5 31q2 12 7 38.5t7 40.5q-126 -17 -187 56q-68 78 -50 209q20 135 118 224.5t229 75.5q12 44 26 69q12 24 47 14q27 -8 29 -26q1 -6 -2 -12q-4 -7 -16 -33
q114 19 179 -52z" />
    <glyph glyph-name="afii10039" unicode="&#x425;" horiz-adv-x="532" 
d="M523 700q22 24 40 6q17 -18 4 -43q-3 -5 -7 -9q-22 -23 -45.5 -50.5t-39.5 -46.5t-43.5 -54.5t-37 -48t-42 -55.5t-38.5 -50q26 -58 73 -163.5t67 -149.5q11 -23 -17 -32q-30 -10 -50 7q-4 4 -7 9q-57 130 -117 261q-136 -176 -258 -275q-10 -8 -23.5 -6t-18.5 14
q-10 27 19 52q114 91 254 273v1q-6 12 -37.5 80.5t-49.5 103.5l-9 18t-11 21.5t-10 17.5q-6 11 -12 19l-3 3q-10 8 -10.5 20t10.5 20q15 9 28.5 8.5t22.5 -5t19 -18t14 -21t12 -23.5q26 -46 87 -178q154 207 236 294z" />
    <glyph glyph-name="afii10040" unicode="&#x426;" horiz-adv-x="643" 
d="M622 687q-14 -117 -65.5 -325t-64.5 -281q-2 -10 -5 -13q57 0 85 -2q14 0 25.5 -9t11.5 -22q-1 -35 -22 -95t-25 -81q-3 -18 -24 -23.5t-38.5 3.5t-14.5 27q5 25 21.5 72t21.5 71q-49 1 -142 -2.5t-136 -3.5q-10 0 -64 2.5t-66 -0.5q-4 0 -17 -1t-23 -1t-21 2.5t-16 11.5
t-2 23q33 156 113 636q3 24 33 34.5t38 -17.5q6 -20 6 -54q0 -19 -17 -27q-52 -317 -99 -547q19 0 63.5 -1.5t71.5 -1.5q76 -1 184 4q-3 10 -2 22q12 64 62.5 268.5t64.5 319.5q6 35 35 41q12 2 21 -8t7 -22z" />
    <glyph glyph-name="afii10041" unicode="&#x427;" horiz-adv-x="569" 
d="M496 700q9 31 31 17t22 -41q0 -6 -2 -12q-43 -152 -58 -218q16 -6 22 -18.5t-5 -27.5q-19 -24 -36 -37q-37 -181 -38 -343q0 -23 -14 -33.5t-28.5 -2t-14.5 31.5q0 137 27 294q-41 -26 -82 -39.5t-84.5 -10.5t-77.5 27q-38 26 -57 63.5t-19.5 83t4.5 84.5t15 91.5
t12 81.5q1 18 21 23.5t38.5 -4.5t16.5 -29q-2 -31 -13 -90t-14 -87q-4 -37 -4.5 -60.5t8.5 -56.5t31 -51q43 -34 130 8q62 34 93 67q34 153 76 289z" />
    <glyph glyph-name="afii10042" unicode="&#x428;" horiz-adv-x="866" 
d="M792 651q11 30 33 20q22 -11 20 -38q0 -7 -2 -13q-108 -311 -133 -544h13q25 0 22 -28q-2 -29 -25 -42q-7 -4 -14 -4q-68 -1 -294.5 -11.5t-349.5 -4.5q-21 1 -22 23.5t15 37.5q3 29 7 57t12 64l12 54t16.5 62.5t14.5 53.5t18 62.5t17 55.5q8 27 20 76t17 69q1 3 5 21
t6.5 24.5t7 20t10.5 23t14 16.5q21 19 34 -9q14 -29 -1 -53q-2 -3 -5 -6q3 2 4 3q2 1 0 -3l-1 -2l-5 -9q0 -1 -2.5 -8.5t-3.5 -11.5q-12 -44 -16 -63q-19 -78 -37 -137q-73 -244 -86 -348q103 -3 270 4v7q18 76 51 288t68 325q9 30 32 19q22 -12 23 -38q1 -7 -1 -14
q-34 -111 -67.5 -324t-43.5 -260q169 7 207 8q26 259 140 577z" />
    <glyph glyph-name="afii10043" unicode="&#x429;" horiz-adv-x="871" 
d="M773 670q5 23 37 28t39 -15q2 -6 1 -12q-13 -81 -73 -288t-67 -325q6 0 19 1t20 1q13 0 19.5 -9.5t4.5 -23.5q-11 -89 -64 -154q-20 -25 -45 -15q-23 9 -14 33l7 12q31 38 42 90q-113 -2 -326 4.5t-307 6.5q-16 0 -22 8.5t-3 20t12 21.5q20 75 59.5 275t72.5 305
q-11 19 7 38q3 6 10 10q14 24 39 25q23 2 22 -22q0 -4 -1 -10q-3 -12 -7 -18q-36 -110 -77 -316.5t-57 -270.5q71 -2 215 -4v4q4 70 32 199.5t32 155.5q2 10 7.5 40.5t8 44.5t8.5 41t11.5 44t14.5 38t20 38q14 22 45 17q26 -5 25 -25q0 -7 -5 -15q-19 -30 -30 -66.5t-20 -93
t-12 -71.5q-7 -35 -22.5 -105.5t-25.5 -126.5t-13 -108q0 -6 -4 -14q187 -5 227 -5q7 117 66 323.5t72 288.5z" />
    <glyph glyph-name="afii10044" unicode="&#x42a;" horiz-adv-x="582" 
d="M460 180q20 41 6.5 100t-55.5 80q-13 6 -29 9t-27 4t-32 -1.5t-28 -3.5t-31.5 -6t-27.5 -6q-2 -2 -6 -2q-45 -223 -59 -298q0 -1 -1 -2v-2q57 -3 113 7t107 41.5t70 79.5zM471 411q52 -37 66 -108.5t-11 -129.5q-29 -73 -101.5 -119.5t-153.5 -60.5t-160 -4q-19 3 -19 17
t14 30q-16 10 -12 24q15 83 120 577q-49 -3 -148 1q-20 1 -24.5 21t6 38t28.5 17q92 -6 184 0q17 3 23 -14q21 -8 17 -26q-10 -46 -29 -131.5l-27 -121.5q49 11 79.5 15.5t75 0t72.5 -25.5z" />
    <glyph glyph-name="afii10045" unicode="&#x42b;" horiz-adv-x="794" 
d="M421 147q24 48 14.5 105.5t-56.5 84.5q-81 47 -170 12q-49 -208 -73 -293q38 -3 82.5 -0.5t83.5 8.5t71.5 27.5t47.5 55.5zM431 387q59 -37 76.5 -106t-10.5 -132q-18 -43 -51 -73t-67 -45.5t-84.5 -23.5t-86 -9t-89.5 -1q-12 -17 -30.5 -17t-24.5 17q-12 2 -19 12t-3 21
q5 20 32 26q44 158 142 610q8 37 37 40q12 2 20.5 -9t5.5 -24q-10 -43 -28.5 -129.5t-27.5 -129.5q121 31 208 -27zM714 656q7 21 24 27t28.5 -6t4.5 -34q-33 -114 -72.5 -328t-55.5 -285q-6 -21 -22.5 -27t-28.5 6t-6 34q18 78 57 289t71 324z" />
    <glyph glyph-name="afii10046" unicode="&#x42c;" horiz-adv-x="520" 
d="M394 165q14 36 6 72t-31 61t-55 43t-68.5 19t-70.5 -12q-24 -150 -62 -276q50 -8 105.5 -7t107 27.5t68.5 72.5zM387 379q54 -37 79.5 -97t3.5 -120q-21 -55 -69.5 -91.5t-108 -51t-121 -14t-114.5 15.5q-12 3 -15.5 14t2.5 21q-4 9 0 22q20 64 37.5 144.5t25.5 129
t23 154t20 136.5q3 22 33 31q31 10 38 -10q3 -6 1 -14q-4 -28 -16 -110t-19 -127q49 13 103.5 4.5t96.5 -37.5z" />
    <glyph glyph-name="afii10047" unicode="&#x42d;" horiz-adv-x="563" 
d="M477 640q91 -80 56 -263q-33 -183 -158 -288q-78 -63 -178 -82t-195 5q-29 7 -19 32q10 23 35 29q8 1 15 0q192 -43 307 66q77 70 109 181q0 1 -119 0h-120q-23 0 -30.5 14t3 28.5t32.5 14.5q33 0 117 1.5t130 0.5q25 146 -33 204q-33 34 -87 43t-101.5 0.5t-97.5 -26.5
q-29 -11 -44 9q-14 19 6 35q5 4 13 7q62 23 120 34.5t126.5 3t112.5 -48.5z" />
    <glyph glyph-name="afii10048" unicode="&#x42e;" horiz-adv-x="871" 
d="M726 216q50 104 48 215q-4 143 -79 190q-57 36 -119.5 11.5t-113 -75.5t-75.5 -106q-1 -1 -1.5 -2.5t-1 -4t-0.5 -3.5q-30 -96 -16 -195q15 -118 64 -164q39 -36 85.5 -36t86.5 27.5t72 65t50 77.5zM752 667q56 -40 79.5 -113t19 -143.5t-25.5 -139.5q-34 -109 -109 -189
t-178 -92q-98 -11 -161.5 50.5t-79.5 162.5q-9 51 -9 111q-96 -2 -124 -1q-22 -125 -63 -291q-7 -31 -32 -23q-22 6 -27 29q-2 9 0 18q33 128 63 288q-7 25 9 46q5 29 51 310q4 31 29 24q22 -7 29 -31q2 -8 1 -16q-30 -186 -46 -278q14 -1 117 2q16 101 70 165q1 2 17 11
q50 55 113 90q42 22 84 33.5t89.5 7t83.5 -30.5z" />
    <glyph glyph-name="afii10049" unicode="&#x42f;" horiz-adv-x="538" 
d="M430 530q2 7 8 22.5t9 24.5t7.5 26t4 25.5t-1.5 23.5q-62 -2 -118.5 -17.5t-107 -54.5t-66.5 -95q-9 -31 1.5 -55.5t33.5 -39t54 -24t58.5 -13t52.5 -3.5q2 0 17 -3q1 4 2.5 11t3.5 13.5t4 12.5q3 12 16.5 65.5t21.5 80.5zM513 667q12 -48 -13 -127q-18 -55 -43 -155
q-65 -230 -71 -357q-1 -30 -24 -32q-22 -2 -32 21q-3 9 -3 19q4 102 40 257q-1 0 -3.5 -1t-4.5 -1q-7 1 -24 2t-25 2l-7 -7q-36 -23 -67 -56t-58.5 -79.5t-43 -76.5t-41.5 -85q-12 -25 -47 -11t-23 43q35 72 54.5 109.5t60.5 93.5t84 89q-162 55 -137 168q13 58 52.5 103
t93 71t111 39t115.5 14q35 0 45 -22q10 -10 11 -21z" />
    <glyph glyph-name="afii10065" unicode="&#x430;" horiz-adv-x="516" 
d="M135 56q50 8 107 97q29 50 51.5 152t33.5 133q-1 1 -3 2t-3 2q-5 2 -14.5 4t-10.5 2q-31 8 -62 0q-67 -20 -108 -77q-40 -56 -57 -124t-1 -130q18 -69 67 -61zM441 134q13 31 35 16q21 -14 20 -42l-3 -14q-41 -102 -102 -108q-28 -3 -48.5 17.5t-30.5 51.5q-9 23 -13 67
q-39 -80 -98 -119q-35 -24 -69.5 -27t-69.5 24q-57 53 -61 164q-1 97 40.5 193.5t118.5 141.5q87 49 169 22q24 -9 42 -23q15 0 25 -16t5 -34q-45 -135 -42 -307q0 -78 28 -75q27 2 52 63z" />
    <glyph glyph-name="afii10066" unicode="&#x431;" horiz-adv-x="517" 
d="M391 358q-12 46 -37 64.5t-53.5 13t-61 -25t-58 -43t-46.5 -48.5q-10 -34 -14 -61q-6 -38 -7 -66t10.5 -62t38.5 -51q28 -18 56 -18.5t52 14t43.5 35t35.5 47.5q67 107 41 201zM328 625q-36 -5 -66 -32.5t-45.5 -56t-31.5 -69.5q-3 -7 -13 -34q55 48 107 64
q50 14 86.5 3.5t60.5 -40.5t35.5 -69.5t10 -83.5t-15.5 -82q-16 -42 -43.5 -85t-66.5 -79.5t-80.5 -56.5t-89.5 -12t-89 49q-67 67 -39 205q6 35 29.5 122t37.5 104q28 70 64.5 120.5t91.5 77.5q27 15 109 24t115 45q21 21 46 10q22 -11 13 -34q-3 -7 -10 -14
q-14 -15 -32 -27t-31.5 -18.5t-38.5 -12.5t-35 -7.5t-41 -5.5t-38 -5z" />
    <glyph glyph-name="afii10067" unicode="&#x432;" horiz-adv-x="442" 
d="M254 79q32 15 65.5 47.5t15.5 55.5q-21 29 -68.5 36t-79.5 -3q-7 -3 -13 0q-41 -13 -79 -14q-13 -94 31 -124q51 -36 128 2zM313 430q-30 16 -57.5 11.5t-48.5 -17.5t-39 -38t-30.5 -50.5t-22.5 -55.5q74 7 158 53q107 66 40 97zM340 275q52 -25 59.5 -77.5t-25.5 -98.5
q-29 -44 -76.5 -75t-99.5 -39q-50 -7 -92.5 13.5t-60.5 66.5q-18 44 -14 110t30 130q14 35 24 57.5t27.5 53.5t39.5 52.5t49 34.5q42 23 99 15t83 -49q24 -33 18 -69t-26.5 -65.5t-51.5 -51.5q8 -2 17 -8z" />
    <glyph glyph-name="afii10068" unicode="&#x433;" horiz-adv-x="413" 
d="M363 459q18 -28 19.5 -66t-15.5 -68q-6 -11 -15 -19.5t-22.5 -16t-22 -11.5t-25.5 -11t-23 -9q-7 -3 -36 -13.5t-49.5 -20t-45 -23.5t-37.5 -31.5t-12 -36.5q2 -37 29 -58.5t62 -23.5t71 7.5t57 28.5q17 14 33 3t18.5 -31.5t-9.5 -34.5q-54 -46 -123 -53t-127 33
q-51 39 -65.5 103.5t23.5 117.5q19 23 48.5 43t52 30t63 26t56.5 23q3 2 13 6t16 7t13 9t10 12q6 17 -3.5 34t-26.5 26q-11 5 -23 8t-21 4.5t-23.5 -1t-20.5 -3.5t-22.5 -6.5t-20.5 -7t-23 -9.5t-21 -9q-18 -7 -32 9t-13.5 37t17.5 28q8 3 25 10.5t26.5 11t27 10t27 8
t27.5 4t28 -1.5q78 -10 115 -74z" />
    <glyph glyph-name="afii10069" unicode="&#x434;" horiz-adv-x="450" 
d="M246 87q46 55 66 159q18 115 28 154q-7 -2 -8 -3q-14 -1 -23.5 7.5t-7.5 22.5q4 18 -15.5 25t-42.5 5t-36 -7q-53 -21 -87 -81q-28 -52 -37.5 -109.5t4.5 -115.5q23 -77 64 -93q50 -22 95 36zM79 -339q49 -9 93.5 23t62.5 81q26 64 43 158q-22 -13 -90 -46t-102 -56
q-55 -35 -70 -56q-5 -8 -8 -17q-10 -27 16 -53.5t55 -33.5zM373 455q18 5 29 -5.5t5 -33.5q-1 -3 -12 -53q5 -5 3 -21q-17 -93 -27 -127q-3 -28 -9.5 -110t-13.5 -137.5t-19 -107.5q-35 -146 -108 -215q-26 -25 -58 -41.5t-68.5 -20.5t-69.5 14q-39 21 -64.5 56.5
t-19.5 75.5q8 65 78 122q45 38 140.5 85t124.5 65l1 1q2 1 3 2q4 28 5 42q-29 -32 -59 -48q-90 -49 -153 3q-57 53 -69 142q-11 87 17 176.5t89 143.5q79 72 163 64q37 -3 64.5 -21.5t27.5 -50.5z" />
    <glyph glyph-name="afii10070" unicode="&#x435;" horiz-adv-x="483" 
d="M373 352q16 30 5 61t-41 46q-37 18 -74 8.5t-65 -39.5q-51 -52 -76 -135q72 0 118 7q110 14 133 52zM395 503q39 -28 57.5 -68t3.5 -83q-29 -77 -167 -105q-76 -14 -183 -14q-11 -66 0 -107q19 -68 86.5 -82.5t116.5 35.5q18 18 49 7q28 -10 20 -31q-2 -6 -8 -12
q-34 -34 -84 -50t-99.5 -12.5t-92 32t-60.5 78.5q-32 93 14 223q49 131 124 180q53 33 111 37.5t112 -28.5z" />
    <glyph glyph-name="afii10072" unicode="&#x436;" horiz-adv-x="726" 
d="M678 515q27 0 27 -27.5t-21 -41.5q-8 -6 -17 -6q-101 0 -126 -166q-6 -30 -3.5 -65.5t10.5 -66.5t31.5 -53.5t59.5 -27.5q26 -4 18 -35q-8 -29 -31 -38q-8 -3 -15 -2q-77 12 -110 77.5t-30 151.5q-16 0 -47.5 1t-48.5 1l-21 -216q-2 -18 -22.5 -24.5t-39 2t-16.5 29.5
q12 140 21 210q-53 4 -78 -12q-6 -3 -11 -3q-57 -210 -198 -214q-29 -1 -30 22q0 23 24 36q9 6 19 6q31 1 55.5 25.5t38 63.5t21 70t11.5 65q15 100 -4 141q-5 9 -16.5 13.5t-20 5t-25 -0.5t-20.5 -1q-29 0 -30 23q0 24 24 36q9 5 19 5q4 0 23 0.5t27.5 0t25 -2.5t25.5 -6
t19 -12.5t16 -20.5q29 -53 14 -165q22 5 84 5q18 104 58 201q7 16 28.5 19.5t37 -8t7.5 -31.5q-36 -87 -53 -183q30 -1 87 -1q1 0 2.5 -1t3.5 -1q46 220 197 222z" />
    <glyph glyph-name="afii10073" unicode="&#x437;" horiz-adv-x="420" 
d="M298 283q28 -9 48 -34q27 -40 23 -89.5t-34 -86.5q-36 -48 -101.5 -69.5t-132.5 -17t-122 28.5q-30 13 -14 39q15 24 40 23q6 0 12 -3q36 -17 81 -23.5t91.5 2.5t73.5 37q23 23 28.5 60.5t-17.5 62.5q-22 21 -76 23q-13 -4 -27 -11q-21 -9 -36 15q-23 8 -15 31q1 6 9 14
q4 10 16 15q12 6 47 21t54 25q69 34 70 65q1 13 -4 23t-15 15t-21 8t-28 2.5t-29.5 -1.5t-31 -4.5t-27.5 -5.5t-25 -6t-17 -4q-18 -5 -32.5 12t-14 37.5t18.5 25.5q2 1 24 6t27 6t23.5 5t27.5 4.5t23.5 2t26.5 0t24 -3.5q45 -9 78 -41t35 -76q4 -80 -81 -133z" />
    <glyph glyph-name="afii10074" unicode="&#x438;" horiz-adv-x="477" 
d="M380 160q5 -12 -3 -23q-9 -47 -9 -97q0 -24 -30 -36q-30 -13 -41 7q-3 5 -3 14q0 25 2 36q-125 -96 -214 -46q-73 42 -59 189q4 53 25 147t26 129q3 18 23.5 20t38.5 -11t15 -32q-6 -36 -22.5 -106.5t-21.5 -105.5q-12 -73 -6 -114q3 -55 22 -69q20 -14 93 33
q56 39 91 78q1 4 6 6q5 23 15.5 70.5t16.5 76t11.5 69.5t6.5 76q0 24 29 37t41 -6q3 -6 3 -16q0 -49 -9 -102.5t-25 -122.5t-22 -101z" />
    <glyph glyph-name="afii10075" unicode="&#x439;" horiz-adv-x="487" 
d="M376 469q12 24 45 24q29 1 29 -18q0 -7 -4 -15q-38 -76 -45 -189q21 -15 4 -44q-2 -2 -4 -7t-3 -7q-7 -157 -13 -192q-4 -23 -34 -33q-31 -9 -39 10q-3 7 -2 16q7 50 10 112q-27 -25 -95 -69q-3 -2 -21.5 -13.5t-28.5 -17.5t-29 -15t-32 -11.5t-28.5 -1t-26.5 10.5
q-21 15 -30 42t-8 52.5t1 52.5q2 58 22.5 163t25.5 145q4 27 31 38t34 -10q2 -7 1 -17q-5 -39 -22 -123.5t-22 -128.5q-6 -38 -6 -96q0 -37 9 -46q4 -4 10 -5.5t13.5 0t15 3.5t17 7t16 8.5t16.5 10t14 9.5t13 9l8 6q78 54 106 87q5 81 15.5 140.5t36.5 112.5zM415 706
q17 16 33.5 9.5t17.5 -24t-15 -33.5q-30 -26 -74.5 -47t-90.5 -29.5t-80.5 14t-38.5 77.5q-2 25 27.5 38t41.5 -6q3 -6 4 -14q3 -32 25.5 -40.5t52 2t55.5 25t42 28.5z" />
    <glyph glyph-name="afii10076" unicode="&#x43a;" horiz-adv-x="424" 
d="M396 488q-2 -3 -19.5 -30t-22 -34t-20 -30t-24 -34t-22.5 -29t-27 -32t-26 -27q10 -6 20 -17.5t16 -20.5t15 -24.5t11 -18.5q59 -93 74 -137q6 -18 -11.5 -29.5t-39 -8.5t-27.5 21q-16 46 -58 107q-29 46 -41 61q-6 10 -12 16l-1 1q-1 1 -1 2q-2 0 -3.5 0.5t-2.5 0.5
q-20 -11 -41 -20q-15 -6 -24 2q-18 -90 -29 -198q-3 -23 -18.5 -30.5t-29 4t-11.5 35.5q27 263 103 488q11 31 34 23q21 -8 23 -34q1 -9 -2 -18q-35 -101 -55 -195q22 10 42 23t40 33t33 33.5t33 42.5t27 39t29 44.5t25 39.5q18 28 38 9q18 -19 10 -47q-1 -6 -5 -11z" />
    <glyph glyph-name="afii10077" unicode="&#x43b;" horiz-adv-x="521" 
d="M476 509q14 1 20.5 -12.5t3.5 -26.5q-89 -313 -114 -460q-5 -28 -31 -34q-24 -6 -31 17q-3 8 -1 20q27 151 103 418q-12 0 -43.5 1t-53.5 0.5t-42 -4.5q-6 -21 -16.5 -64t-17 -68t-19.5 -65t-25 -65.5t-31.5 -56.5t-41 -51t-52 -37.5t-65.5 -26.5q-34 -9 -53 16
q-8 10 -5 23.5t16 16.5q37 9 67.5 29t52 49.5t37.5 61t28.5 72.5t20.5 73.5t18.5 75t17.5 67.5q3 13 16.5 17.5t26.5 -0.5q6 5 13 6q28 7 66 8t68 -1t67 1z" />
    <glyph glyph-name="afii10078" unicode="&#x43c;" horiz-adv-x="619" 
d="M527 510q18 31 38 11q19 -18 13 -46q-6 -31 -21.5 -110t-23.5 -121t-18 -107t-15 -119q-1 -14 -8 -23.5t-16 -11t-17.5 1.5t-13.5 13.5t-4 24.5q13 145 50 321q-31 -39 -92 -108t-80 -91q-14 -20 -35 -3q-9 6 -17.5 16t-14.5 17.5t-13.5 22.5t-10 21l-10 24t-8.5 20
q-5 10 -16 36.5t-18 41.5q-3 5 -3 8q-17 -58 -20 -75q-22 -84 -74 -237q-7 -22 -24 -26.5t-28.5 9.5t-3.5 36q50 153 64 203q1 5 7 24.5t9 30t7.5 30t6 32.5t1.5 29t-3 28q-18 20 -1 52q14 28 34 20q4 -1 8 -5q20 -17 25 -48q6 -2 12 -7t11.5 -13t9.5 -15t8.5 -17.5t7 -16.5
t6 -16t4.5 -12q5 -11 16 -39.5t22 -51t23 -38.5q19 22 58 66.5t62.5 72t54 68t51.5 77.5z" />
    <glyph glyph-name="afii10079" unicode="&#x43d;" horiz-adv-x="527" 
d="M418 486q14 25 44 22q24 -2 24 -21q0 -9 -6 -19q-33 -57 -47 -132t-21 -165t-18 -140q-6 -25 -35 -32q-28 -7 -35 14q-3 8 -1 19q8 33 25 186q-20 -1 -93.5 -5t-112.5 -3q-21 -91 -55 -185q-9 -25 -37 -27q-25 -1 -29 19q-2 9 2 20q33 92 56 204q-7 31 10 46
q14 90 18 135q-5 8 -1 21q0 3 1.5 10.5t2.5 11.5q3 20 32 32q31 12 38 -8q2 -5 2 -12q-5 -73 -25 -189q33 0 100 4t100 4q15 113 61 190z" />
    <glyph glyph-name="afii10080" unicode="&#x43e;" horiz-adv-x="525" 
d="M101 434q12 17 35.5 16.5t32.5 -14.5q93 83 163 82q58 -2 99.5 -42t49.5 -98q15 -111 -39 -221t-155 -157q-80 -35 -143.5 -2t-87.5 116q-23 76 -11.5 165t56.5 155zM186 364q-19 -19 -46 -8q-34 -91 -14 -195q12 -53 40.5 -93.5t72.5 -22.5q75 32 120 109t47 161
q0 19 -3.5 41.5t-12 46.5t-25.5 39t-39 14q-19 -1 -40.5 -12.5t-33.5 -20.5t-37 -32t-29 -27z" />
    <glyph glyph-name="afii10081" unicode="&#x43f;" horiz-adv-x="526" 
d="M483 466q5 -28 0.5 -58.5t-18.5 -77t-16 -56.5l-6.5 -26t-7 -27.5t-6 -25.5t-5.5 -28.5t-3.5 -26t-2.5 -28.5t0.5 -26t2.5 -28.5t6 -26.5q7 -23 -20.5 -42t-43.5 -4q-4 4 -6 11q-11 39 -12 81.5t7 84.5t17.5 79.5t21.5 83.5t17 80q1 3 2.5 8t2 7.5t0.5 6t-1 5.5t-4 3.5
t-7 2.5q-21 3 -77 -16q-75 -27 -146 -75q-1 0 -3 -2q-1 -1 -2 -1q-4 -29 -14 -73q-22 -110 -63 -242q-8 -23 -39 -24t-36 21q-2 7 1 16q35 107 57 217q18 95 21 126q3 52 -7 64q-18 21 10 38t51 3q5 -3 9 -7q16 -18 16 -65q64 40 145 70q56 21 97 17q57 -5 62 -39z" />
    <glyph glyph-name="afii10082" unicode="&#x440;" horiz-adv-x="512" 
d="M409 325q8 65 -17 83q-27 21 -77 17q-96 -9 -153 -64q-5 -5 -7 -5q-11 -95 -53 -274q65 -19 135 16.5t116.5 99t55.5 127.5zM342 503q66 -8 99.5 -57.5t29.5 -118.5q-3 -65 -37.5 -131t-86.5 -114t-121 -70.5t-135 -4.5q-3 3 -7 3q-37 -152 -45 -189q-5 -24 -37.5 -28
t-39.5 16q-2 6 -1 14q13 64 48 202t54 244.5t20 207.5q0 13 12.5 21t27.5 8t27 -8t12 -23q0 -3 -0.5 -8.5t-0.5 -8.5q88 55 181 45z" />
    <glyph glyph-name="afii10083" unicode="&#x441;" horiz-adv-x="406" 
d="M374 507q21 -5 22 -24t-14 -34.5t-33 -12.5q-126 26 -197 -42q-80 -77 -82 -196q0 -107 81 -130q70 -20 178 27q30 14 36 -12q7 -25 -13 -44q-6 -5 -13 -8q-147 -68 -243 -25q-51 22 -75 71t-20 108q3 73 33.5 139t79 112.5t117 67t143.5 3.5z" />
    <glyph glyph-name="afii10084" unicode="&#x442;" horiz-adv-x="747" 
d="M703 420q3 -20 3 -44.5t-1 -41.5t-6 -47.5t-7 -41t-9 -43.5q-39 -184 -39 -187q-3 -18 -23.5 -23.5t-39 4.5t-15.5 30q5 32 32.5 155t28.5 191q0 48 -6 56l-8 -3q-13 -5 -35 -17q-17 -11 -71.5 -52.5t-87.5 -56.5q-2 -19 -17 -95q-21 -96 -45 -189q-8 -32 -33 -20
q-22 11 -26 38l1 15q2 9 16 59t19 70t12.5 57.5t11.5 68.5q-7 9 -5.5 20t10.5 18q3 32 2 58q0 17 -2 23q-20 -5 -65 -30q-23 -12 -71.5 -40.5t-75.5 -41.5q-1 0 -2.5 -1t-2.5 -1q-36 -200 -59 -299q-6 -25 -33 -33t-32 13q-2 8 0 18q18 79 46.5 232t43.5 224q6 25 32 33
q27 8 34 -12q2 -8 0 -20q-3 -10 -7 -30t-6 -29q9 5 43.5 26t57.5 33.5t47 23.5q50 20 72 9q30 -14 37 -69q4 -15 4 -48q110 78 158 97q103 42 119 -57z" />
    <glyph glyph-name="afii10085" unicode="&#x443;" horiz-adv-x="443" 
d="M383 509q12 23 47 18q30 -4 33 -24q1 -6 -3 -13q-20 -38 -90.5 -181t-112.5 -219q-88 -158 -142 -222q-79 -92 -137 -58q-26 17 -14.5 37.5t37.5 18.5q14 -1 27 8t20 19.5t18 28.5t13 22q29 40 69 108q-16 5 -20 27q-15 61 -36 192.5t-39 197.5q-6 22 6 36t28.5 9.5
t22.5 -27.5q18 -66 38 -194t33 -183q13 24 28 50q32 61 89.5 179t84.5 170z" />
    <glyph glyph-name="afii10086" unicode="&#x444;" horiz-adv-x="674" 
d="M572 282q7 46 -13 96.5t-65 45.5q-11 -1 -49 -11t-58 -8q-20 -100 -26 -149q-5 -36 -14.5 -104t-13.5 -99q111 -16 153 47q24 39 36.5 59.5t28.5 56.5t21 66zM127 70q14 -10 34.5 -14.5t35 -4.5t40.5 1t35 1q5 35 14.5 106t15.5 107q12 88 26 149q-19 -3 -23 20
q-5 12 -25 8.5t-42 -12.5t-30 -15q-78 -70 -115 -173q-16 -36 -8 -92.5t42 -80.5zM578 471q39 -40 50.5 -102.5t-3.5 -116.5q-15 -60 -52 -126q-3 -5 -13.5 -25t-16 -29t-15.5 -23t-19 -23q-67 -67 -187 -53q-17 -97 -33 -156q-5 -22 -22 -28.5t-29.5 5t-6.5 34.5
q23 105 30 148h-3q-6 0 -34 -0.5t-38.5 0t-34 3t-36 8t-28 16.5t-26.5 26q-38 54 -40.5 128t26.5 133q78 166 167 207q22 11 46 17t50 3.5t40 -17.5q34 118 36 167q2 41 30 46q14 2 23 -9.5t8 -25.5q-3 -67 -41 -195q14 1 41.5 9.5t33.5 9.5q57 8 97 -31z" />
    <glyph glyph-name="afii10087" unicode="&#x445;" horiz-adv-x="437" 
d="M434 516q9 -31 -17 -55q-30 -27 -59 -59.5t-66 -78t-53 -63.5q20 -36 59.5 -107t58.5 -107q9 -16 -3.5 -35.5t-30.5 -23.5t-30 12q-11 21 -109 198q-36 -42 -62 -79q-11 -16 -41.5 -51t-42.5 -55q-13 -21 -31 -19t-23.5 19t4.5 37q16 25 50.5 66t45.5 56q34 46 68 86
q-11 16 -27 45q-17 35 -39 87q-9 24 -19 44q0 2 -2.5 6.5t-4 8t-1.5 4.5q-11 7 -4 29h1q6 18 24 29.5t34 -1.5q8 -7 13.5 -17.5t10.5 -26.5t7 -20q29 -69 41 -90q11 -23 20 -36q14 17 55.5 66t71 81.5t60.5 61.5q11 9 23.5 4.5t17.5 -16.5z" />
    <glyph glyph-name="afii10088" unicode="&#x446;" horiz-adv-x="545" 
d="M482 61q18 -1 21.5 -18t-5.5 -29q-27 -41 -56 -135q-7 -25 -35 -29q-26 -5 -32 16q-2 9 1 20q21 69 38 103q-21 -5 -46.5 -1t-41.5 22q-13 14 -11 40q-79 -42 -157 -53q-104 -12 -126 41q-6 15 -8.5 34.5t-2.5 34.5t3.5 40t6 36.5t9 38.5t7.5 32q4 17 13 52.5t14 57
t9 52.5t3 57q0 18 20 26t40 0.5t20 -26.5q2 -63 -27 -175.5t-33 -155.5q0 -3 -3.5 -25t-3 -38t6.5 -23q3 -3 12 -3t19 1.5t12 1.5q79 14 160 64q11 7 25 10q3 17 14 83.5t16 96t17 79.5t26 90q9 26 37 29q27 3 30 -18q1 -8 -3 -19q-9 -26 -16 -53.5t-13.5 -60t-10.5 -53
t-10 -60.5t-9 -55q-2 -9 -6.5 -34.5t-7.5 -38.5q-1 -6 -6 -23t-6 -26q0 -7 20.5 -8t46 1t29.5 1z" />
    <glyph glyph-name="afii10089" unicode="&#x447;" horiz-adv-x="482" 
d="M441 490q2 -12 0 -24t-6.5 -29t-5.5 -25q-16 -78 -30 -137q-48 -211 -67 -264q-8 -23 -40 -24t-36 20q-2 7 1 15q22 62 49 181q-146 -67 -217 -11q-35 28 -44 68.5t-0.5 75.5t21.5 84t14 78q1 31 24 31q21 1 32 -22q5 -10 4 -21q0 -15 -3.5 -33t-6.5 -30.5t-9 -33
t-9 -30.5q0 -1 -3.5 -13.5t-4 -17t-2.5 -16t-1 -18t2.5 -15t6.5 -14t12 -9.5q70 -35 206 47q5 20 13 57t10 48q1 3 8 27.5t6 34.5q-2 18 16 31t38 10t22 -21z" />
    <glyph glyph-name="afii10090" unicode="&#x448;" horiz-adv-x="726" 
d="M624 486q4 21 21 29.5t30.5 -1.5t9.5 -34q-30 -147 -47 -284q-2 -14 -6.5 -41t-7 -44.5t-4.5 -41t-1 -42.5q1 -27 -25 -40q-25 -12 -35 10l-4 16q-1 29 2 69q-57 -58 -133 -91q-19 -8 -38 -12t-40 -4t-37.5 11t-23.5 33q-11 33 -12 66q-28 -30 -58.5 -53t-64.5 -38
t-64.5 -4t-49.5 50q-5 12 -8.5 25.5t-5.5 24t-1.5 27.5t0.5 24.5t3.5 27.5t4 24.5t5.5 26.5t5 24q4 24 11.5 70.5t11.5 70.5q0 1 7 25t7.5 29.5t-0.5 24.5q-8 22 2.5 36t28 9.5t25.5 -26.5q6 -15 6.5 -35t-2.5 -35t-8.5 -38.5t-7.5 -33.5l-16 -88t-18 -118q-9 -60 6 -69
q19 -10 59 16q70 47 105 101q12 17 31 10v3q5 19 18.5 63t18.5 69q4 21 12.5 72t14.5 78q6 36 37 41q13 2 24 -6.5t7 -21.5q-5 -25 -12.5 -72.5t-15 -84.5t-17.5 -70q-29 -92 -31 -148q0 -53 11 -64q16 -13 61 3q81 38 115 85q23 25 39 23q4 17 6 36q29 185 49 287z" />
    <glyph glyph-name="afii10091" unicode="&#x449;" horiz-adv-x="750" 
d="M684 79q9 -6 15 -14.5t7.5 -18t2.5 -18.5t-2 -21l-5 -20t-8 -21.5t-8.5 -19.5t-9 -19t-8.5 -16q-14 -31 -37 -16q-21 14 -18 41q1 7 4 14q5 9 12.5 26.5t10.5 23.5q0 2 1.5 4.5t1.5 3.5q-48 -7 -67 7q-20 15 -20 47q-118 -76 -184 -68q-42 4 -56 29t-13 67
q-68 -46 -107 -64q-33 -15 -67.5 -18t-65 13t-39.5 54q-2 9 -3 19.5t-1 18.5t0.5 21t1 19.5t3 21t3 19.5t3.5 21.5t3.5 19t4.5 20t4 18.5q15 75 51 221q5 18 26.5 20.5t38.5 -10.5t12 -31q-2 -8 -10 -37t-10.5 -39.5t-9.5 -37t-10 -40t-8 -37.5t-8 -40.5t-6 -37.5t-5 -40
t-3 -38q-3 -21 0 -42q1 -16 4 -16h3q28 4 78 32q19 11 113 78q5 4 14 4q6 44 14.5 94t19.5 111.5t17 94.5q4 23 34 34q31 11 40 -7q3 -6 1 -15q-5 -27 -18.5 -100.5t-22 -126t-14.5 -102.5t-7 -75v-7v-6.5t0.5 -5t1.5 -5t3.5 -3t6.5 -2.5q12 0 16.5 -1t18 4t18 6.5t16.5 8
t15 7.5q18 9 50 27.5t46 25.5q36 200 79 344q4 14 16.5 19t24.5 -3q22 -16 12 -55q-41 -138 -79 -351q0 -1 -1 -3t-1 -4q4 0 16 1t17.5 1t14.5 -2t16 -7z" />
    <glyph glyph-name="afii10092" unicode="&#x44a;" horiz-adv-x="493" 
d="M236 60q27 5 68.5 27.5t70 54t-0.5 62.5q-18 17 -50 20t-55 0q-48 -4 -90 -33q-4 -23 -5.5 -30.5t-3.5 -29.5t1 -31.5t9 -22.5t20.5 -16.5t35.5 -0.5zM436 252q20 -39 15 -75t-30.5 -69.5t-57 -58t-64.5 -39.5q-97 -44 -152 -12q-51 30 -45 104q3 64 31 186q19 95 46 161
q-23 0 -71 -8q-3 -2 -7 -2v-1v1l-2 -1h2q-37 -9 -55 17q-8 11 -4.5 23t16.5 17l6 2t6 1.5t6 1.5h1q55 11 136 11q8 0 11 -2q17 4 27.5 -6t1.5 -31q0 -8 -3 -9q-30 -71 -56 -189q53 22 113 25q97 2 129 -47z" />
    <glyph glyph-name="afii10093" unicode="&#x44b;" horiz-adv-x="641" 
d="M194 64q47 23 81.5 64t15.5 82q-13 30 -47.5 32.5t-67 -11.5t-54.5 -33q-6 -22 -9 -31l-4.5 -13.5t-5 -17t-4 -17.5t-3 -18.5t0.5 -16t5 -15t11 -10.5q35 -21 81 5zM146 284q48 24 107.5 22t93.5 -38q38 -41 28 -88.5t-41 -85.5t-71 -63q-27 -17 -65 -27.5t-77 -12
t-68 19t-32 62.5q-2 24 2.5 49t16 59.5t14.5 47.5q2 8 10 39.5t10.5 42.5t8.5 38t8.5 43.5t5 39t2.5 42.5q0 19 19.5 29t39 4t19.5 -27q-3 -88 -31 -196zM523 488q4 18 24.5 19.5t38 -12t14.5 -32.5q-10 -60 -57 -229q-17 -73 -25 -116q-1 -9 -8.5 -40.5t-6.5 -48.5
q0 -20 -19 -25t-39 5t-20 28q-1 16 2 33t9 40.5t8 31.5q10 62 25 117q44 166 54 229z" />
    <glyph glyph-name="afii10094" unicode="&#x44c;" horiz-adv-x="433" 
d="M312 192q3 25 -14 39.5t-41 14.5t-46 -2q-65 -16 -103 -64q-25 -96 9 -113q61 -30 124 14.5t71 110.5zM373 262q18 -19 19.5 -47t-7.5 -52t-23 -47q-59 -95 -149 -113q-29 -5 -60 -6t-63 10t-49 34q-32 39 -14 115q-12 9 -3 28q7 10 14 21q7 27 23 83.5t27.5 101
t18.5 84.5q3 18 24 25.5t39 -1t16 -28.5q0 -1 -1 -6.5t-2 -9.5l-3 -9q-5 -24 -12 -51t-16 -60t-14 -51q32 13 53 17q31 5 63 6t65.5 -10t53.5 -34z" />
    <glyph glyph-name="afii10095" unicode="&#x44d;" horiz-adv-x="415" 
d="M302 491q36 -24 54 -64.5t18 -82.5t-7 -86q-15 -75 -49 -141.5t-89 -100.5q-59 -36 -126.5 -39t-128.5 33q-26 18 -4 40q21 21 47 13q5 -1 9 -4q41 -27 93.5 -20t87.5 43q42 46 68 126q-19 0 -76.5 -2t-90.5 -2q-18 0 -24.5 20t3 39.5t28.5 19.5q29 0 177 5
q16 127 -48 157q-64 31 -147 -3q-19 -9 -35 0.5t-15.5 26.5t22.5 26q53 25 117 25.5t116 -29.5z" />
    <glyph glyph-name="afii10096" unicode="&#x44e;" horiz-adv-x="699" 
d="M515 126q40 49 63.5 121.5t5.5 123.5q-13 35 -43.5 50t-63 11.5t-66.5 -17.5q-10 -16 -21 -19q-13 -5 -28 -41q-28 -56 -33 -67q-34 -82 -20 -143q7 -37 30.5 -65t58.5 -26q61 4 117 72zM654 394q16 -89 -23.5 -188.5t-110.5 -159.5q-100 -82 -172 -60q-45 13 -73.5 50.5
t-33.5 84.5q-6 46 1 86q-50 -5 -97 -6q-11 0 -17 -2q-21 -105 -29 -167q-2 -18 -22.5 -25.5t-39 0t-16.5 27.5q9 78 43 229q5 22 16.5 63t19 75.5t8.5 64.5q1 18 21 26t39.5 0.5t19.5 -27.5q-2 -27 -8.5 -58t-17.5 -70t-15 -58q5 1 14 1q60 4 90 8q8 0 11 -1q13 31 14 34
q4 8 13.5 28.5t15.5 33t17 28.5t22 27q8 17 21 23q35 23 80 34t88.5 7.5t77 -31.5t43.5 -77z" />
    <glyph glyph-name="afii10097" unicode="&#x44f;" horiz-adv-x="436" 
d="M416 454q0 -14 -10 -23q-30 -119 -85 -410q-5 -24 -22 -30t-29.5 6.5t-8.5 35.5q8 38 24.5 123t30 149.5t28.5 122.5q-6 8 -6 15v-2v-4h-1l-9 3q-7 2 -25 2q-22 2 -37 -2q-39 -5 -74.5 -22.5t-55.5 -47.5q-19 -30 -17 -61.5t20.5 -51t47 -28t63.5 7.5q22 10 36 0
t10 -28.5t-25 -27.5h-2l-1 -1q-1 -2 -2 -2t-2.5 -2.5t-3.5 -3.5q-3 -4 -14 -10q-110 -80 -173 -159q-24 -28 -54 -18q-12 5 -16.5 17t2.5 23q59 71 147 144q-52 9 -83 48q-33 46 -28 96.5t41 93.5q37 43 91 68t112 29q124 9 131 -50z" />
    <glyph glyph-name="afii10071" unicode="&#x451;" horiz-adv-x="486" 
d="M132 366q-17 -34 -29 -73q28 6 82.5 8t72.5 4q60 5 97 25q29 15 15 75q-14 52 -60.5 64.5t-90.5 -13.5q-53 -27 -87 -90zM167 232q-67 -6 -73 -8q-5 -67 22 -116q27 -48 76.5 -56t95 10t87.5 50q19 14 35.5 7t16.5 -23.5t-18 -32.5q-56 -41 -123.5 -66t-125.5 -15
q-71 13 -106 76.5t-33 140.5q2 86 38 165.5t102 126.5q95 66 176 46q60 -12 88.5 -63.5t16.5 -113.5q-16 -87 -153 -116q-24 -5 -122 -12zM208 606q-14 2 -18 14t1 25q0 5 3 9v4q0 1 1 1q0 3 1 6.5t1 4.5v1v4q4 36 33 45q12 5 25.5 -0.5t13.5 -19.5q-3 -34 -14 -64
q-4 -14 -18.5 -23t-28.5 -7zM383 609q-12 6 -18 22.5t-1 29.5q2 5 5 14.5t6 17.5t5 16q3 13 14 20t23 0q13 -7 19 -22.5t1 -28.5q-2 -8 -7.5 -24.5t-7.5 -23.5q-15 -35 -39 -21z" />
    <glyph glyph-name="afii10099" unicode="&#x452;" horiz-adv-x="517" 
d="M452 240q20 -133 -35 -285q-63 -161 -153 -164q-22 0 -32.5 14t-3 29t30.5 15q9 0 17 6q15 14 26 27q25 38 44 96q41 125 33 230q0 2 -1.5 14.5t-2.5 17.5l-3 15t-5.5 16.5t-8.5 12.5l-12 9q-24 4 -56 -9q-48 -20 -88 -66.5t-62.5 -95t-37.5 -104.5q-7 -25 -44 -25
q-17 -1 -28.5 7.5t-8.5 23.5q26 112 102 404q-18 -1 -56 -1q-22 0 -31 14.5t0 28.5t31 14q48 0 73 2q6 24 13 50.5t16.5 59t14.5 51.5q6 23 38 26q31 3 36 -16v-13q-5 -20 -19 -73t-22 -81q110 5 132 5t31 -14.5t0 -29t-31 -14.5q-49 0 -149 -6q-7 -28 -42 -161
q59 57 121 73q86 23 128 -11q36 -28 45 -92z" />
    <glyph glyph-name="afii10100" unicode="&#x453;" horiz-adv-x="428" 
d="M319 97q23 15 47 -3q23 -17 6 -37q-4 -4 -10 -8q-43 -27 -92.5 -44t-107.5 -17t-98 28q-60 44 -63 104t52 109q33 30 115 73t115 77q28 27 23.5 52.5t-45.5 34.5q-34 7 -75.5 -4t-73.5 -32q-23 -16 -48 2q-22 16 -6 35q3 4 9 8q40 28 95 42.5t113 6.5t90 -44
q19 -20 21.5 -43t-7 -42.5t-28 -40t-36 -34.5t-37.5 -27q-20 -12 -61 -32.5t-61 -32.5q-58 -40 -73 -65q-9 -16 -9 -30q1 -37 30 -60.5t67 -25.5q69 0 148 50zM257 598q-14 4 -19.5 15t0.5 23q12 25 38 71q27 40 43 52q10 10 25.5 11.5t27.5 -8.5q9 -11 5 -23.5t-15 -20.5
q0 -1 -4 -5l-2 -3l-3 -3q-14 -24 -18 -28q-19 -38 -29 -56q-6 -12 -21 -19.5t-28 -5.5z" />
    <glyph glyph-name="afii10101" unicode="&#x454;" horiz-adv-x="467" 
d="M373 443q-76 26 -144.5 -27.5t-105.5 -139.5q198 5 237 5q29 0 24 -26q-5 -24 -29 -36q-8 -4 -16 -4q-34 0 -224 -5q-3 -1 -13 -5q-16 -92 28 -131q53 -48 204 10q32 12 54 -10q9 -10 7 -23t-14 -18q-203 -77 -299 -1q-43 33 -56 91t2 110q14 63 49 120t85 97t112 54
t130 -8q30 -11 21 -33q-9 -21 -35 -23q-9 0 -17 3z" />
    <glyph glyph-name="afii10102" unicode="&#x455;" horiz-adv-x="353" 
d="M337 491q26 -14 10 -37q-15 -22 -40 -19q-7 1 -13 4q-54 29 -112 13q-32 -10 -53.5 -34.5t-9.5 -53.5q12 -27 40 -50t55.5 -37.5t53 -40t32.5 -57.5q12 -49 -13 -94t-73 -71q-110 -61 -237 -4q-28 12 -11 35q15 21 41 20q7 0 13 -3q26 -11 56 -15.5t59.5 -0.5t53.5 21
t34 46q12 32 -2.5 60.5t-37.5 45.5t-57.5 39.5t-47.5 34.5q-47 48 -33.5 105.5t71.5 88.5q51 28 110.5 29.5t110.5 -25.5z" />
    <glyph glyph-name="afii10103" unicode="&#x456;" 
d="M99 504q4 18 24 20t37.5 -11t13.5 -31q-12 -58 -46 -223.5t-54 -255.5q-4 -17 -24 -19t-37 11t-12 31q19 90 52.5 256t45.5 222zM215 711q21 -29 20 -59q0 -22 -19 -34q-37 -19 -79 5q-15 9 -21.5 29t0.5 37q7 14 17 21q10 6 27 12q9 3 28.5 0.5t26.5 -11.5z" />
    <glyph glyph-name="afii10104" unicode="&#x457;" horiz-adv-x="257" 
d="M180 505q15 -12 16 -35t-5 -40q-5 -35 -26 -130q-5 -19 -17 -64t-18 -71.5t-12.5 -64.5t-6.5 -70q-1 -24 -31 -39t-38 5q-2 5 -2 11q0 20 3 42.5t5 38.5t8.5 44t9 38.5t11 43.5t9.5 39q26 114 30 134q2 9 5 26.5t4 26.5v11v4q-10 21 13 43t42 7zM190 681q0 -2 -2 -3
q15 -17 2 -33l-2 -2q-3 -5 -3 -8q-11 -15 -23 -21q-18 -6 -36 0.5t-27 22.5q-9 18 2 29q0 1 0.5 2.5t0.5 2.5q1 0 2 1.5t2 1.5q3 13 3 14q5 14 15 26q9 11 25.5 13t28.5 -5t16.5 -18t-4.5 -23zM306 663q22 -28 4 -53q-10 -11 -22 -9t-21 13q-19 20 -23 74q0 14 7 25.5
t21 10.5t23.5 -14t9.5 -27q0 -12 1 -17v-3z" />
    <glyph glyph-name="afii10105" unicode="&#x458;" 
d="M116 488q6 30 30 23q22 -7 28 -32v-17q-13 -62 -38.5 -187t-38.5 -187q-28 -136 -52 -199q-44 -117 -153 -103q-23 2 -30 33t12 41q7 3 16 2q13 -2 38 -2q19 2 34 18t21.5 31.5t13.5 39.5q19 56 49 201q12 56 35 169t35 169zM212 661q-3 -3 -11 -7q4 2 6 2zM234 672
q6 -21 -9 -34q-1 -1 -4 -3.5t-5 -3.5q-11 -5 -21 -6q-12 -3 -23 0q-15 1 -26 9t-10 22q1 10 8 15q0 1 -1 1l-1 2q-4 14 5 23q18 13 40 12q12 0 24 -7q18 -15 23 -30z" />
    <glyph glyph-name="afii10106" unicode="&#x459;" horiz-adv-x="736" 
d="M467 64q32 1 72.5 12.5t72.5 38.5t18 62q-16 40 -60.5 51t-89.5 -1t-75 -36q-1 -3 -4 -3q-11 -124 66 -124zM681 227q29 -60 4 -108.5t-73.5 -80t-104.5 -42.5q-86 -16 -127 23t-36 118t20.5 145.5t42.5 142.5q-14 0 -41 0.5t-40 0.5q-41 5 -65 3l-1 -3v-3
q-5 -21 -14 -68t-14.5 -73.5t-17 -64.5t-24.5 -69q-31 -76 -86 -120.5t-126 -20.5q-27 8 -14 35q12 25 36 29q7 1 14 -1q15 -2 26.5 -4t23 5.5t19.5 13t16.5 18.5t13.5 22.5t11 24.5t9.5 25t7.5 23q15 48 50 225l2 2q-7 12 -3.5 31.5t17.5 28.5q9 6 19 10t24.5 5.5t22.5 2
t25.5 0t21.5 -0.5q115 -2 137 -1q17 2 22 -16.5t-1 -30.5q-44 -117 -61 -181q47 25 97 32.5t97 -11.5t70 -67z" />
    <glyph glyph-name="afii10107" unicode="&#x45a;" horiz-adv-x="728" 
d="M611 164q6 25 -12 38.5t-50 16t-63.5 1t-58.5 -4.5q-3 -1 -5 -1q-32 -114 9 -149q17 -15 48 -16t49 8q30 12 52.5 42t30.5 65zM438 275q23 2 35.5 3t39 2t43.5 -0.5t41 -4.5t38.5 -10.5t28.5 -17.5t19.5 -26t3.5 -37q-8 -90 -83 -147t-164 -47q-140 17 -92 218
q-170 2 -213 0h-1q-27 -125 -34 -167q-7 -37 -31 -40q-14 0 -21.5 11.5t-6.5 25.5q11 64 43.5 207t44.5 220q3 14 11.5 26t22.5 13q13 0 20 -11.5t5 -24.5q-12 -79 -39 -196q21 3 23 3q6 0 15 -3q79 1 177 -2q6 20 20 65t21 71.5t9 44.5q2 23 32 34q31 11 40 -7q3 -5 2 -12
q-2 -19 -5 -37.5t-9.5 -41.5t-10.5 -35t-13.5 -41t-11.5 -36z" />
    <glyph glyph-name="afii10108" unicode="&#x45b;" horiz-adv-x="518" 
d="M440 304q31 -42 5 -131q-3 -10 -11 -36.5t-12 -40t-8.5 -35t-6.5 -39.5q-1 -18 -21 -21.5t-38.5 8.5t-17.5 31q1 14 4.5 29.5t6.5 26.5t8.5 29.5t8.5 27.5q2 5 6.5 20.5t6.5 21.5t5.5 22t3 22t-0.5 22q-7 69 -132 -5q-47 -28 -75 -52q-1 -1 -4 -2l-2 -1
q-27 -108 -50 -182q-5 -18 -25.5 -19.5t-37 12t-11.5 31.5q51 171 96 387h-33q-21 0 -32 15t-4 30.5t31 15.5h49q17 87 33 184q4 18 24 19t37.5 -12.5t14.5 -31.5q-15 -76 -30 -156q55 4 112 25q25 9 48 -13q23 -21 5 -36q-4 -3 -10 -5q-70 -28 -166 -33q-25 -119 -27 -128
q51 33 106 43q104 17 144 -43z" />
    <glyph glyph-name="afii10109" unicode="&#x45c;" horiz-adv-x="459" 
d="M429 441q-19 -19 -54.5 -60t-64.5 -69.5t-60 -47.5q28 -34 70 -105t64 -101q11 -14 2 -34.5t-25.5 -26.5t-30.5 8q-21 28 -67.5 105t-78.5 113q-3 4 -7 10l-3 -1q-3 -1 -5 -1q-20 -5 -31 5q-28 -165 -40 -210q-8 -31 -32 -20q-22 11 -25 38q-1 7 1 14q15 56 39 201
t50 220q11 30 35 19q21 -10 23 -35q0 -8 -2 -15q-25 -76 -41 -164q3 1 6.5 2.5t6.5 2.5q33 7 65 29.5t51.5 45.5t47.5 58t45 52q18 18 49 8q27 -9 20 -29q-2 -6 -8 -12zM304 591q-14 4 -16.5 18.5t4.5 25.5q2 4 33 46q7 9 15 21q1 0 2 1l1 1q4 12 15.5 20.5t24.5 8.5
q25 -1 23 -36q-3 -14 -30 -44q-16 -21 -18 -25q-1 -2 -2.5 -4t-2.5 -4l-3 -5q-7 -13 -20 -21t-26 -3z" />
    <glyph glyph-name="afii10110" unicode="&#x45e;" horiz-adv-x="452" 
d="M182 607q-18 -6 -30 10.5t-10 37.5t19 27q26 8 54.5 9.5t70.5 -0.5t56 -2q18 -1 27 -20t2.5 -38t-26.5 -19q-14 0 -50.5 2.5t-63 1t-49.5 -8.5zM447 493q13 -30 -8 -54q-9 -9 -16.5 -22.5t-10.5 -23t-9.5 -29l-8.5 -25.5q-9 -24 -47 -103q-74 -144 -112 -215
q-25 -45 -42 -71.5t-44 -57.5t-61 -47t-77 -21q-18 -1 -26.5 17.5t-1.5 39t25 22.5q100 10 166 135q-2 1 -2 3q-45 89 -75 246q-17 82 -20 100q0 2 -3 41v8l-2 2q-17 28 0 54q5 8 10 10q15 7 30 -5q16 -14 21 -71q4 -41 15 -93q32 -160 61 -228q8 21 16 34q98 192 107 213
q8 17 20 51t24 58t30 44q11 10 22.5 5t18.5 -17z" />
    <glyph glyph-name="afii10193" unicode="&#x45f;" horiz-adv-x="484" 
d="M388 468q8 31 32 23q21 -7 24 -33q0 -8 -2 -16q-14 -57 -44 -256q5 -9 -3 -23q-20 -113 -30 -151q-8 -31 -32 -23q-21 7 -24 33q0 8 2 16q2 9 6 26.5t5 24.5q-37 -29 -74 -44q-1 -1 -4 -2l-2 -1q-2 -66 -30 -238q-5 -24 -39 -32q-32 -8 -38 12q-1 4 0 10q26 150 29 228
q-38 -4 -62 11q-70 36 -61 138q4 53 26.5 151t27.5 146q2 18 22 27.5t38.5 3t17.5 -25.5q-5 -45 -24 -126t-24 -113q-16 -83 -6 -115q6 -18 19 -27q20 -17 53 -9q1 0 5.5 1.5t7.5 1.5q33 12 68.5 42.5t56.5 57.5q4 6 13 10q29 207 46 272z" />
    <glyph glyph-name="afii10050" unicode="&#x490;" horiz-adv-x="501" 
d="M521 828q14 15 33 13t24 -16.5t-9 -33.5q-13 -13 -22 -59q-11 -39 -15 -49q7 -12 -0.5 -25.5t-28.5 -15.5h-5q-6 -3 -18 -3h-6q-77 -4 -234 -4q-33 -270 -142 -651q-7 -23 -23.5 -25.5t-27.5 12.5t-5 35q112 395 141 633q-17 11 -12 28q4 16 21 21q8 17 25 18.5t25 -13.5
q150 0 226 4q4 12 10 34t10 35.5t12.5 31t20.5 30.5z" />
    <glyph glyph-name="afii10098" unicode="&#x491;" horiz-adv-x="381" 
d="M394 563l2 2q-2 -2 -2 -4q-2 -6 -3 -8q-3 -21 -3 -22q-2 -11 -4 -54q0 -23 -29 -27q-14 -25 -40 -27q-21 -3 -73.5 -4t-79.5 -8q0 -8 -1 -13q-3 -13 -9 -21q-17 -226 -53 -348q-10 -30 -35 -14q-22 14 -23 41q-1 6 1 11q17 56 28.5 126t14.5 112.5t9 129.5q0 21 17 26
q15 5 24 0q14 9 18 10q22 8 45.5 11t62 3.5t47.5 1.5q0 37 6 62q7 35 15 44q15 20 46 10q28 -8 25 -28z" />
    <glyph glyph-name="endash" unicode="&#x2013;" horiz-adv-x="471" 
d="M76 249q-19 -3 -29.5 14.5t-5.5 38t22 24.5q42 8 93.5 11.5t83 3.5t96.5 -1.5t87 -1.5q18 0 25 -19t-1.5 -38.5t-27.5 -19.5q-26 0 -84 1t-91 1t-80.5 -3.5t-87.5 -10.5z" />
    <glyph glyph-name="emdash" unicode="&#x2014;" horiz-adv-x="785" 
d="M68 277q-29 0 -28 25t23 38q8 4 16 4q75 0 304 -8.5t354 -2.5q28 2 28 -22q0 -25 -21 -39q-9 -5 -18 -6q-127 -7 -357 2t-301 9z" />
    <glyph glyph-name="quoteleft" unicode="&#x2018;" horiz-adv-x="156" 
d="M135 606q13 -3 18.5 -14.5t-1.5 -22.5q-7 -13 -21.5 -19t-28.5 -3q-11 3 -19 7.5t-12.5 12.5t-7.5 15t-2.5 18.5t0.5 19t3 21t4.5 19.5t5 19t4.5 16q7 22 38 27q31 6 35 -15q1 -5 -1 -12q-15 -53 -15 -55q-2 -21 -1 -30q0 -2 1 -4v0z" />
    <glyph glyph-name="quoteright" unicode="&#x2019;" horiz-adv-x="156" 
d="M81 661q-13 3 -18.5 14.5t1.5 22.5q7 13 21.5 19t28.5 3q11 -3 19 -7.5t12.5 -12.5t7.5 -15t2.5 -18.5t-0.5 -19t-3 -21t-4.5 -19.5t-5 -19t-4.5 -16q-7 -22 -38 -27q-31 -6 -35 15q-1 5 1 12q15 53 15 55q2 21 1 30q0 2 -1 4v0z" />
    <glyph glyph-name="quotesinglbase" unicode="&#x201a;" horiz-adv-x="176" 
d="M43 10v2q-15 -8 -34.5 -1t-25.5 25q-10 29 15 48.5t54 10.5q36 -10 51.5 -33.5t11.5 -52t-18 -57t-35 -50.5q-20 -20 -49 -9q-25 10 -13 31q2 5 7 10q40 40 36 76z" />
    <glyph glyph-name="quotedblleft" unicode="&#x201c;" horiz-adv-x="289" 
d="M152 600q11 -8 10 -21t-10 -23q-23 -22 -53 -7q-27 12 -34.5 40.5t-1 56.5t19.5 53q12 22 43 19q26 -3 26 -23q0 -7 -5 -16v-1q-2 -1 -3 -6q-3 -9 -4 -11q0 -4 -2 -11.5t-3 -11.5q0 -32 17 -38zM268 606q13 -3 18.5 -14.5t-1.5 -22.5q-7 -13 -21.5 -19t-28.5 -3
q-11 3 -19 7.5t-12.5 12.5t-7.5 15t-2.5 18.5t0.5 19t3 21t4.5 19.5t5 19t4.5 16q7 22 38 27q31 6 35 -15q1 -5 -1 -12q-15 -53 -15 -55q-2 -21 -1 -30q1 -2 1 -4v0z" />
    <glyph glyph-name="quotedblright" unicode="&#x201d;" horiz-adv-x="289" 
d="M197 667q-11 8 -10 21t10 23q23 22 53 7q27 -12 34.5 -40.5t1 -56.5t-19.5 -53q-12 -22 -43 -19q-26 3 -26 23q0 7 5 16v1q2 1 3 6q3 9 4 11q1 4 3 11.5t2 11.5q0 32 -17 38zM81 661q-13 3 -18.5 14.5t1.5 22.5q7 13 21.5 19t28.5 3q11 -3 19 -7.5t12.5 -12.5t7.5 -15
t2.5 -18.5t-0.5 -19t-3 -21t-4.5 -19.5t-5 -19t-4.5 -16q-7 -22 -38 -27q-31 -6 -35 15q-1 5 1 12q15 53 15 55q2 21 1 30q0 2 -1 4v0z" />
    <glyph glyph-name="quotedblbase" unicode="&#x201e;" horiz-adv-x="288" 
d="M69 73q24 -20 23 -48t-11.5 -46t-31.5 -47q-8 -13 -22.5 -18.5t-28.5 -0.5q-12 4 -16.5 15.5t2.5 22.5q26 28 32 47t-13 35q-8 11 -2 23t16 19q28 18 52 -2zM191 83q26 -8 33.5 -36.5t-1.5 -52.5q-13 -41 -44 -75q-9 -10 -21 -8.5t-19 13.5q-14 27 6 54q9 9 22 32
q-5 2 -9 8q-3 4 -5 14q-7 20 5 39t33 12z" />
    <glyph glyph-name="dagger" unicode="&#x2020;" horiz-adv-x="468" 
d="M419 516q28 5 43 -20q14 -23 -7 -34l-13 -5q-65 -11 -160 -18q-77 -299 -110 -579q-2 -17 -22.5 -24t-38.5 1t-16 27q32 268 108 570q-49 0 -72 -1h-3h-18q-39 0 -48 26q-5 13 3.5 23.5t21.5 10.5q47 0 131 4q33 118 56 195q8 23 42 26q32 2 36 -18q1 -5 -1 -11
q-39 -135 -52 -187q55 4 120 14z" />
    <glyph glyph-name="daggerdbl" unicode="&#x2021;" horiz-adv-x="493" 
d="M472 225q3 -13 -7.5 -22.5t-24.5 -11.5q-30 -1 -93.5 -4.5t-95.5 -5.5q-22 -132 -64 -343q-6 -30 -30 -21q-22 9 -27 35q-1 8 0 16q35 174 59 310q-45 -2 -133 -2q-24 0 -32.5 14.5t2 29t33.5 14.5q71 0 140 3q6 34 17.5 102.5t16.5 102.5q-114 -7 -146 -7q-27 -1 -24 25
q3 28 27 41q8 5 17 5q45 0 139 6q7 40 25 145q6 32 31 21q22 -10 27 -37q1 -7 0 -14q-17 -91 -20 -111q65 5 118 5q26 1 23 -25q-3 -28 -27 -41q-8 -5 -16 -5q-49 0 -111 -5q-7 -37 -18.5 -107t-16.5 -98q27 1 81.5 4.5t81.5 5.5q39 0 48 -25z" />
    <glyph glyph-name="bullet" unicode="&#x2022;" horiz-adv-x="400" 
d="M301 430q37 -29 39 -75.5t-29 -81.5q-31 -39 -85.5 -47.5t-96.5 19.5q-33 21 -43.5 54.5t0.5 63.5q-4 33 15 59t52 36q86 27 148 -28z" />
    <glyph glyph-name="ellipsis" unicode="&#x2026;" horiz-adv-x="605" 
d="M71 88q11 -8 11 -28q0 -14 -15 -35q0 -1 -1 -2.5l-2 -3t-1 -2.5t-4 -5v-2l-1 -1q-1 -1 -2 -2.5t-2 -2.5q-22 -20 -42 -12h-7q-10 2 -17.5 9.5t-7.5 17.5q0 9 5 26q4 13 28 28q12 5 23 10q17 10 35 5zM327 86q17 -14 7 -30q-10 -18 -18 -24l-5 -5q-3 -9 -12 -15
q-17 -23 -46 -16q-13 2 -19 10q-13 5 -17 14q-16 37 10 56q18 13 44 13h12h1q29 10 43 -3zM554 42q0 -33 -16 -45q-2 -2 -18 -13q-15 -11 -29 -1.5t-17 27.5q-8 17 -4 32q3 8 7 13q-2 -2 -2 -4q0 1 1 3l1 2q1 3 8 10q13 12 35 20q6 2 15 -3t13 -12q8 -17 6 -29z" />
    <glyph glyph-name="perthousand" unicode="&#x2030;" horiz-adv-x="1016" 
d="M271 593q-8 41 -45 50t-70 -11q-20 -22 -28 -60t3 -68t40 -29q39 1 73 40.5t27 77.5zM197 419q-68 -12 -112 27.5t-36 108.5q4 17 5 23q-21 10 -10 30q24 44 73 73q39 31 85 28q10 0 18 -3q84 -6 114 -59q22 -49 7 -96.5t-56 -85t-88 -46.5zM600 699q16 -19 -8 -52
q-88 -100 -238 -322t-241 -324q-20 -26 -37 -7q-17 17 -5 43l8 11q89 101 238.5 324t238.5 324q8 10 21.5 11.5t22.5 -8.5zM501 78q36 17 66.5 60t24.5 81q-3 26 -33 43q-12 -13 -30 -10q-34 9 -58 -23t-34 -72q-10 -41 6 -70.5t58 -8.5zM534 344q39 2 72 -21.5t43 -60.5
q17 -68 -25.5 -145.5t-107.5 -109.5q-29 -16 -67.5 -12t-57.5 34q-31 52 -13 129q9 41 26 74q0 2 1 4.5t2.5 5t1.5 3.5q19 39 52 67.5t73 31.5zM904 148q17 28 8 62.5t-36 52.5q-32 21 -62 7l-3 -12q-45 -94 -32 -147q8 -26 34.5 -20t54 24.5t36.5 32.5zM908 332
q51 -36 64 -100.5t-18 -119.5q-19 -33 -61 -63t-87 -36t-73 37q-27 44 -13 125q-16 0 -24.5 16.5t1.5 35.5q34 70 92.5 109.5t118.5 -4.5z" />
    <glyph glyph-name="guilsinglleft" unicode="&#x2039;" horiz-adv-x="503" 
d="M420 563q22 15 47 0q24 -15 13 -33q-4 -6 -11 -11q-51 -37 -175.5 -97t-180.5 -107q50 -27 148 -66.5t138 -59.5q28 -14 11 -37q-16 -21 -43 -16l-10 3q-38 19 -150.5 65t-167.5 81q-12 8 -16.5 18t4.5 23q49 48 118.5 87t147.5 77.5t127 72.5z" />
    <glyph glyph-name="guilsinglright" unicode="&#x203a;" horiz-adv-x="530" 
d="M92 484q-27 13 -14 36q13 22 39 20q7 -1 13 -4q41 -19 113 -55t132.5 -64.5t115.5 -49.5q16 -6 18 -23t-18 -27q-52 -24 -194.5 -81t-218.5 -95q-26 -14 -48 6q-20 17 -1 34q4 4 10 7q52 26 110.5 51t132 54.5t111.5 45.5q-58 25 -160 76t-141 69z" />
    <glyph glyph-name="Euro" unicode="&#x20ac;" horiz-adv-x="596" 
d="M618 703q17 -8 18 -29.5t-11.5 -37t-29.5 -8.5q-1 2 -6 3q-80 34 -153 11.5t-127.5 -75t-89.5 -126.5q123 3 263 -5q17 -1 25 -20.5t1 -38.5t-26 -18q-113 7 -293 5q-7 -20 -13 -62h243q28 0 27 -24t-24 -38q-9 -6 -19 -6h-229q3 -62 35 -105q74 -100 264 -67
q25 4 27 -24q1 -30 -20 -47q-6 -5 -13 -6q-113 -19 -186 3q-84 25 -124 91.5t-42 154.5h-89q-26 0 -25 24t23 38q10 6 19 6h75q4 37 10 60q-5 0 -14.5 -0.5t-17 -1t-14.5 -1.5q-18 -1 -29.5 18t-8 38.5t21.5 20.5q13 1 28 1.5t32 1t27 0.5q6 14 8 18q29 67 75.5 123.5
t107 97t129.5 48.5t145 -23z" />
    <glyph glyph-name="afii61352" unicode="&#x2116;" horiz-adv-x="984" 
d="M535 683q1 19 21 27t39.5 1t18.5 -25q-6 -92 -23.5 -192t-44 -224t-38.5 -189q-1 -2 -2.5 -5.5t-2.5 -5.5q14 -20 -1 -50q-15 -29 -35 -17q-2 2 -4 3q-28 24 -52 53.5t-47.5 73.5t-34 65t-34.5 75q-13 31 -36 86t-43 101.5t-39 86.5q-25 -99 -47 -285t-30 -236
q-4 -23 -20.5 -30.5t-29.5 3.5t-9 33q12 69 25.5 197t31.5 230.5t51 190.5q11 32 34.5 23.5t21.5 -37.5q1 -1 4.5 -5t5.5 -7q23 -42 44.5 -91t47 -112.5t38.5 -94.5q7 -14 20.5 -44.5t22.5 -50t23.5 -45.5t28.5 -46q8 43 35 166.5t41 208.5t19 168zM881 337q17 0 24.5 -19.5
t0 -38.5t-26.5 -19h-224q-17 0 -24.5 19t0 38.5t26.5 19.5h224zM895 506q11 26 9.5 61t-17.5 59q-20 28 -65 -5q-43 -32 -56 -78q-14 -52 34 -73q30 -14 56.5 -5t38.5 41zM946 662q31 -34 36.5 -88t-16.5 -94q-30 -59 -94 -73t-121 19q-71 45 -58 131q11 73 68 120
q67 55 139 20q24 -12 46 -35z" />
    <glyph glyph-name="trademark" unicode="&#x2122;" horiz-adv-x="818" 
d="M325 710q28 4 27 -18q-2 -23 -27 -39q-8 -5 -17 -7q-18 -3 -84 -8q-28 -158 -41 -235q-5 -24 -37 -30q-31 -6 -39 14q-2 6 -1 13q28 158 41 235h-106q-28 0 -18 25q10 24 35 35q9 4 17 4q183 0 250 11zM786 406q0 -23 -32 -41q-30 -16 -39 0q-2 4 -2 10q0 39 13.5 112.5
t15.5 100.5q-76 -82 -149 -175q-11 -11 -23 -8t-19 13q-7 15 -4 29q-9 21 -21 42.5t-29.5 49t-25.5 40.5q-20 -128 -41 -190q-7 -24 -40 -26q-31 -3 -35 17q-2 6 1 14q13 41 22 84.5t18 104.5t13 84q3 17 22 27t37 7t18 -17q7 -4 10 -14q13 -32 47 -85.5t46 -76.5
q87 105 176 199q15 14 26 8.5t16 -22.5q6 -3 9 -15q6 -49 -11.5 -142.5t-18.5 -129.5z" />
    </font>
</defs>
</svg>
