<?xml version="1.0" standalone="no"?>
<!DOCTYPE svg PUBLIC "-//W3C//DTD SVG 1.1//EN" "http://www.w3.org/Graphics/SVG/1.1/DTD/svg11.dtd" >
<svg xmlns="http://www.w3.org/2000/svg" xmlns:xlink="http://www.w3.org/1999/xlink" version="1.1">
<metadata>
Created by FontForge 20161003 at Mon Aug 14 07:49:24 2017
 By www-data
Copyright (c) 2010 by Andryushkin Artem, Jovanny Lemonad. All rights reserved.
</metadata>
<defs>
<font id="Flow_B" horiz-adv-x="497" >
  <font-face 
    font-family="Flow_B"
    font-weight="700"
    font-stretch="normal"
    units-per-em="1000"
    panose-1="2 0 5 6 2 0 0 2 0 4"
    ascent="750"
    descent="-250"
    x-height="497"
    cap-height="704"
    bbox="-179.512 -395.907 955.04 905.48"
    underline-thickness="50"
    underline-position="-150"
    unicode-range="U+0020-2122"
  />
<missing-glyph horiz-adv-x="300" 
 />
    <glyph glyph-name=".notdef" horiz-adv-x="300" 
 />
    <glyph glyph-name=".null" horiz-adv-x="0" 
 />
    <glyph glyph-name="nonmarkingreturn" horiz-adv-x="333" 
 />
    <glyph glyph-name="space" unicode=" " horiz-adv-x="300" 
 />
    <glyph glyph-name="exclam" unicode="!" horiz-adv-x="308" 
d="M205 680q9 41 40 33q27 -6 39 -36q6 -18 2 -35q-17 -69 -46.5 -224t-50.5 -236q-10 -40 -42 -32q-27 7 -38 37q-6 17 -1 34q19 76 48.5 229.5t48.5 229.5zM130 87q22 -3 40 -21t8 -39q-7 -18 -27 -29.5t-39 -7.5q-22 -5 -41.5 3.5t-27.5 29.5q-7 11 2 26q10 22 34.5 32
t50.5 6z" />
    <glyph glyph-name="quotedbl" unicode="&#x22;" horiz-adv-x="310" 
d="M172 705q19 -1 33.5 -15.5t6.5 -32.5q-31 -58 -61 -145q-11 -30 -53 -36q-41 -7 -54 17q-7 12 -1 29q25 70 61 144q23 44 68 39zM247 663q9 31 47 39q37 8 51 -15q7 -14 2 -33q-8 -27 -26.5 -80t-26.5 -80q-10 -32 -49 -40q-38 -7 -51 18q-6 12 -1 31q8 25 27 78t27 82z
" />
    <glyph glyph-name="numbersign" unicode="#" horiz-adv-x="552" 
d="M227 299q12 0 33 -0.5t32 -0.5l21 81q-44 0 -66 -1q-12 -46 -20 -79zM493 376q-15 0 -44 1t-43 1q-13 -47 -19 -76q27 1 60 8q26 5 45 -19t18 -52t-27 -33q-41 -9 -126 -13q-10 -39 -40 -147q-10 -40 -42 -32q-26 6 -37 34q-7 18 -2 35q11 45 29 110q-11 0 -32 1t-32 1
q-7 -26 -33 -138q-6 -30 -42 -41q-35 -11 -51 10q-8 12 -4 32q28 125 30 133q-4 -1 -9 -1.5t-11.5 -1t-9.5 -0.5q-25 -3 -40 22t-8.5 53t33.5 31q9 1 73 7q10 33 18 73q-53 -16 -86 -2q-15 7 -20.5 21.5t-0.5 29.5t14.5 28t25 19t30.5 0q19 0 61 4q13 67 20 124
q4 20 18 35.5t35 20.5q18 3 35 -6t15 -28q-12 -82 -25 -142q23 1 70 1q15 57 34 137q10 39 42 32q27 -6 39 -35q6 -17 2 -34q-9 -35 -25 -101q15 0 43.5 -0.5t42.5 -0.5q36 -1 34 -36q-1 -33 -29 -55q-14 -10 -29 -10z" />
    <glyph glyph-name="dollar" unicode="$" horiz-adv-x="451" 
d="M297 179q5 51 -51 99q-22 -97 -36 -188q38 5 61.5 27t25.5 62zM174 546q-6 -46 26 -86q13 53 35 159q-10 -1 -18 -8q-38 -22 -43 -65zM366 597q-23 12 -48 18q-32 -154 -47 -220q4 -3 24 -19t26.5 -21.5t20.5 -18t22 -22.5t14 -21q32 -64 19 -124t-61.5 -106.5
t-111.5 -58.5q-13 -4 -29 -4q-6 -38 -7 -59q-3 -20 -16.5 -37t-32.5 -18t-29 16t-8 36q6 44 8 62q-46 6 -81 26q-5 3 -19 9t-23.5 12t-15.5 14q-16 21 -8 41.5t31 33.5q14 11 36.5 9.5t32.5 -17.5q0 -2 1.5 -4t1.5 -3q9 -6 47 -22q2 0 6 -1.5t7 -2.5q29 156 48 241
q-60 50 -84 100q-27 58 -14.5 116.5t61.5 101.5q48 44 116 55q8 38 11 58q4 21 16 38t32 18q19 0 30 -17t6 -35q-3 -27 -11 -64q43 -6 92 -26q34 -15 16 -48q-17 -31 -50 -38q-16 -3 -29 2z" />
    <glyph glyph-name="percent" unicode="%" horiz-adv-x="682" 
d="M148 488q45 -65 79 -18q28 37 13 103q-4 15 5 31q-9 2 -15 8q-20 18 -71 -22q-22 -19 -25 -48t14 -54zM256 386q-58 -39 -120.5 -21t-90.5 82q-25 60 -6 116t72 94q30 22 63.5 35.5t73 13t66.5 -24.5q24 -23 2 -50q21 -5 28 -29q15 -64 -8 -122t-80 -94zM594 619
q-33 -48 -109 -160.5t-118 -171.5q-64 -88 -118 -146q-70 -76 -87 -122q-6 -18 -25 -29t-36 -3q-33 15 -14 68q22 55 97 140q61 65 115 142q47 64 128.5 186t105.5 156q12 16 30 21t34 -8q13 -17 11 -36.5t-14 -36.5zM547 138q34 66 11 97q-11 12 -8 25q-63 -10 -89 -65
q-23 -50 -10 -77q5 -11 14.5 -22t15.5 -11q14 0 30 12q23 21 36 41zM644 302q23 -31 26 -68t-8.5 -71t-34.5 -66q-34 -48 -85.5 -78.5t-102.5 -20.5q-48 10 -72.5 47t-23.5 82.5t23 85.5q37 72 101 107q43 26 135 32q19 1 33 -11t10 -31q0 -1 -1 -3.5t-2 -4.5h2z" />
    <glyph glyph-name="ampersand" unicode="&#x26;" horiz-adv-x="617" 
d="M327 150q12 9 23 18q-26 41 -32 52q-12 23 -33.5 65t-30.5 59q-64 -37 -98 -75q-15 -15 -31.5 -39t-29.5 -53t-7.5 -54.5t33.5 -36.5q88 -34 206 64zM290 578q-13 -45 8 -102h2l1 1q71 45 86 84q8 21 -1.5 38t-31.5 21q-23 3 -41 -8.5t-23 -33.5zM523 195
q-13 -13 -43 -41q38 -50 77 -92q28 -31 -3 -52q-29 -19 -63 -7q-12 5 -20 13q-44 48 -65 73q-180 -141 -333 -73q-61 27 -83 80.5t1 113.5q41 110 177 196q7 4 21 11.5t21 10.5q-20 40 -26 67q-17 64 5.5 121t82.5 79q59 21 127.5 -2.5t91.5 -79.5q23 -55 -10.5 -105
t-92.5 -89q-8 -5 -23.5 -13.5t-23.5 -13.5q37 -61 45 -80q17 -39 37 -73l30 30l34.5 34.5l29.5 29.5q25 22 67 5q35 -15 33 -40q-1 -11 -13 -22q-55 -53 -81 -81z" />
    <glyph glyph-name="quotesingle" unicode="'" horiz-adv-x="150" 
d="M79 658q4 31 44.5 44t58.5 -8q9 -10 7 -26q-5 -28 -19 -81t-19 -79q-5 -31 -46 -43q-40 -12 -58 8q-9 10 -6 26q4 28 19 81t19 78z" />
    <glyph glyph-name="parenleft" unicode="(" horiz-adv-x="294" 
d="M248 721q19 26 62 19q39 -6 43 -30q2 -12 -8 -26q-208 -271 -213 -508q-3 -99 20 -171q9 -31 27 -66q3 -6 9.5 -15.5t10 -17t3.5 -15.5q0 -26 -27.5 -37.5t-55 -2.5t-27.5 35v2q1 -4 8 -20q-63 99 -76.5 215t17.5 229t83 214t124 195z" />
    <glyph glyph-name="parenright" unicode=")" horiz-adv-x="269" 
d="M90 689q-7 17 10 29.5t36 14.5q49 0 63 -40q62 -182 46 -358q-22 -273 -225 -484q-23 -24 -64 -8q-35 13 -36 38q0 14 12 26q190 198 205 454q10 165 -47 328z" />
    <glyph glyph-name="asterisk" unicode="*" horiz-adv-x="346" 
d="M320 619q28 0 25 -35q-3 -38 -32 -61q-11 -8 -22 -11q10 -30 -25 -66q-32 -33 -54 -23q-8 4 -12 14l-21 48q-1 -2 -3.5 -5t-3.5 -6q-34 -46 -74 -39q-18 4 -21.5 21.5t8.5 33.5q2 2 5 7t6 8q-12 0 -20 -2q-33 -1 -36 35t23 61q13 12 28 13h16q-12 20 6 48t43 37.5
t43 -8.5q4 -6 10 -15.5t7 -11.5q24 21 45 35q50 36 71 7q9 -15 0 -35t-26 -32q-18 -14 -22 -18h36z" />
    <glyph glyph-name="plus" unicode="+" horiz-adv-x="532" 
d="M461 406q21 0 37 -11.5t13 -31.5q-4 -20 -24 -31.5t-40 -11.5q-63 0 -128 -3q-5 -34 -23 -133q-5 -29 -34.5 -37t-54.5 6t-20 40q3 21 10 60.5t11 60.5q-18 0 -53.5 -0.5t-52.5 -0.5h-5h-27q-21 0 -36.5 11t-12.5 31t23 31.5t41 11.5q67 0 138 3q17 91 26 149
q5 29 34.5 37t55 -6t20.5 -40q-4 -23 -12 -68.5t-12 -68.5q21 0 63.5 1t62.5 1z" />
    <glyph glyph-name="comma" unicode="," horiz-adv-x="211" 
d="M10 -45q27 31 30 53v1q-44 -6 -56 32q-12 39 20 67.5t71 17.5q39 -10 59.5 -36.5t14.5 -66.5q-6 -57 -56 -109q-15 -16 -35 -22.5t-41 2.5q-18 9 -20 28t13 33z" />
    <glyph glyph-name="hyphen" unicode="-" horiz-adv-x="370" 
d="M80 275q-22 0 -40 9.5t-19 29.5t16.5 33t37.5 13h235q21 0 39.5 -10t19.5 -30q1 -19 -16.5 -32t-37.5 -13h-235z" />
    <glyph glyph-name="period" unicode="." horiz-adv-x="157" 
d="M65 98q26 -12 32 -57q-3 -20 -19 -32.5t-38 -14.5q-21 -3 -40.5 12.5t-18.5 43.5t27.5 43.5t56.5 4.5z" />
    <glyph glyph-name="slash" unicode="/" horiz-adv-x="426" 
d="M406 726q21 28 46 23.5t31 -29t-10 -52.5q-48 -66 -95 -136t-98.5 -153.5t-83.5 -137.5t-93 -158t-85 -144q-10 -17 -27.5 -23.5t-34.5 5.5q-16 16 -15.5 36t10.5 40q25 43 105 178t119 199t105.5 167t125.5 185z" />
    <glyph glyph-name="zero" unicode="0" horiz-adv-x="557" 
d="M399 257q9 27 18 65.5t16.5 85.5t4 87.5t-20.5 57.5l-8 8l-9.5 9.5t-9 8.5t-9.5 8.5t-9.5 7.5t-11 7.5t-10 5.5t-11 4.5t-11.5 2.5q-18 0 -35 -10t-31.5 -30t-22.5 -33.5t-19 -35.5q-66 -136 -73 -224q-6 -93 11 -135q16 -42 51 -57t78 6q68 37 112 161zM346 703
q77 1 134 -59.5t57 -139.5q0 -268 -127 -412q-44 -49 -103.5 -76t-122.5 -19q-98 15 -128 114q-35 106 4 240q55 195 147 287q65 65 139 65z" />
    <glyph glyph-name="one" unicode="1" horiz-adv-x="356" 
d="M276 720q27 23 46.5 -2.5t11.5 -53.5q-58 -230 -126 -573h87q20 0 27.5 -16.5t2.5 -35.5q-8 -20 -25 -33.5t-38 -13.5h-270q-19 0 -27 18t-2 35q7 20 24 33t37 13h100q52 271 99 470q-51 -41 -109 -82q-33 -24 -50 10q-15 30 1 63q5 11 15 18q109 79 196 150z" />
    <glyph glyph-name="two" unicode="2" horiz-adv-x="445" 
d="M289 267q-47 -56 -123 -128q-10 -9 -29.5 -27t-29.5 -27q14 0 42 0.5t42 0.5q25 0 77 -0.5t79 -0.5q39 -1 40 -30q1 -28 -27 -48q-17 -10 -34 -10q-76 1 -225 1q-5 0 -20 -1t-26.5 -1.5t-28 0t-27.5 4t-21.5 9t-14.5 16t-2 24.5q4 28 47 62q30 25 68 61q77 72 133 136
q74 85 107 139q41 67 45 107q2 21 -16 40t-41 24q-62 12 -126 -36q-31 -24 -62 -7q-27 14 -18 40q6 14 21 26q39 30 85 48t98 21t93 -24q102 -62 54 -185q-39 -102 -160 -234z" />
    <glyph glyph-name="three" unicode="3" horiz-adv-x="437" 
d="M409 706q23 1 36 -18t11.5 -44t-15.5 -38q-45 -46 -178 -190q8 -3 22 -11q58 -34 79 -77q36 -86 8 -175q-18 -59 -60.5 -99.5t-96 -55t-113.5 -8.5t-113 34q-19 9 -29.5 27t-8.5 39q3 19 17.5 32t31.5 3q37 -19 80.5 -25.5t85 -1t75.5 30t48 65.5q10 31 10 55q0 7 -3 22
v2q0 1 -1 3l-1 2l-1 3l-1 1q-25 25 -35 29q-27 12 -95 8q-29 -1 -44 35.5t3 57.5q99 111 171 187q-25 1 -74.5 3t-72.5 2q-25 1 -39.5 28t-7 53.5t35.5 26.5q235 -8 275 -6z" />
    <glyph glyph-name="four" unicode="4" horiz-adv-x="503" 
d="M145 303q63 4 143 4q18 102 39 201q-15 -16 -45.5 -50.5t-47.5 -52.5q-12 -14 -42.5 -48.5t-46.5 -53.5zM469 303q19 -1 28.5 -16.5t2.5 -32.5q-7 -19 -26.5 -31t-40.5 -10q-46 2 -69 2q-10 -55 -32 -165q-4 -21 -19 -36.5t-36 -19.5q-19 -3 -32.5 9.5t-9.5 31.5
q21 97 36 182q-96 0 -224 -7q-28 -2 -41 16.5t4 43.5q20 29 43 57t59 68.5t48 53.5q24 28 67 76t79.5 88.5t67.5 76.5q12 14 34 18.5t38 -7.5q24 -17 2 -51q-21 -97 -66 -344q44 0 87 -3z" />
    <glyph glyph-name="five" unicode="5" horiz-adv-x="453" 
d="M422 707q32 1 46 -39q14 -39 -6 -60q-8 -9 -22 -9q-18 0 -64.5 -2.5t-72.5 -2.5q-6 0 -18 -0.5t-22 -0.5t-18 1q-27 -139 -32 -168q41 6 67 -2q75 -20 101 -82q26 -59 13.5 -136.5t-58.5 -126.5q-38 -41 -93.5 -62.5t-115.5 -20.5q-120 6 -142 50q-13 24 7.5 44.5t48 20
t42.5 -20.5q3 0 7 -3h4q27 -7 53 -7q73 4 106 46q27 34 36 88.5t-12 92.5q-13 20 -24 29.5t-29 8.5q-13 -1 -39 -4.5t-40 -4.5q-19 -1 -34.5 11.5t-13.5 30.5q7 44 52 276q4 21 28 33q15 34 47 18q8 -4 21 -5.5t22.5 -1t24 2t19.5 1.5q95 5 111 5z" />
    <glyph glyph-name="six" unicode="6" horiz-adv-x="506" 
d="M297 328q-76 -11 -145 -70v-3q0 -111 35 -157q11 -14 18 -18.5t23 -4.5q54 2 87 33q27 24 39.5 63t10.5 79q-2 54 -22 70q-9 5 -19 8h-27zM451 701q30 0 46 -21t6 -42.5t-44 -21.5h3h1h-1h-10q-6 -2 -11 -4q-23 -8 -38 -17q-40 -21 -81 -55q-92 -77 -137 -149
q128 52 219 -9q52 -34 66.5 -100.5t-6.5 -132.5t-66 -104q-42 -37 -102.5 -49.5t-114.5 5.5q-92 31 -122 139q-17 63 -15 128q-7 16 0 28q0 14 3 27q7 79 66 151q72 92 162 157q101 69 176 70z" />
    <glyph glyph-name="seven" unicode="7" horiz-adv-x="417" 
d="M429 716q23 4 36.5 -16.5t11 -46.5t-19.5 -39q-5 -7 -10 -10q-16 -11 -29 -28t-28.5 -47.5t-19.5 -36.5q-87 -145 -101 -167q-15 -26 -83.5 -139.5t-104.5 -174.5q-21 -36 -53 -14q-27 19 -27 53q0 14 6 25q25 43 204 337q11 19 31 53t36.5 62t31.5 53q3 3 6 8.5t5 7.5
q-49 0 -74 -1h-101q-18 1 -26.5 1.5t-20.5 7t-18 18.5q-22 50 7 76q12 14 33 8q1 -1 4 -1h1h3v0q13 -1 37 -1q67 0 100 1q15 1 51 2t62.5 3t49.5 6z" />
    <glyph glyph-name="eight" unicode="8" horiz-adv-x="499" 
d="M314 441q2 1 12 8t14 10t12.5 9.5t13 12t8.5 12.5t5 14q1 8 7 22q-1 10 1 23q11 38 -33.5 55.5t-82.5 9.5q-22 -6 -45 -22t-31 -34q-15 -36 51 -112q9 -10 33 -30q2 1 15 9t20 13zM326 145q19 62 -9 96q-20 27 -65 58q-32 -16 -47 -26q-68 -35 -86 -65q-11 -15 -9.5 -42
t14.5 -42q20 -22 52.5 -29t64.5 -1q76 16 85 51zM400 707q48 -24 67 -69t5 -97q0 -1 -1.5 -4t-1.5 -4v-9q-15 -92 -116 -164q54 -47 65 -98q12 -62 -5.5 -124.5t-63.5 -96.5q-36 -27 -82 -42.5t-96.5 -12.5t-86.5 30q-48 35 -60 95t12 114q31 77 142 139q-27 31 -47 70
q-38 78 -18 143q20 62 82 102q109 72 205 28z" />
    <glyph glyph-name="nine" unicode="9" horiz-adv-x="511" 
d="M210 385q19 -13 42.5 -14t50 10t43.5 20.5t41 25.5q12 59 8 101q-3 32 -18 49t-48 24q-55 9 -95 4q-37 -6 -52 -25q-12 -19 -14 -45q-2 -34 1 -60q0 -3 1.5 -12.5t2 -12.5t2 -11t3 -11t3.5 -9.5t4.5 -9.5t6 -8t8 -8.5t10.5 -7.5zM452 658q49 -53 36 -151
q-17 -136 -50 -217q-87 -213 -353 -292q-18 -6 -32 6.5t-12 30.5q1 21 15.5 37t35.5 22q135 41 194 105q43 46 67 111q-179 -87 -250 28q-35 55 -34.5 138.5t35.5 135.5q61 92 175 92q129 2 173 -46z" />
    <glyph glyph-name="colon" unicode=":" horiz-adv-x="237" 
d="M217 457q0 -33 -17.5 -55t-50.5 -16q-20 3 -35 16.5t-12 32.5q5 56 53 64q21 0 39.5 -11t22.5 -31zM105 98q26 -12 32 -57q-3 -20 -19 -32.5t-38 -14.5q-21 -3 -40.5 12.5t-18.5 43.5t27.5 43.5t56.5 4.5z" />
    <glyph glyph-name="semicolon" unicode=";" horiz-adv-x="236" 
d="M211 482q11 -32 -4 -54q-7 -17 -27.5 -27.5t-41.5 -8.5q-29 2 -37.5 22.5t3.5 47.5q10 27 38.5 40t53.5 -2q7 -6 15 -18zM20 61q18 22 44 30.5t51 -7.5q28 -24 21 -69q-10 -51 -66 -107q-14 -13 -33 -14t-31 15q-20 33 19 72l-5 -6l1 1q7 8 9 10l-4 2q-5 3 -7 5
q-15 14 -13 33.5t14 34.5z" />
    <glyph glyph-name="less" unicode="&#x3c;" horiz-adv-x="517" 
d="M413 241q14 -7 17 -22.5t-3.5 -32t-18 -31.5t-26.5 -20.5t-29 0.5q-38 19 -149 64.5t-166 79.5q-22 17 -16 44t29 49q48 46 115.5 83.5t143 74t122.5 70.5q41 29 58 0q16 -25 -4 -57q-8 -13 -21 -22q-71 -53 -199 -114q-92 -49 -104 -56q39 -19 124 -54t127 -56z" />
    <glyph glyph-name="equal" unicode="=" horiz-adv-x="545" 
d="M524 478q1 -18 -18 -33.5t-39 -17.5q-129 -15 -382 -15q-20 0 -33.5 12.5t-5.5 31.5q6 20 27 30.5t43 10.5q223 0 352 15q21 3 39 -5t17 -29zM431 343q29 0 33 -35q4 -40 -22 -64q-14 -13 -33 -13q-23 0 -64.5 1t-76 1t-65.5 -2q-5 0 -41.5 -4t-64.5 -5q-25 -30 -52 -3
q-21 20 -24 48.5t20 55.5q12 11 28.5 13.5t30 -0.5t29.5 0q46 7 92 8.5t118 0t92 -1.5z" />
    <glyph glyph-name="greater" unicode="&#x3e;" horiz-adv-x="546" 
d="M505 410q22 -11 20.5 -32.5t-18 -44.5t-35.5 -31q-56 -26 -191.5 -79.5t-206.5 -89.5q-40 -20 -51 12q-11 31 12 62q10 13 24 20q96 49 278 120q-14 7 -105.5 52.5t-139.5 67.5q-14 7 -18 22.5t2 32.5t16.5 32t25.5 22t29 1q38 -18 111 -54.5t132 -64t115 -48.5z" />
    <glyph glyph-name="question" unicode="?" horiz-adv-x="408" 
d="M257 719q63 -2 105.5 -39.5t44.5 -99.5q3 -98 -90 -208q-7 -8 -53 -51.5t-67.5 -74t-27.5 -66.5q-4 -20 -19.5 -32t-33.5 -4t-24 27.5t-2 39.5q9 45 36.5 87.5t57.5 71t65.5 68t53.5 74.5q46 86 -24 95q-63 9 -123 -20q-12 -26 -36 -22q-3 1 -7 1q-39 8 -39 57
q0 34 35.5 57.5t75.5 32t72 6.5zM139 71q28 -25 21 -48q-3 -18 -20 -29t-37 -10q-24 0 -45.5 21t-15.5 47q13 29 43.5 35.5t53.5 -16.5z" />
    <glyph glyph-name="at" unicode="@" horiz-adv-x="938" 
d="M494 142q22 18 36 46t25.5 65.5t20.5 55.5q6 15 8 43q-7 2 -13 8q-21 20 -53 29.5t-64.5 0t-47.5 -39.5q-36 -65 -43 -132q-5 -19 -5 -60.5t17 -55.5q35 -27 119 40zM594 709q106 -9 187 -75t115.5 -164.5t14.5 -200.5q-9 -50 -28.5 -95.5t-48.5 -85.5t-72.5 -65.5
t-95.5 -30.5q-21 -1 -40.5 -1.5t-40 5t-34.5 18.5q-18 16 -21 47q-48 -36 -92 -49q-22 -8 -43.5 -11t-44 -1.5t-41 14t-28.5 35.5q-32 76 -5 198q25 113 72 164q41 43 91.5 64.5t105.5 14t99 -48.5h1q17 2 28.5 -7t11.5 -32q-1 -31 -8 -64q-1 -4 -2.5 -10.5t-1.5 -9.5
q-2 -6 -13.5 -46t-15 -55t-9.5 -45t-8 -54l-1 -24q36 -15 80.5 0.5t66.5 47.5q38 56 48 145q4 53 -12 113t-65 121t-124 89q-93 35 -272 -31q-84 -32 -133 -104.5t-65 -168.5q-14 -90 -14 -142q12 -131 93 -196q69 -55 183 -76t199 7q18 6 31.5 -7t11.5 -32q-3 -42 -52 -58
q-57 -17 -126.5 -17.5t-136.5 15t-127.5 49t-96.5 79.5q-121 152 -48 415q27 106 87 189.5t152 124.5q175 60 288 52z" />
    <glyph glyph-name="A" unicode="A" horiz-adv-x="552" 
d="M210 285q48 3 144 3q-20 119 -28 200q-16 -29 -116 -203zM488 60q14 -53 -22 -65q-18 -6 -35 7.5t-22 31.5q-13 51 -35 151q-179 -2 -226 -8q-33 -59 -99 -175q-11 -17 -29 -15.5t-31 15.5q-14 16 -17 37t7 39q49 88 166 292.5t177 315.5q6 12 19 15q3 1 10 1
q19 -1 33.5 -18.5t15.5 -37.5v-1v-6q8 -173 38 -348h12q26 2 35 -17.5t0 -43.5t-28 -35q22 -99 31 -135z" />
    <glyph glyph-name="B" unicode="B" horiz-adv-x="529" 
d="M439 495q14 34 -5.5 64t-56.5 36q-88 16 -152 -21q-16 -82 -30 -170q62 3 120 15q31 8 49.5 14.5t42 23t32.5 38.5zM375 263q-33 23 -102 37q-56 -7 -96 -8q-28 -150 -44 -211q113 -4 178 11q28 7 48 20l2 2l2 2q1 0 5 5l2 2q7 8 13 19q18 36 18 63q2 38 -26 58zM525 472
q-14 -80 -87 -123q16 -10 31 -25q27 -28 33 -66.5t-3 -74t-29 -69.5q-26 -48 -74.5 -77.5t-102 -37.5t-113 -10.5t-108.5 2.5q-2 0 -5.5 -0.5t-4.5 -0.5q-23 -2 -35 16q-10 15 -4 36l2.5 5t2.5 4q29 103 61 299.5t53 281.5q5 18 20 32t34 18q45 22 101.5 26.5t102.5 -9.5
q70 -21 103.5 -87t21.5 -140z" />
    <glyph glyph-name="C" unicode="C" horiz-adv-x="505" 
d="M517 692q25 -8 28 -37.5t-15.5 -53.5t-43.5 -16q-181 53 -269 -49q-66 -74 -86 -204q-19 -108 25 -173q65 -95 251 -54q19 3 29.5 -15.5t8.5 -36.5q-2 -21 -14 -37t-32 -20q-45 -10 -87.5 -11.5t-85.5 6t-80 31t-60 62.5q-64 107 -39 248q33 197 127 289q130 131 343 71z
" />
    <glyph glyph-name="D" unicode="D" horiz-adv-x="597" 
d="M480 334q45 176 -37 247q-39 35 -121 35q-63 2 -94 -4q-1 0 -1 -2q-64 -316 -98 -517q144 -13 230 49q84 60 121 192zM512 667q45 -36 66 -94.5t19 -115.5t-19 -114q-58 -194 -188 -281q-136 -90 -341 -59q-30 8 -28 32t25 46q-2 11 0 23q29 171 92 490q-9 5 -14 16
q-8 19 2.5 37.5t29.5 29.5q62 38 186 36q116 -4 170 -46z" />
    <glyph glyph-name="E" unicode="E" horiz-adv-x="505" 
d="M488 710q20 1 37.5 -9t18.5 -29q2 -19 -15 -31.5t-37 -13.5q-83 -2 -249 -2q-22 -132 -33 -197h63.5t63.5 2t64 3q26 1 40.5 -26t7 -55t-33.5 -28q-183 -7 -225 -5q-4 -22 -45 -215q86 -6 243 7q26 3 39 -23.5t5.5 -55.5t-33.5 -31q-194 -18 -323 1q-24 4 -32.5 34.5
t3.5 52.5q63 277 105 570v4v1q-1 14 10 25t26 15q31 17 50 4q167 0 250 2z" />
    <glyph glyph-name="F" unicode="F" horiz-adv-x="521" 
d="M527 703q20 0 37 -13t16 -32q-1 -20 -19 -29t-40 -9h-269q-4 -19 -22 -94t-27 -116q23 0 95.5 2t112.5 2q26 0 39 -27.5t4.5 -55t-34.5 -27.5q-40 0 -121 -2t-122 -3q-37 -168 -49 -249q-4 -21 -17 -38t-33 -17q-19 -1 -29.5 17t-7.5 37q21 121 58 280q-10 21 -5.5 46.5
t23.5 31.5q5 20 23.5 99t27.5 121q-27 16 -26 39q2 19 19.5 28t39.5 9h17q2 1 4 1q4 0 6 -1h299z" />
    <glyph glyph-name="G" unicode="G" horiz-adv-x="602" 
d="M254 562q-71 -62 -94 -164q-40 -163 23 -253q32 -47 93 -62q66 -17 125 32q16 79 39 164h-23.5h-28h-23.5q-19 -1 -32 12.5t-9 31.5q6 20 24.5 31.5t39.5 12.5q13 0 37 -0.5t43 0t35 3.5q23 4 42 -8t13 -35q-46 -159 -62 -274q-4 -27 -36.5 -38t-54.5 4
q-68 -37 -151.5 -28.5t-139.5 67.5q-38 39 -56.5 96.5t-17 114t12.5 113.5q34 152 138 236q73 61 171 77.5t189 -9.5q39 -9 29 -43q-8 -28 -39 -41q-17 -7 -33 -4q-165 40 -254 -36z" />
    <glyph glyph-name="H" unicode="H" horiz-adv-x="664" 
d="M607 699q18 -4 29 -24.5t7 -39.5q-27 -155 -116 -600q-12 -54 -47 -44q-18 4 -29 24.5t-7 39.5q8 44 25.5 132t26.5 132h-300q-36 -180 -57 -270q-13 -49 -55 -55q-18 -3 -32.5 9.5t-9.5 31.5q26 111 62 290q-17 13 -11.5 38t27.5 41q22 115 50 243q5 21 19.5 37t35.5 19
q19 3 33 -9t10 -32q-19 -82 -53 -248l150 -1q150 -1 150 1q27 135 45 241q11 53 47 44z" />
    <glyph glyph-name="I" unicode="I" horiz-adv-x="279" 
d="M162 642q7 48 51 60q18 4 33 -7.5t12 -30.5q-64 -370 -123 -623q-8 -32 -42 -43q-33 -11 -47 11q-8 14 -3 36q63 261 119 597z" />
    <glyph glyph-name="J" unicode="J" horiz-adv-x="327" 
d="M219 660q6 21 20.5 36.5t33.5 14.5t27.5 -18.5t5.5 -36.5q-4 -16 -14 -80q-54 -330 -114 -469q-86 -198 -203 -110q-18 19 -13.5 46.5t28.5 44.5t46 0q7 -5 14.5 -6t14 3t12.5 10t11.5 15t9.5 17.5t8 19t7 17.5t5 14q1 2 1 3q7 20 25 87q17 71 40 203.5t35 188.5z" />
    <glyph glyph-name="K" unicode="K" horiz-adv-x="552" 
d="M563 641q-123 -171 -262 -273q30 -37 74 -113q33 -55 94 -172q16 -29 -10 -67q-23 -33 -47 -24q-10 3 -17 17q-72 135 -91 165q-1 2 -11 19t-13 22t-11.5 19.5t-14 21.5t-14 18t-16 19t-16.5 15l-18 -9q-6 -2 -8 -3q-27 -119 -62 -253q-5 -20 -22.5 -34t-38.5 -15
q-19 -1 -30 12.5t-7 32.5q53 197 80 337q4 20 13.5 64.5t15 70t11.5 63t8 68.5q1 21 14.5 37.5t33.5 22.5q19 4 36.5 -4t16.5 -27q-4 -57 -39 -238q157 99 286 282q25 35 53 8q24 -23 20 -59q-2 -13 -8 -23z" />
    <glyph glyph-name="L" unicode="L" horiz-adv-x="496" 
d="M475 46q4 -18 -12 -30.5t-35 -12.5h-346q-20 0 -39 11.5t-22 30.5q-4 26 24 38q30 82 51.5 173t45.5 222.5t34 178.5q7 31 48 40t57 -13q8 -10 5 -25q-7 -36 -33 -174.5t-47 -225.5t-50 -171h258q22 -1 40 -11.5t21 -30.5z" />
    <glyph glyph-name="M" unicode="M" horiz-adv-x="798" 
d="M768 674q11 -11 9 -29q-7 -76 -22 -166t-28 -152.5t-36.5 -167.5t-34.5 -156q-5 -25 -34.5 -33t-55 5.5t-19.5 40.5q9 42 32.5 147t39 181t27.5 148q-27 -32 -79 -92.5t-93.5 -110.5t-75.5 -97q-34 -43 -64 -26q-10 5 -16 21q-7 7 -10 16q-28 77 -74 251
q-38 -189 -89 -405q-12 -45 -57 -53q-18 -3 -35 8t-12 30q82 347 131 628q-3 23 20 40.5t51 15.5t36 -26q25 -71 61 -204t48 -174q32 39 90 106.5t105 124.5t85 111v2q3 21 23 29q28 41 60 22q17 -10 17 -35z" />
    <glyph glyph-name="N" unicode="N" horiz-adv-x="682" 
d="M550 639q4 26 34 35.5t56 -2t21 -37.5q-36 -209 -133 -613q-6 -24 -35.5 -29t-53.5 11t-17 43l3 12q-34 64 -69 138t-75.5 164.5t-64.5 140.5q-53 -252 -84 -447q-5 -33 -39 -48q-32 -13 -46 8q-9 12 -5 33q49 314 119 606q4 21 19 37.5t35 17.5q19 1 29.5 -14.5
t6.5 -34.5l-3 -15q37 -75 105 -226t104 -224q64 269 93 444z" />
    <glyph glyph-name="O" unicode="O" horiz-adv-x="638" 
d="M97 532q46 84 127.5 127.5t184.5 43.5q97 0 151 -70q29 -37 44 -91.5t14 -106t-9 -101.5q-28 -149 -161 -262q-62 -55 -132 -82t-138 -6q-40 12 -68.5 43t-42.5 73.5t-20 81.5t-6 82q-2 163 56 268zM269 582q-91 -30 -117 -191q-21 -130 12 -238q24 -69 69 -84
q73 -29 180 85q110 122 96 280q-12 179 -127 179q-45 0 -113 -31z" />
    <glyph glyph-name="P" unicode="P" horiz-adv-x="580" 
d="M482 472q30 81 -26 129q-25 24 -80 29q-42 5 -102 -2q-28 -157 -55 -282q85 -18 151 11q21 10 39 23q16 9 33 28q30 34 40 64zM545 663q41 -35 51.5 -91.5t-9.5 -104.5q-43 -115 -152.5 -170.5t-233.5 -38.5q-28 -134 -57 -257q-5 -21 -20 -35t-36 -17q-19 -3 -35 7.5
t-12 29.5q28 117 64 296q-5 2 -12 6q-25 11 -25.5 31t17 36.5t39.5 18.5q33 164 53 269q-3 5 -3 11q0 13 11 28q4 20 19.5 34t36.5 17q30 4 44 -18q171 23 260 -52z" />
    <glyph glyph-name="Q" unicode="Q" horiz-adv-x="633" 
d="M186 110q67 -23 138 2q-3 3 -12.5 12t-15.5 14q-2 -2 -4 -3q-17 -10 -40 -8.5t-38 14.5q-14 13 -13 31t17 28q64 37 114 20q9 -3 17.5 -7t17.5 -12l13.5 -12t15.5 -15l13 -13q1 0 1 -1q51 45 75 95q63 130 25 250q-15 48 -34 69t-64 25q-47 6 -108.5 -6.5t-102.5 -41.5
q-2 -4 -4 -12q-64 -142 -68 -278v-60t14 -55t43 -36zM631 32q5 -18 -9.5 -32.5t-33.5 -15.5q-101 -3 -175 47q-55 -27 -111.5 -35.5t-114.5 8t-95 63.5q-64 81 -48 247q8 81 26 149q-6 17 -6 35q5 87 79 140.5t169 66.5q103 17 177 -25q85 -48 111 -194q20 -102 -7.5 -215
t-99.5 -184q34 -21 71 -21q56 2 67 -34z" />
    <glyph glyph-name="R" unicode="R" horiz-adv-x="557" 
d="M446 512q8 85 -53 112q-49 20 -124 4q-12 -44 -64 -261q46 0 82 5t73 19.5t59.5 45t26.5 75.5zM463 691q52 -24 75 -72t18 -108q-13 -157 -192 -205q17 -25 47 -86q10 -22 32.5 -80.5t36.5 -88.5q13 -28 -7.5 -45.5t-50.5 -14.5t-41 26q-13 30 -35.5 84.5t-27.5 67.5
q-21 51 -37 78q-9 18 -15 26l-9 9l2 -1q-2 2 -4 3.5t-3 2.5q-44 -2 -66 -2q-35 -149 -64 -256q-10 -40 -40 -37q-26 2 -38 31q-7 17 -2 36q26 98 69.5 282.5t64.5 266.5q-35 0 -46 24q-9 17 2 33.5t29 21.5q57 16 101.5 23.5t101 4.5t99.5 -24z" />
    <glyph glyph-name="S" unicode="S" horiz-adv-x="454" 
d="M475 693q21 -17 17.5 -43.5t-27.5 -45.5t-47 -6q-47 31 -127.5 22.5t-116.5 -55.5q-7 -9 -9.5 -25t5.5 -36q23 -35 82 -82t74 -62q40 -42 62 -90t18 -103t-41 -100q-104 -129 -376 -66q-27 6 -28 34t19 51.5t45 17.5q34 -8 70.5 -12.5t88 -6t88 15.5t44.5 52
q12 49 -58 121q-18 18 -76.5 63.5t-81.5 79.5q-36 53 -32 100t31 86.5t75 66.5t100 41t106.5 10t94.5 -28z" />
    <glyph glyph-name="T" unicode="T" horiz-adv-x="511" 
d="M514 706q38 0 53 -32q13 -28 -11 -44q-12 -8 -31 -8q-31 0 -92 -0.5t-92 -0.5q-17 -100 -58.5 -296t-58.5 -294q-7 -40 -39 -36q-27 3 -41 32q-9 17 -5 35q16 96 55.5 282t54.5 276q-25 0 -75.5 -0.5t-75.5 -0.5q-38 0 -53 31q-14 29 9 45q13 9 33 9q71 0 213 1t214 1z
" />
    <glyph glyph-name="U" unicode="U" horiz-adv-x="573" 
d="M493 656q7 31 44 42t51 -11q8 -12 3 -31q-17 -72 -52 -269q-26 -140 -48 -197q-38 -93 -116.5 -147.5t-176.5 -45.5q-48 5 -81.5 28.5t-50 60t-22 77t-2.5 87.5q5 64 21 143.5t28.5 122.5t40.5 140q10 31 48 42q37 10 50 -12q6 -11 1 -30q-2 -7 -16.5 -55.5t-18.5 -62
t-15 -54t-15.5 -62.5t-10 -55t-8.5 -62q-22 -208 79 -213q81 -7 126 34q18 15 31 44q13 28 25 63q21 75 45.5 218.5t39.5 204.5z" />
    <glyph glyph-name="V" unicode="V" horiz-adv-x="519" 
d="M469 684q17 22 45 23t50 -18t10 -42q-17 -34 -64 -125t-71 -137.5t-63.5 -120.5t-74.5 -136t-71 -122q-19 -30 -57 -12.5t-44 46.5q-56 328 -88 633q-3 31 31 35q35 4 62 -21q13 -13 15 -28q27 -245 61 -469q58 105 259 494z" />
    <glyph glyph-name="W" unicode="W" horiz-adv-x="734" 
d="M753 726q19 -1 30.5 -19.5t9.5 -37.5q-4 -31 -13 -63.5t-24.5 -68.5t-26.5 -59.5t-32.5 -65t-29.5 -57.5q-12 -23 -74 -144t-93 -187q-14 -30 -43 -24.5t-33 38.5q-10 92 -22 262t-15 210q-147 -291 -233 -506q-6 -14 -19.5 -22t-27.5 -2q-26 9 -30 54q-5 89 -18 299.5
t-18 323.5q-2 19 10.5 36.5t31.5 16.5q20 0 30 -17t11 -38q4 -84 13 -237t12 -199q95 212 228 467q16 30 44 24t32 -39q9 -69 15.5 -142t13.5 -177t10 -143q16 32 48 94l48 93q67 137 83 174q20 46 28 70q1 2 2 5t3 8t3 9q0 1 1 6l3 10q0 -1 -1 -7q5 55 43 55z" />
    <glyph glyph-name="X" unicode="X" horiz-adv-x="510" 
d="M463 679q21 26 65 17q37 -8 41 -31q2 -13 -9 -26q-86 -110 -234 -284q83 -202 115 -294q11 -31 -20 -63q-29 -29 -51 -16q-10 6 -15 20q-35 98 -102 264q-119 -141 -207 -255q-20 -26 -64 -17q-37 7 -41 32q-2 12 9 26q87 111 259 319q-72 174 -104 258q-11 31 19 63
q28 29 52 16q10 -5 16 -20q22 -61 91 -229q97 114 180 220z" />
    <glyph glyph-name="Y" unicode="Y" horiz-adv-x="479" 
d="M461 705q25 30 55 2q27 -25 23 -59q-2 -13 -10 -22q-51 -63 -140.5 -186.5t-132.5 -177.5q-2 -3 -5 -6q-25 -147 -42 -217q-5 -21 -19 -37.5t-34 -17.5q-19 -1 -30.5 14t-6.5 34q16 67 44 235q-2 3 -5 9q-23 69 -61.5 198t-54.5 178q-8 25 15 44.5t52.5 18t37.5 -26.5
q17 -52 45.5 -148.5t41.5 -137.5q21 29 69 95t85 115t73 93z" />
    <glyph glyph-name="Z" unicode="Z" 
d="M546 690q18 -7 20 -25.5t-11 -32.5q-84 -104 -245 -289.5t-224 -261.5q54 1 152.5 -1.5t136.5 -2.5q20 0 38 -14.5t19 -33.5q1 -20 -15 -28.5t-37 -8.5q-42 0 -119 2t-140 2t-119 -4q-22 -2 -42 8t-27 29q-7 17 4.5 31.5t30.5 16.5q77 94 229 268.5t221 257.5
q-202 -2 -303 -2q-35 -1 -37 34q-2 34 24 57q14 12 30 12q63 0 189 1t189 1q20 0 30 -13z" />
    <glyph glyph-name="bracketleft" unicode="[" horiz-adv-x="304" 
d="M402 755q6 -19 -9 -32.5t-35 -16.5q-44 -5 -112 -1q-6 -15 -10 -34t-6 -32.5t-4.5 -36.5t-3.5 -34q-18 -114 -38 -204q-13 -61 -30 -129.5t-38.5 -151.5t-33.5 -129h53q20 0 31.5 -14.5t11.5 -35.5q0 -20 -12.5 -41t-31.5 -21h-121q-30 0 -44 23t-5 65q16 77 57 231.5
t57 233.5q19 88 36 208q13 98 34 140q-2 3 -2 11q4 38 59 38q13 2 24 0q76 -4 107 0q20 2 40.5 -8t25.5 -29z" />
    <glyph glyph-name="backslash" unicode="\" horiz-adv-x="524" 
d="M46 650q-19 42 17 73q14 13 34 16t33 -14q249 -542 368 -765q17 -31 -13 -67q-27 -34 -53 -25q-10 4 -17 16q-32 61 -67 129t-60.5 121t-64 134t-57.5 122.5t-62 134t-58 125.5z" />
    <glyph glyph-name="bracketright" unicode="]" horiz-adv-x="301" 
d="M190 808q69 -7 91 -21q24 -19 18 -52q-109 -527 -158 -815q-2 -8 -2.5 -35t-8 -40.5t-28.5 -13.5h-152q-26 0 -40.5 28t-7 56t33.5 28h117q34 201 147 765q-76 0 -97 7q-23 8 -26 32t17 41q29 26 96 20z" />
    <glyph glyph-name="asciicircum" unicode="^" horiz-adv-x="447" 
d="M441 424q16 -30 -9 -64q-23 -32 -49 -22q-12 4 -20 19q-46 80 -106 213q-89 -125 -183 -236q-31 -35 -57 -10q-23 22 -14 57q4 14 13 25q116 135 223 295q16 21 37.5 19t31.5 -22q71 -164 133 -274z" />
    <glyph glyph-name="underscore" unicode="_" horiz-adv-x="425" 
d="M-58 -218q-20 0 -32.5 14.5t-7.5 32.5q6 20 25.5 31.5t41.5 11.5q66 2 197 0t197 0q20 2 32.5 -13t7.5 -34q-12 -39 -67 -43q-63 -2 -197 0.5t-197 -0.5z" />
    <glyph glyph-name="grave" unicode="`" horiz-adv-x="199" 
d="M52 621q-21 19 -6.5 45t42 34.5t50.5 -6.5q12 -11 21.5 -26.5t14 -26.5t11.5 -32t11 -30q14 -40 -31 -66q-13 -9 -38 -7.5t-32 18.5q-3 7 -9.5 32t-14 40t-19.5 25z" />
    <glyph glyph-name="a" unicode="a" horiz-adv-x="510" 
d="M245 131q76 129 92 297q-22 8 -34 8q-37 0 -68 -23t-65 -64q-36 -53 -53 -116.5t1 -117.5q7 -19 22.5 -33.5t32.5 -14.5h9q33 13 63 64zM449 124q32 21 51 -13q18 -32 4 -63q-6 -12 -15 -18q-81 -52 -125 -37q-38 15 -54 65q-18 -19 -34 -33q-46 -36 -103.5 -39t-104 29
t-60.5 90q-13 54 -3 113t37.5 110t69 95t92.5 67t107 26t113 -27q22 -12 22 -47q0 -8 -1 -16.5t-2.5 -19t-2.5 -16.5q-17 -108 -50 -197q-13 -74 -1 -95q12 -4 60 26z" />
    <glyph glyph-name="b" unicode="b" horiz-adv-x="522" 
d="M375 319q4 21 2 55.5t-19 49.5q-6 10 -22.5 7t-31 -8.5t-35 -18.5t-34.5 -22.5t-29 -20.5t-18 -13q-33 -142 -56 -261q92 -24 142 7q88 55 101 225zM449 482q40 -48 30 -152q-21 -231 -165 -307q-121 -63 -296 3q-18 7 -18 26t12 33q11 9 24 16q5 34 61 276.5t57 266.5
q4 20 19 34t36 18q18 3 34 -7t12 -29q-17 -102 -40 -193q56 33 111 44q84 16 123 -29z" />
    <glyph glyph-name="c" unicode="c" horiz-adv-x="387" 
d="M348 511q25 -10 28.5 -40t-12.5 -52.5t-40 -13.5q-86 35 -151 -26q-61 -50 -83 -142q-8 -35 -5.5 -69.5t25 -62t59.5 -31.5q14 -1 31 3.5t45 16.5t32 14q35 14 46 -22q12 -34 -8 -63q-8 -11 -20 -16q-166 -65 -246 18q-70 74 -41 219q12 58 42 114t75 101t101.5 60.5
t121.5 -8.5z" />
    <glyph glyph-name="d" unicode="d" horiz-adv-x="458" 
d="M193 86q40 17 92 72q17 130 42 253q-48 18 -96 10q-38 -10 -67.5 -38t-44.5 -67q-17 -50 -18 -94q-3 -108 49 -136q19 -10 43 0zM380 658q7 31 44 41q36 11 49 -11q7 -11 3 -29q-78 -327 -107 -610q-3 -43 -50 -57q-18 -4 -34.5 5t-15.5 28q0 2 1 6t1 6q-14 -9 -16 -11
q-36 -21 -71.5 -31t-74 -1.5t-63.5 41.5q-62 76 -41 203q23 148 119 222q96 73 222 48q29 129 34 150z" />
    <glyph glyph-name="e" unicode="e" horiz-adv-x="462" 
d="M195 402q-41 -34 -58 -77q-1 -3 -3.5 -10t-3.5 -10q143 -13 200 44q20 22 9.5 44t-37.5 31q-31 8 -59.5 0.5t-47.5 -22.5zM359 268q-95 -67 -242 -58q3 -49 24 -82q24 -41 61 -47q44 -9 107 22q17 8 34 0t19 -27q4 -38 -44 -61q-27 -15 -63 -23q-79 -20 -141 15t-83 113
q-20 77 -1.5 159t69.5 143q62 73 150 95q53 14 104.5 -1.5t75.5 -60.5q19 -34 11 -70t-29 -65.5t-52 -51.5z" />
    <glyph glyph-name="f" unicode="f" horiz-adv-x="264" 
d="M365 667q28 -19 16 -62q-10 -35 -35 -41q-13 -2 -26 6q-33 24 -60 25q-16 0 -26 -7q-27 -22 -45 -79q-1 -4 -2.5 -11t-2.5 -10h76q35 -1 34 -34q-1 -34 -29 -55q-14 -10 -28 -10h-72q-3 -18 -7 -53.5t-6 -51.5q-4 -28 -13 -107t-15 -121q-15 -120 -42 -185
q-34 -83 -94 -104q-58 -20 -147 27q-20 15 -20.5 42t20.5 47.5t45 7.5q17 -10 35.5 -16.5t39 -7.5t28.5 11q31 37 46 137q12 68 41 334q0 2 6 41q-6 0 -20 -0.5t-20 -0.5q-34 -2 -34 30q1 33 29 57q13 11 28 12q23 0 35 1q17 82 51 134q35 63 94 76q54 13 120 -32z" />
    <glyph glyph-name="g" unicode="g" horiz-adv-x="465" 
d="M195 114q47 26 93 74q3 16 8 48.5t7 48.5q10 76 19 112q-84 28 -142 -23q-63 -53 -81 -153q-22 -123 32 -126q24 -1 64 19zM392 482q27 2 43.5 -11.5t5.5 -38.5q-11 -24 -20 -77q-4 -24 -16 -104q-24 -164 -49 -242q-42 -127 -122 -173q-106 -61 -251 -3
q-18 7 -21.5 24.5t9.5 31.5q13 15 34.5 20t40.5 -3q56 -23 98 -19q35 0 70.5 42t41.5 103q-26 -17 -47 -26q-24 -11 -47.5 -16.5t-50.5 -1t-45 22.5q-73 70 -49 222q26 154 117 232q54 46 125 49t133 -32z" />
    <glyph glyph-name="h" unicode="h" horiz-adv-x="505" 
d="M457 452q4 -12 5.5 -26.5t2 -24t-2 -28.5t-3.5 -24.5t-6 -28t-5 -23.5q-60 -268 -62 -279q-5 -23 -33 -28.5t-52.5 10t-19.5 41.5q6 30 53 235q22 101 20 139q0 10 -2 17l-2 3l2 -1l-2 2q-10 2 -18 1q-74 -3 -182 -100l-1 -1q-63 -292 -70 -323q-5 -18 -21.5 -25.5
t-32.5 1.5q-35 22 -21 73q39 172 61 286q-18 22 9 48q2 1 3 1q31 150 63 278q5 18 21 26.5t33 -1.5q34 -23 21 -73q-6 -25 -18.5 -77t-18.5 -77q77 42 148 46q108 2 131 -67z" />
    <glyph glyph-name="i" unicode="i" horiz-adv-x="215" 
d="M93 476q7 32 49 37q39 5 56 -17q7 -12 4 -25q-90 -432 -93 -446q-7 -32 -49 -37q-40 -4 -55 18q-7 11 -4 24q19 86 51 245t41 201zM232 688q23 -28 23 -60q-7 -59 -71 -62q-20 0 -43 15q-19 13 -26 39.5t3 47.5q12 28 52.5 37.5t61.5 -17.5z" />
    <glyph glyph-name="j" unicode="j" horiz-adv-x="194" 
d="M98 447q8 38 36 38q27 1 40 -26q8 -17 4 -37q-12 -57 -35.5 -173.5t-36.5 -177.5q-31 -139 -50 -192q-46 -121 -154 -108q-19 3 -30 21t-11 41q-2 21 8 35t29 11q28 -2 41 -1q5 0 9 1.5t8 5t7 6.5t6 8.5t5 9.5t5 10.5t4 10t3 10t3 8.5q17 54 44 183q13 61 36.5 176.5
t28.5 139.5zM209 669q25 -16 25 -43t-19 -49.5t-44 -27.5q-31 -4 -48.5 21t-6.5 57q7 20 18 33t30.5 18.5t44.5 -9.5z" />
    <glyph glyph-name="k" unicode="k" horiz-adv-x="417" 
d="M405 418q-4 -4 -61 -71t-92 -94q51 -62 101 -194q8 -19 3.5 -39.5t-19.5 -34.5q-15 -12 -32.5 -8.5t-24.5 20.5q-44 111 -74 154q-25 34 -52 54q-3 -2 -18 -4l-15 -78t-15 -77q-5 -20 -19.5 -35t-34.5 -14q-19 1 -26.5 18t-4.5 37q9 43 43 215q0 1 3 19q47 251 74 369
q5 20 19.5 35.5t33.5 14.5t27 -18.5t4 -36.5q-6 -29 -67 -329q35 15 65.5 43t71 77.5t49.5 59.5q27 29 54 -2q24 -27 17 -61q-2 -12 -10 -20z" />
    <glyph glyph-name="l" unicode="l" horiz-adv-x="283" 
d="M153 666q8 32 51 35q40 3 55 -20q6 -10 3 -22q-13 -64 -40 -182.5t-33 -143.5q-1 -5 -8.5 -35.5t-12 -51t-10 -50t-8 -52.5t-1.5 -38q1 -14 5.5 -17.5t17.5 -2.5q21 2 40.5 -6.5t25.5 -26.5t-7 -30t-34 -17q-80 -19 -124 14q-36 27 -32 103q4 54 35 198q65 287 77 345z
" />
    <glyph glyph-name="m" unicode="m" horiz-adv-x="748" 
d="M706 397q7 -69 -21 -197q-19 -82 -52 -179q-8 -25 -38.5 -27.5t-53.5 15t-14 41.5q23 66 35.5 107t25 102t12.5 110q0 40 -7 56q-2 0 -17 -6q-8 -3 -40 -20q-44 -28 -99 -76q-2 -46 -11 -93.5t-26.5 -116.5t-22.5 -91q-6 -25 -35.5 -31.5t-54 7.5t-18.5 39q5 21 21 85
t25 108.5t13 87.5q-20 24 1 45q0 18 -1 33q-2 14 -4 19q-1 1 -3 6l-1 3q0 3 -2 5q-11 -3 -14 -4l-3 -1q-3 -2 -8.5 -4.5t-6.5 -3.5q-5 -2 -12 -6.5t-10 -5.5q-52 -35 -105 -85q-6 -29 -25.5 -132t-32.5 -158q-4 -19 -20.5 -32.5t-33.5 -7.5q-19 5 -24.5 26t1.5 37
q10 42 47 245q-22 9 -28.5 24.5t9.5 34.5q20 16 37 34l9 39t9 38q4 19 20.5 32.5t33.5 7.5q26 -7 26 -41l7 3.5t7 4.5q66 39 111 38q80 -2 111 -69q83 63 152 67q52 1 88 -30t43 -83z" />
    <glyph glyph-name="n" unicode="n" horiz-adv-x="504" 
d="M452 443q11 -38 11.5 -80t-8.5 -85.5t-19 -80t-25 -84t-22 -77.5q-5 -21 -20.5 -36t-35.5 -16q-19 -2 -31.5 10.5t-8.5 31.5q7 26 23 79.5t23 81.5q1 3 5.5 21.5t5.5 23.5t4.5 22t4.5 24t3.5 22t2.5 25t-0.5 22.5t-1.5 23.5q-8 69 -73 37q-48 -27 -123 -90
q-21 -144 -62 -282q-5 -21 -18.5 -36.5t-32.5 -14.5t-28.5 19t-3.5 36q36 127 56 251q-1 0 -1 2q-12 16 -7 33.5t19 31.5q8 55 11 98q2 19 18 35.5t35 15.5q34 -1 32 -55l-3 -15q61 42 103 60q33 14 66 15.5t62 -16t39 -53.5z" />
    <glyph glyph-name="o" unicode="o" horiz-adv-x="476" 
d="M24 171q-14 84 19.5 172.5t100.5 130.5q105 68 174 39q74 -30 100.5 -114t11.5 -171q-15 -90 -70.5 -163.5t-139.5 -86.5q-79 -14 -132 47.5t-64 145.5zM273 415q-36 2 -66.5 -16t-49.5 -46t-29 -50.5t-15 -40.5q-5 -29 -7 -69.5t17 -76.5t54 -36q36 0 73 28
q56 41 81.5 101.5t16.5 129.5q-5 38 -22.5 60t-52.5 16z" />
    <glyph glyph-name="p" unicode="p" horiz-adv-x="508" 
d="M362 294q2 51 -9 82q-9 23 -24.5 32t-34.5 4t-36.5 -15t-34.5 -24q-30 -26 -46 -42q-7 -33 -22.5 -110t-24.5 -118q29 -25 73 -20t79 31q32 23 54 77t26 103zM426 465q47 -58 41 -137.5t-46.5 -157.5t-93.5 -120q-91 -72 -216 -44q-28 -124 -45 -184q-6 -24 -35 -29
t-52.5 11t-16.5 43q24 91 47 196t48 232.5t40 197.5q4 22 30 28t50.5 -6.5t24.5 -35.5l2 1q37 24 73.5 36t78 6.5t70.5 -37.5z" />
    <glyph glyph-name="q" unicode="q" horiz-adv-x="519" 
d="M169 94q72 -3 144 75q8 35 26 112t27 118q-62 28 -113.5 7t-87 -73t-41.5 -112q-16 -125 45 -127zM441 475q20 -1 31 -12.5t5 -32.5q-8 -41 -55.5 -249.5t-59.5 -322.5q-3 -29 -41 -44q-39 -14 -57 4q-9 9 -7 24q7 84 30 202q-89 -55 -168 -38q-45 8 -70 42t-27 75.5
t2 84.5q23 160 141 242q65 46 136 54t140 -29z" />
    <glyph glyph-name="r" unicode="r" horiz-adv-x="375" 
d="M369 503q36 -11 23 -46q-12 -30 -43 -42q-16 -6 -30 -1q-11 4 -22 4.5t-22.5 -4t-19 -8t-19.5 -13.5t-17 -14.5t-17.5 -17l-15.5 -15.5q-49 -253 -67 -323q-8 -30 -45 -38q-36 -8 -50 16q-6 12 -2 30q22 84 52.5 244.5t35.5 185.5q4 21 19 35.5t36 16.5q18 3 33.5 -7.5
t12.5 -29.5q0 -2 -1 -4q83 55 159 31z" />
    <glyph glyph-name="s" unicode="s" horiz-adv-x="340" 
d="M315 502q28 -15 24 -57q-3 -37 -28 -45q-12 -3 -27 5q-29 18 -77 15.5t-74 -28.5q-10 -9 -12.5 -18t2 -16.5t13 -15t20.5 -15t22.5 -13t21.5 -12t17 -11.5q60 -47 71 -94q13 -57 -7 -108t-70 -81q-100 -61 -225 -4q-22 10 -25.5 39.5t13 49.5t43.5 8q31 -13 67.5 -15.5
t71.5 11t51 44.5q12 23 -14 48q-16 14 -56 39.5t-57 43.5q-48 51 -42 119t66 106q46 29 105 30t106 -25z" />
    <glyph glyph-name="t" unicode="t" horiz-adv-x="318" 
d="M337 468q1 -19 -15 -30.5t-36 -13.5q-34 -4 -103 -4q-37 -158 -48 -229q-7 -56 -7 -74q0 -68 68 -24q23 15 42.5 -2t19 -42.5t-20.5 -40.5q-104 -64 -157 -5q-43 48 -34 165q9 104 46 252q-6 0 -17.5 -1t-16.5 -1q-54 0 -57 36q-2 19 14.5 32t35.5 14h61l21 96
q8 40 40 35q27 -5 39 -35q7 -16 4 -33l-14 -63q64 2 77 4q19 2 37.5 -7.5t20.5 -28.5z" />
    <glyph glyph-name="u" unicode="u" horiz-adv-x="493" 
d="M344 464q6 24 35 31.5t53.5 -5.5t18.5 -40q-29 -142 -42 -222q-2 -15 -9 -56.5t-11 -71t-5 -56.5q0 -15 -10.5 -26t-26 -15t-31.5 -3t-27.5 10t-12.5 23q-36 -24 -60 -36q-107 -52 -157 -6q-24 22 -32.5 64.5t-6.5 68.5t7 75q4 31 11.5 68t13.5 63t16 68.5t15 64.5
q4 21 17 35t33 11q18 -3 26.5 -22t3.5 -38q-5 -24 -16 -69t-19 -81.5t-13 -68.5q-11 -57 -11 -95q0 -2 -0.5 -13.5t0 -17t2.5 -13.5t6 -12q23 -20 100 29q42 25 77 54q4 26 14 80q16 99 41 222z" />
    <glyph glyph-name="v" unicode="v" horiz-adv-x="450" 
d="M436 497q19 -3 28.5 -18.5t0.5 -32.5q-52 -93 -258 -421q-15 -25 -50 -27.5t-43 28.5q-54 264 -73 416q-4 31 33 51t59 2q9 -7 11 -21q15 -127 50 -304q102 160 176 288q9 19 27 30t39 9z" />
    <glyph glyph-name="w" unicode="w" horiz-adv-x="695" 
d="M610 467q12 28 53 29q38 1 49 -22q5 -13 -2 -29q-37 -85 -121 -240t-97 -181q-8 -16 -32 -25t-46.5 -3.5t-24.5 28.5q-6 52 -23.5 146.5t-21.5 123.5q-27 -44 -79 -133t-79 -133q-11 -19 -36.5 -27t-46.5 1.5t-21 35.5q-1 77 -19.5 216t-21.5 191q-2 26 24 42t53.5 11
t29.5 -31q3 -51 14.5 -144t14.5 -119q69 112 155 257q18 30 57 30q16 0 31 -7.5t16 -22.5q3 -81 36 -264q104 193 138 270z" />
    <glyph glyph-name="x" unicode="x" horiz-adv-x="430" 
d="M422 502q22 -41 -8 -75q-104 -116 -155 -175q41 -81 97 -198q9 -16 3 -38t-22 -32q-33 -16 -55 32q-40 84 -84 168q-110 -122 -172 -187q-15 -14 -31.5 -8.5t-25.5 22.5q-10 17 -8 38.5t15 36.5q60 62 176 192q-50 101 -81 171q-8 17 -2.5 39t22.5 31q32 17 55 -31
q27 -64 67 -143q47 55 151 171q14 14 32 8t26 -22z" />
    <glyph glyph-name="y" unicode="y" horiz-adv-x="451" 
d="M363 499q12 23 42.5 23.5t51.5 -17.5t10 -40q-134 -270 -183 -362q-66 -130 -109 -193q-26 -37 -51.5 -57.5t-61 -28t-75.5 13.5q-16 7 -23.5 25.5t4.5 33.5q11 16 33 16q3 0 15 -1.5t20.5 -1.5t18.5 3t15 10q13 19 34 64.5t35 67.5q-2 2 -4 9q-67 273 -81 395
q-3 25 22.5 40t54 9t31.5 -32q10 -94 52 -280q29 57 79.5 161t69.5 142z" />
    <glyph glyph-name="z" unicode="z" horiz-adv-x="419" 
d="M374 512q25 1 37.5 -24t4 -52t-34.5 -29q-55 -58 -151 -171t-120 -140h179q15 0 26 -11t14.5 -26t2.5 -30.5t-11.5 -26.5t-27.5 -11q-173 -4 -289 0q-25 0 -37 26.5t-3.5 53t35.5 25.5h2q49 53 136.5 157t130.5 151h-171q-24 0 -36.5 26.5t-4 53.5t36.5 27q250 0 281 1z
" />
    <glyph glyph-name="braceleft" unicode="{" horiz-adv-x="470" 
d="M383 780q25 -7 26.5 -38.5t-18 -56t-43.5 -13.5q-19 8 -35.5 -3t-23.5 -37q-25 -95 -41 -171q-30 -127 -85 -181q7 -9 12 -26q4 -11 5.5 -25t2.5 -23.5t-0.5 -27.5l-2 -24t-3.5 -27t-3 -24q-19 -119 -13 -158q4 -20 16 -27t28 1q35 12 64 -17q26 -25 10 -47
q-8 -11 -27 -16q-123 -35 -180 39q-32 43 -23 148q2 23 10 80.5t10 88.5q0 21 -2 30q0 12 -10 12q-5 0 -15.5 1.5t-12.5 1.5q-17 5 -23.5 20.5t-3.5 34.5q7 25 23.5 42t38.5 13q47 -10 72 39q2 4 3 5v1q11 27 18.5 54t15 65t11.5 53q4 21 9 39.5t12.5 41.5t16 40t20.5 36.5
t25.5 30.5t31.5 21t38.5 9t45.5 -5z" />
    <glyph glyph-name="bar" unicode="|" horiz-adv-x="288" 
d="M153 685q8 34 50 41q40 7 58 -16q9 -12 6 -28q-96 -479 -134 -780q-3 -26 -32.5 -36.5t-56 1t-23.5 38.5q38 312 132 780z" />
    <glyph glyph-name="braceright" unicode="}" horiz-adv-x="333" 
d="M245 378q38 -2 46 -35.5t-36 -50.5q-23 -6 -45 -6q-5 1 -13 -7t-9 -15q-10 -25 -16 -66q-4 -23 -10.5 -81t-12.5 -89q-16 -101 -65 -155q-29 -32 -71 -42.5t-82 1.5q-29 12 -30 37t22.5 47.5t48.5 15.5q54 -18 62 22q14 36 27 147q0 3 2.5 23.5t3 26t3.5 25t4.5 27
t5.5 25t7 26.5t8.5 23.5t11 24t13 20t15.5 19.5l-3 15q-6 41 14 146q20 117 18 158q-1 12 -2 18t-6.5 13.5t-15.5 6.5q-22 -5 -43 1.5t-28 24.5q-8 19 4 34.5t32 20.5q42 14 90.5 1.5t68.5 -54.5q23 -51 6 -152q-3 -26 -12 -80t-12 -80q-2 -27 -1 -35v-1z" />
    <glyph glyph-name="asciitilde" unicode="~" horiz-adv-x="555" 
d="M57 266q-34 -24 -50 9q-16 32 1 66q7 13 17 20q3 2 8 6q72 55 116 67q5 2 10 3l37.5 4.5t36.5 -5t35.5 -10.5t35.5 -14l17 -8.5t20 -9.5t18.5 -7t21.5 -6t19 -1q8 1 14.5 4.5t11 7t10 11.5t7.5 12.5t7 14.5l6 12q9 19 27.5 26.5t34.5 -5.5q30 -23 8 -74
q-33 -71 -84.5 -102t-119.5 -6q-13 5 -40 18.5t-50 22.5t-43 9q-15 0 -29 -3.5t-29.5 -11.5t-24 -14t-26 -19t-23.5 -17z" />
    <glyph glyph-name="currency" unicode="&#xa4;" horiz-adv-x="582" 
d="M204 322q2 -35 42.5 -46.5t77.5 2.5q34 17 52 48.5t7 65.5q4 15 -22.5 31.5t-54 18t-40.5 -14.5q-28 -19 -46 -48t-16 -57zM522 194q13 -13 9 -30.5t-23 -28.5q-17 -11 -39 -10t-36 13q-8 8 -21 22t-24.5 25.5t-22.5 20.5q-87 -29 -173 -6q-20 -19 -81 -62
q-18 -12 -40.5 -13.5t-37.5 10.5q-14 10 -12 28t19 29q59 41 77 58q-20 23 -22 63q0 87 73 150q-9 11 -57 69q-11 14 -4 32t25 26q44 19 74 -16q26 -33 49 -60q25 11 57 14q54 6 106 -23q9 9 33.5 32.5t37.5 36.5q41 43 64 17q12 -15 7.5 -36.5t-18.5 -37.5
q-11 -11 -34 -32.5t-35 -33.5q25 -41 20 -95.5t-40 -93.5q12 -11 69 -68z" />
    <glyph glyph-name="brokenbar" unicode="&#xa6;" horiz-adv-x="260" 
d="M204 425q-1 -31 -40 -51q-38 -20 -57 -3q-9 9 -8 25q5 116 35 282q6 32 47 53q40 20 54 1q7 -9 4 -24q-33 -197 -35 -283zM139 270q32 -24 8 -74q-13 -31 -20 -64.5t-13.5 -82.5t-9.5 -65q-4 -20 -15.5 -36t-31.5 -15q-18 1 -29 19t-7 37q2 12 10 63.5t12 73t14 59.5
t23 69q8 19 27.5 23.5t31.5 -7.5z" />
    <glyph glyph-name="section" unicode="&#xa7;" 
d="M236 271q4 2 14.5 7.5t18.5 10t20 11.5t20.5 13t18.5 13.5t15.5 14.5t9.5 14t3 14.5t-7 13.5q-6 7 -16 11.5t-17.5 6.5t-22 5t-19.5 4q-10 -8 -21 -8q-62 -2 -102 -50q-21 -24 -11 -36q10 -7 33 -14.5t29 -10.5q24 -12 34 -20zM363 498q56 -22 73.5 -79t-13.5 -112
q-20 -33 -49 -57t-74 -51q23 -43 14.5 -92t-48.5 -82q-45 -37 -108 -39t-113 24q-24 10 -25 40t17.5 51.5t42.5 11.5q20 -10 41.5 -16.5t45 -9.5t38.5 7.5t15 35.5q0 30 -18.5 44.5t-54.5 24.5t-52 20q-29 16 -39 48.5t-3 66t24 61.5q39 63 104 91q-2 2 -2 5q-20 41 -12 80
t36.5 65t67.5 45.5t81 22t77 -5.5q25 -8 27.5 -37t-16 -52t-43.5 -16q-30 11 -77.5 1t-68.5 -36q10 -20 26 -30t45.5 -17.5t40.5 -12.5z" />
    <glyph glyph-name="copyright" unicode="&#xa9;" horiz-adv-x="774" 
d="M476 104q75 36 128 112.5t60 155.5q10 86 -24 135q-45 67 -135 82q-24 6 -35 5.5t-41 -8.5q-165 -46 -229 -114q-52 -54 -77 -116t-10 -119q17 -70 77 -114t134 -48t152 29zM752 440q7 -92 -27 -188t-105 -166q-85 -85 -195.5 -112.5t-207.5 13.5q-121 51 -171.5 168
t2.5 257q28 66 76.5 121.5t109.5 89.5q69 31 97 42.5t86.5 24.5t105.5 7h9q95 -19 154 -88.5t66 -168.5zM503 308q19 0 31 -14t2 -33q-34 -58 -87 -91.5t-111 -27.5q-48 6 -85 36t-51 75q-15 56 9.5 116t78.5 100q40 28 83 34t75 -2t75 -27q36 -17 14 -52q-20 -31 -55 -37
q-15 -3 -27 2q-2 1 -11.5 6t-17 9t-19.5 9t-20.5 7t-17.5 2t-14 -4q-58 -52 -41 -112q16 -56 59 -69q16 -5 29 -1q4 3 13 13t13 19q31 45 75 42z" />
    <glyph glyph-name="guillemotleft" unicode="&#xab;" horiz-adv-x="486" 
d="M131 244q71 -69 98 -140q10 -23 -10.5 -47t-45.5 -26t-38 22q-25 61 -106 139q-18 15 -3 44q9 22 24 41t37.5 43t32.5 36t24.5 33.5t28 38.5t29.5 29q14 13 34 16t35 -11q11 -17 5 -36.5t-21 -31.5q-24 -18 -60.5 -74.5t-63.5 -75.5zM365 460q25 22 66 7q35 -13 35 -36
q0 -13 -13 -24q-16 -15 -40 -49.5t-36 -47.5q-10 -12 -34 -36t-35 -38q41 -56 73 -127q12 -28 -9 -44.5t-51 -12t-41 27.5q-34 80 -77 135q-20 22 -8 42q15 23 50 59.5t44 47.5q4 5 31 42.5t45 53.5z" />
    <glyph glyph-name="logicalnot" unicode="&#xac;" horiz-adv-x="492" 
d="M61 272q-25 0 -35.5 27t0.5 53.5t39 26.5q42 0 170 5t197 2q32 -2 38.5 -39.5t-21.5 -59.5q-29 -23 -29 -78q0 -20 -12.5 -37t-31.5 -17t-29.5 16.5t-11.5 37.5q2 42 11 72q-44 0 -139.5 -4.5t-145.5 -4.5z" />
    <glyph glyph-name="uni00AD" unicode="&#xad;" horiz-adv-x="344" 
d="M81 271q-52 0 -60 37q-2 18 13 32.5t33 14.5h197q22 0 39 -9.5t20 -28.5q3 -18 -11.5 -32t-33.5 -14h-197z" />
    <glyph glyph-name="registered" unicode="&#xae;" horiz-adv-x="603" 
d="M480 330q23 50 13 108q-12 68 -44 108q-21 29 -48 46.5t-63 20.5t-76 -19q9 -2 12 -9q28 2 54.5 -1.5t50.5 -13.5t37 -30.5t11 -49.5q-4 -70 -71 -116q12 -20 20 -47q6 -19 -1.5 -42.5t-25.5 -35.5q-19 -13 -34 -6.5t-21 25.5q-4 12 -6 16q-1 3 -4.5 9.5t-5.5 9.5l-7 10
l1 -1q-5 4 -13 12q-2 0 -2 1l-1 -1h-2q-1 -5 -3 -16t-3 -16q-4 -22 -17 -40t-34 -19q-20 -1 -29.5 16.5t-6.5 37.5q3 15 13 61.5t15 78t8 61.5q-21 15 3 52q6 33 21 45q-1 1 -3 2l-1 1q-43 -23 -70.5 -70t-35.5 -98q-17 -69 9 -133q30 -65 92 -76q77 -12 157.5 19.5
t110.5 99.5zM322 446q1 5 0 7q-8 22 -41 31q-2 -12 -5.5 -32.5t-4.5 -30.5q2 2 5 2q9 5 19 7q18 8 26 14l-1 -1q1 1 2 3zM582 406q-2 -80 -41 -153t-111 -110q-58 -30 -120.5 -41t-122 2.5t-98.5 53.5q-32 35 -49.5 89t-19 113.5t15 120.5t47 111t82.5 84.5t117 41.5h5
q64 17 121 -6.5t94.5 -72t59 -110.5t20.5 -123z" />
    <glyph glyph-name="degree" unicode="&#xb0;" horiz-adv-x="338" 
d="M143 385h-10h-3q-42 1 -66 29.5t-23.5 67t16.5 79.5q31 64 92 103.5t122 22.5q51 -14 74 -58t5 -100q-22 -63 -81 -102t-126 -42zM158 558q-11 -26 -6.5 -53.5t29.5 -30.5q56 5 65 51q6 24 -2.5 46t-29.5 29q-16 8 -33 -7t-23 -35z" />
    <glyph glyph-name="plusminus" unicode="&#xb1;" horiz-adv-x="486" 
d="M102 316q-19 3 -31.5 16.5t-6.5 33.5q6 18 27.5 26.5t39.5 3.5q52 -11 91 -12q3 14 21 124q5 31 46 46q40 15 57 -4q9 -9 6 -25q-17 -100 -23 -141q7 0 85 6q30 2 44.5 -17.5t2.5 -41t-46 -24.5q-48 -4 -98 -6q-2 -13 -4 -28t-4.5 -33.5t-3.5 -28.5q-4 -31 -43 -46
q-40 -15 -60 4q-9 9 -7 25q14 102 15 107q-55 1 -108 15zM406 141q20 2 33 -10.5t7 -31.5q-7 -19 -26.5 -29t-40.5 -11q-201 -15 -318 -15q-19 0 -32 12t-6 30q6 19 26 29.5t41 10.5q130 2 316 15z" />
    <glyph glyph-name="mu" unicode="&#xb5;" horiz-adv-x="560" 
d="M492 501q34 -20 26 -72q-13 -70 -42 -196q2 -16 -6 -30q-22 -95 -39 -176q-5 -19 -21.5 -28t-33.5 1q-17 9 -23 29.5t-1 41.5q0 2 1 5.5t1 4.5q-88 -66 -152 -65q-53 3 -86 37q-2 -9 -5.5 -26t-4.5 -24t-6 -35t-8 -40.5t-9.5 -33t-15.5 -35.5q-20 -33 -51 -45.5t-64 11.5
q-22 22 -4 54.5t48 36.5q6 19 7 30q4 14 9.5 46t10.5 49q9 28 16.5 59t17 75.5t13.5 60.5q24 125 25 205q0 23 20 41t40.5 17.5t31.5 -19.5q11 -6 17 -18.5t3 -25.5q-72 -264 -17 -316q14 -15 43 -10.5t59.5 17.5t57.5 40.5t37 59.5q45 201 53 247q3 18 19.5 27t32.5 0z" />
    <glyph glyph-name="mu" unicode="&#x3bc;" horiz-adv-x="560" 
d="M492 501q34 -20 26 -72q-13 -70 -42 -196q2 -16 -6 -30q-22 -95 -39 -176q-5 -19 -21.5 -28t-33.5 1q-17 9 -23 29.5t-1 41.5q0 2 1 5.5t1 4.5q-88 -66 -152 -65q-53 3 -86 37q-2 -9 -5.5 -26t-4.5 -24t-6 -35t-8 -40.5t-9.5 -33t-15.5 -35.5q-20 -33 -51 -45.5t-64 11.5
q-22 22 -4 54.5t48 36.5q6 19 7 30q4 14 9.5 46t10.5 49q9 28 16.5 59t17 75.5t13.5 60.5q24 125 25 205q0 23 20 41t40.5 17.5t31.5 -19.5q11 -6 17 -18.5t3 -25.5q-72 -264 -17 -316q14 -15 43 -10.5t59.5 17.5t57.5 40.5t37 59.5q45 201 53 247q3 18 19.5 27t32.5 0z" />
    <glyph glyph-name="paragraph" unicode="&#xb6;" horiz-adv-x="503" 
d="M374 654q5 31 45 47t57 -3q9 -11 6 -30q-44 -252 -134 -760q-5 -31 -45 -47q-40 -15 -57 4q-9 10 -6 29q52 298 134 760zM287 426q14 -19 -10 -50q-72 -380 -86 -456q-3 -21 -18.5 -40t-37.5 -25q-20 -4 -30 9.5t-6 33.5q45 254 82 446q-36 10 -58 26q-5 3 -11 9
q-25 25 -35 47q-6 8 -6 13q-20 54 -3 112q18 67 71 110.5t114 41.5q19 29 45 35q21 6 31.5 -8t6.5 -34q-1 -5 -2.5 -14.5t-2.5 -14.5q0 -9 -2 -14q-38 -203 -42 -227z" />
    <glyph glyph-name="guillemotright" unicode="&#xbb;" horiz-adv-x="464" 
d="M276 229q-24 -28 -52.5 -57t-65 -63.5t-54.5 -52.5q-30 -33 -73 -11q-16 9 -25.5 25t1.5 34q18 19 74 72.5t84 85.5q-16 29 -43 84.5t-39 77.5q-10 17 2 32t31 18q21 3 40 -6.5t30 -27.5q4 -8 35 -72.5t52 -95.5q16 -29 3 -43zM411 350q31 -52 33 -76q1 -20 -9 -38
q-20 -31 -47.5 -62.5t-64.5 -70.5t-54 -58q-30 -33 -55 -6q-23 23 -13 56q4 12 12 21q11 12 61 65.5t75 83.5q-6 8 -15 26q-11 17 -32 51.5t-31 51.5q-25 40 5 76q11 15 29 18t30 -13q15 -24 43.5 -71.5t32.5 -53.5z" />
    <glyph glyph-name="afii10023" unicode="&#x401;" horiz-adv-x="532" 
d="M539 684q40 -5 32 -39q-7 -31 -39 -47q-15 -8 -30 -7q-44 7 -128.5 7t-120.5 3q-25 -84 -45 -196q216 6 218 6q38 1 53 -31q14 -29 -9 -45q-12 -9 -33 -9q-46 0 -131.5 -3.5t-111.5 -4.5q-7 -43 -19.5 -127.5t-13.5 -92.5q55 10 124.5 9.5t124.5 -21.5q18 -7 22.5 -24
t-6.5 -32q-13 -17 -35.5 -23.5t-41.5 1.5q-29 11 -64.5 13.5t-62 -0.5t-68.5 -9t-63 -8q-19 -2 -35.5 9.5t-14.5 30.5q3 24 30 38q8 46 26 166.5t34.5 205.5t39.5 163h-2q-18 6 -20 26t9 34q18 25 47 28q22 24 46 15q16 -8 22 -26q46 -8 133 -6.5t133 -3.5zM296 727
q-19 -4 -32 10t-11 33q0 31 13 54q3 5 8 13.5t6 10.5l2 2q9 19 26.5 30t34.5 3q17 -9 20.5 -31.5t-5.5 -37.5q-2 -4 -6.5 -11.5t-6.5 -10.5h-2l-1 -2v-4q-2 -21 -14.5 -38t-31.5 -21zM449 704q-19 -3 -35.5 8.5t-12.5 30.5q1 7 5 21.5t5 21.5q0 2 2 3q-18 18 -9 41
q7 19 27 31t41 11q22 -2 34.5 -17.5t11.5 -39.5q-2 -21 -12 -58q-5 -20 -20.5 -35t-36.5 -18z" />
    <glyph glyph-name="afii10051" unicode="&#x402;" horiz-adv-x="617" 
d="M593 309q19 -108 -64 -211t-193 -139q-19 -6 -31.5 8t-12.5 33q0 20 12.5 38t31.5 23q56 20 113 77q63 70 60 114q-3 62 -110 62q-22 -2 -64 -8q-15 -1 -32 -6q-5 -1 -9 -3l-1 1l5 5q0 1 1 2l1 1q-8 -8 -21 -12q-29 -141 -30 -224q-2 -30 -40 -44q-39 -14 -59 6
q-10 9 -9 25q4 103 47.5 292.5t48.5 220.5q-88 -5 -158 -5q-28 0 -36 27t5 54t38 27q64 0 190 4.5t189 4.5q29 0 37.5 -26.5t-5 -53t-38.5 -26.5q-17 -1 -36.5 -1.5t-43.5 -1t-37 -0.5q-16 -87 -36 -166q35 10 98 12q170 0 189 -110z" />
    <glyph glyph-name="afii10052" unicode="&#x403;" horiz-adv-x="511" 
d="M523 701q20 0 35 -11.5t12 -30.5q-4 -19 -22 -30t-38 -11h-255v-4q-96 -448 -132 -585q-4 -19 -21 -25t-33 5q-17 11 -24.5 32t-2.5 42q53 198 123 540q-28 13 -24 37q3 20 21.5 30.5t40.5 10.5h320zM323 731q-17 8 -24.5 24.5t4.5 32.5q6 6 45.5 41.5t57.5 56.5
q13 15 35 18.5t40 -5.5q17 -8 24.5 -24t-4.5 -33q-17 -18 -53 -50t-50 -46q-33 -33 -75 -15z" />
    <glyph glyph-name="afii10053" unicode="&#x404;" horiz-adv-x="512" 
d="M544 694q23 -7 27 -36t-12.5 -52.5t-43.5 -16.5q-92 24 -184 -2t-151 -98q-33 -42 -47 -100q157 -9 250 4q19 4 33.5 -7t12.5 -31q-2 -19 -18.5 -34t-36.5 -17q-89 -13 -251 -7v-5q-3 -52 4 -90.5t36 -68.5q73 -68 260 -18q27 7 41 -17t7 -53.5t-31 -36.5
q-234 -62 -328 36q-50 48 -64 133.5t-2 177.5q16 142 86 222q78 87 187 117t225 0z" />
    <glyph glyph-name="afii10054" unicode="&#x405;" horiz-adv-x="454" 
d="M475 693q21 -17 17.5 -43.5t-27.5 -45.5t-47 -6q-47 31 -127.5 22.5t-116.5 -55.5q-7 -9 -9.5 -25t5.5 -36q23 -35 82 -82t74 -62q40 -42 62 -90t18 -103t-41 -100q-104 -129 -376 -66q-27 6 -28 34t19 51.5t45 17.5q34 -8 70.5 -12.5t88 -6t88 15.5t44.5 52
q12 49 -58 121q-18 18 -76.5 63.5t-81.5 79.5q-36 53 -32 100t31 86.5t75 66.5t100 41t106.5 10t94.5 -28z" />
    <glyph glyph-name="afii10055" unicode="&#x406;" horiz-adv-x="279" 
d="M162 642q7 48 51 60q18 4 33 -7.5t12 -30.5q-64 -370 -123 -623q-8 -32 -42 -43q-33 -11 -47 11q-8 14 -3 36q63 261 119 597z" />
    <glyph glyph-name="afii10056" unicode="&#x407;" horiz-adv-x="284" 
d="M187 656q7 25 37 29.5t54 -10.5t17 -40t-28 -99t-30 -106.5t-26 -97t-26 -107t-19.5 -98.5t-16.5 -106q-3 -26 -31.5 -31.5t-54 10.5t-22.5 42q7 50 17.5 107t19 97t26.5 108.5t25 95t30 108t28 98.5zM161 734q-17 17 -27 51q-1 12 -1 35q0 19 14 31t32 6q6 -1 16 -7
q16 -5 19 -8q17 -10 24 -33q11 -22 3 -39q0 -1 -1.5 -4t-1.5 -4q-2 -13 -7 -21q-12 -15 -27 -21q-22 -9 -43 14zM374 823q10 -24 9 -44q0 -12 -8 -26q-14 -21 -32 -21q-1 0 -19 3q-4 1 -7.5 2.5t-7.5 3.5l-6 3q-12 5 -20 14l-9 12q-11 18 -9 41q0 21 15 31q8 8 21 8q1 0 3 3
q15 10 29.5 5t26.5 -19q12 -13 14 -16z" />
    <glyph glyph-name="afii10057" unicode="&#x408;" horiz-adv-x="327" 
d="M219 660q6 21 20.5 36.5t33.5 14.5t27.5 -18.5t5.5 -36.5q-4 -16 -14 -80q-54 -330 -114 -469q-86 -198 -203 -110q-18 19 -13.5 46.5t28.5 44.5t46 0q7 -5 14.5 -6t14 3t12.5 10t11.5 15t9.5 17.5t8 19t7 17.5t5 14q1 2 1 3q7 20 25 87q17 71 40 203.5t35 188.5z" />
    <glyph glyph-name="afii10058" unicode="&#x409;" horiz-adv-x="956" 
d="M670 112q135 46 133 134q-1 80 -95 93q-73 9 -137 -8q-30 -121 -48 -245q77 3 147 26zM915 243q2 -74 -45 -128t-118.5 -79t-146.5 -34t-140 -1q-22 3 -41.5 16t-17.5 33q13 125 53 296q-21 33 14 50q26 109 62 227q-88 6 -164 -5q0 -2 -1 -5t-1 -4q-27 -90 -75 -272
q-41 -137 -65 -190q-72 -158 -217 -167q-22 -2 -42 9t-27 30q-6 20 6 34.5t32 16.5q58 2 88 34q35 35 67 114q31 82 74 241t52 187q2 12 9 16q-3 33 38 40q154 24 291 0q26 -5 45.5 -20t12.5 -39q-12 -43 -35 -122.5t-26 -90.5q78 5 141 -11q70 -15 122.5 -61.5t54.5 -114.5
z" />
    <glyph glyph-name="afii10059" unicode="&#x40a;" horiz-adv-x="968" 
d="M779 135q35 30 41.5 80.5t-25.5 88.5q-32 34 -127 36q-38 0 -56 -1q-34 -154 -51 -269q6 1 31.5 4t35 4.5t32 5.5t34.5 8t29.5 10t30.5 14.5t25 18.5zM911 332q28 -74 5.5 -142t-81.5 -119q-31 -27 -75 -45.5t-77 -25.5t-90.5 -16.5t-82.5 -15.5q-17 -4 -32.5 4t-17.5 25
q-13 9 -12 33q20 138 58 302q-133 -10 -277 -10q-36 -136 -75 -298q-8 -32 -51 -39q-42 -8 -58 15q-7 10 -3 25q85 345 99 397q5 21 15.5 61t15.5 61q10 38 13 61q0 27 3 22q-7 16 -1.5 30.5t20 22.5t30.5 11.5t31.5 -2t22.5 -19.5q16 -37 -3 -110q-5 -22 -15 -60t-13 -50
q-6 -22 -9 -32q64 1 276 10q6 26 14 78.5t17 93.5t25 76q9 19 30 30.5t42 7.5q19 -2 27.5 -18.5t0.5 -34.5q-14 -31 -22.5 -68t-16 -87t-11.5 -72q38 4 80 1.5t79 -10t69.5 -31.5t49.5 -62z" />
    <glyph glyph-name="afii10060" unicode="&#x40b;" horiz-adv-x="650" 
d="M543 621q-109 0 -197 -4q-6 -23 -27.5 -103t-32.5 -123q43 17 65.5 24.5t60 16t69 6t59.5 -16.5q41 -21 56 -69t7 -99q-4 -33 -13 -66.5t-23.5 -78t-20.5 -63.5q-8 -30 -44 -40q-37 -11 -50 11q-7 12 -2 31q4 13 24.5 76.5t26.5 99.5q17 104 -36 117q-6 1 -13 2t-12.5 1
t-13.5 -1t-13 -1.5t-14 -2.5t-12.5 -3t-13.5 -4t-12.5 -4t-13 -4.5t-11.5 -3.5q-11 -3 -74 -27q-35 -142 -50 -257q-2 -19 -19 -29.5t-33 -1.5q-36 20 -28 71q12 91 37 205q-14 10 -14 27q3 31 32 46q12 52 38.5 152t28.5 109q-85 -3 -173 -3q-19 0 -31.5 14t-7.5 32
q12 37 65 41q77 0 231 4.5t232 4.5q19 0 31 -13.5t7 -31.5q-6 -19 -24.5 -30t-40.5 -11z" />
    <glyph glyph-name="afii10061" unicode="&#x40c;" horiz-adv-x="532" 
d="M453 737q-27 -27 -54 3q-24 27 -17 60q2 13 11 21q2 2 15.5 16t18.5 18.5t16.5 14t21 14.5t19.5 8q18 5 32.5 -10.5t18.5 -34.5q5 -20 -2 -38t-25 -24q-1 0 -1 -1q-1 -1 -4 -2.5l-5 -2.5q-1 -1 -4 -3.5t-5 -4.5q-6 -4 -6 -6q-18 -15 -30 -28zM560 620q-46 -61 -77 -98.5
t-78 -84.5t-94 -78q96 -158 155 -302q13 -30 -18 -60q-29 -28 -53 -15q-10 5 -16 19q-56 140 -159 309q-5 -1 -16 -5t-17 -6q-27 -156 -56 -258q-5 -21 -21 -36.5t-35 -15.5q-19 -1 -29 15t-4 35q21 76 63.5 297.5t87.5 338.5q10 28 35.5 35t41.5 -10.5t4 -48.5
q-37 -95 -63 -227q44 20 82.5 49t80.5 76t61 71t66 85q13 15 31 10.5t28 -19.5q11 -17 11.5 -38t-11.5 -38z" />
    <glyph glyph-name="afii10062" unicode="&#x40e;" horiz-adv-x="516" 
d="M187 718q-15 0 -26 11.5t-14 27.5t-1 32t12.5 27.5t25.5 11.5h239q16 0 27 -11.5t14 -27.5t0.5 -32t-13 -27.5t-25.5 -11.5h-239zM515 717q19 0 30.5 -18t9.5 -38q0 -16 -3.5 -33.5t-11.5 -37t-13.5 -32t-16.5 -35t-15 -30.5q-58 -127 -132 -250q-97 -159 -166 -212
q-87 -68 -145 3q-22 26 -5 64q14 32 38 29q14 -3 25 -16l2 -2q4 0 4 -1h5h1l9 3q7 3 23 15q17 12 27 24l39 45q-3 1 -3 7q-16 42 -48 121.5t-56.5 144t-44.5 123.5q-9 5 -12 21q-3 21 -3 25q-2 27 25.5 44t51.5 10q15 -3 23.5 -17t15 -41t7.5 -30q31 -86 45 -119
q25 -62 73 -182q14 24 19 34q69 117 115 218q24 54 36 85q2 3 4 9l3 9v1q1 4 2 12q1 -4 1 -7q0 19 11 36.5t30 17.5z" />
    <glyph glyph-name="afii10145" unicode="&#x40f;" horiz-adv-x="660" 
d="M535 648q5 30 44 41q39 12 55 -9q8 -11 5 -27q-10 -56 -29 -183.5t-36.5 -221.5t-41.5 -180l-2 -4q-1 -4 -2 -7q3 -9 3 -10q0 -36 -56 -43q-67 -8 -161 -6q-5 -23 -12 -76t-15 -80q-6 -21 -20 -35t-34 -9q-18 4 -25 24.5t-2 39.5q6 20 10 42t8 54t6 43q-74 3 -149 12
q-18 2 -31 17.5t-8 32.5q8 21 27 26l2 3q89 436 115 577q4 19 19.5 33.5t33.5 10.5q36 -7 29 -63q-21 -111 -65.5 -324t-49.5 -237q151 -15 282 -5q21 82 38 175.5t34 210.5t28 178z" />
    <glyph glyph-name="afii10017" unicode="&#x410;" horiz-adv-x="549" 
d="M215 310q73 10 129 10q-24 104 -34 168q-45 -89 -95 -178zM488 -9q2 -19 -9.5 -37.5t-31.5 -18.5q-20 -1 -30 15t-13 38q-12 109 -40 237q-77 6 -163 -9q-14 -22 -42 -31q-66 -143 -115 -216q-13 -15 -30.5 -11t-29.5 19q-28 41 -2 78q46 67 107 202.5t85 179.5
q10 19 39 72.5t44 83.5q25 52 35 83v37q1 23 10.5 40.5t29.5 17.5h9q19 -3 30 -21.5t13 -40.5q1 -30 -7 -65q5 -118 52 -328q16 -2 18 -3q26 -4 32.5 -21t-3.5 -35.5t-27 -28.5q30 -149 39 -237z" />
    <glyph glyph-name="afii10018" unicode="&#x411;" horiz-adv-x="562" 
d="M359 340q-67 30 -165 19q-3 -7 -8 -19.5l-7 -17.5q-50 -145 -57 -172q-13 -45 -16 -61q0 -4 -2 -7q77 4 156 30q36 13 59 23t52 31t42 46q18 37 1.5 74.5t-55.5 53.5zM528 737q22 0 38 -8.5t15 -28.5t-19.5 -34.5t-38.5 -14.5q-101 0 -259 -20q-4 -64 -33 -164
q128 9 202 -39q59 -40 74.5 -110t-15.5 -135q-50 -110 -211 -166q-131 -47 -249 -41q-33 3 -28 41q-9 34 10 107q18 66 54 166q5 12 23.5 62t25.5 71.5t19.5 61.5t18 73.5t7.5 66.5q-11 3 -19 12.5t-7 21.5q0 24 30 41q15 25 47 32t45 -16q172 21 270 21z" />
    <glyph glyph-name="afii10019" unicode="&#x412;" horiz-adv-x="591" 
d="M486 538q2 11 0 19q-16 48 -53 63q-55 22 -138 15q-15 -82 -52 -207h1q41 9 79 19q36 10 56 16.5t50 23t46 35.5q3 7 8 13q0 1 3 5q1 1 0 -2zM436 196q3 10 3 11q0 46 -42 77q-44 35 -113 40q-23 -6 -80 -14q-55 -157 -76 -223q56 5 110 15q42 10 64.5 15.5t57 20.5
t54.5 33q14 12 22 25zM555 474q-29 -56 -102 -95q1 0 3 -1q55 -45 68 -116t-29 -133q-65 -88 -219 -125q-134 -33 -239 -26q-25 1 -33 23t1 45q-5 8 0 20q13 46 30.5 97.5t40 115t33.5 97.5q1 9 6 18q55 170 76 294q1 20 11 34.5t28 16.5q57 7 91.5 9.5t85 -6.5t83.5 -35
q52 -41 72 -106t-7 -127z" />
    <glyph glyph-name="afii10020" unicode="&#x413;" horiz-adv-x="521" 
d="M544 691q18 -3 30 -20t3 -35q-16 -33 -71 -22q-54 7 -81 6t-83 -8.5t-83 -8.5q-16 -70 -113 -563q-6 -31 -44 -42q-40 -12 -56 11q-8 11 -5 28q79 413 120 598q-7 28 16 43q18 21 50 24.5t43 -14.5q19 1 52.5 5t42.5 5q110 9 179 -7z" />
    <glyph glyph-name="afii10021" unicode="&#x414;" horiz-adv-x="637" 
d="M575 89q21 -5 33.5 -18t6.5 -33q-5 -18 -16 -49.5t-18.5 -58.5t-8.5 -52q-1 -26 -29 -38.5t-55.5 -3t-26.5 35.5q0 18 3.5 37t6.5 30t10.5 33.5l10.5 31.5l-448 -3q-20 -94 -21 -129q0 -31 -36.5 -50t-56.5 0q-10 9 -9 27q1 35 14 96.5t15 87.5q-6 14 3 33q16 31 52 33
q30 8 48 -14q3 0 9 -1t9 -1q0 1 2 2.5t3 3.5q2 1 3 3l2 1q21 29 37 62q36 71 71 181q34 112 50 182q11 56 12 62q0 1 1 8t2 9q0 -1 2 -5q-2 6 -2 9q-20 22 -7.5 61t44.5 39h246q19 0 29 -20.5t7 -40.5q-11 -73 -56 -254.5t-53 -282.5q59 -2 111 -14zM291 301
q-44 -133 -86 -205l-8 -10q32 2 93 8t90 8q4 74 20.5 154.5t42.5 180.5t37 153h-116q0 -12 -2.5 -26t-6.5 -30t-5 -23q-28 -117 -59 -210z" />
    <glyph glyph-name="afii10022" unicode="&#x415;" horiz-adv-x="546" 
d="M561 691q25 -12 24.5 -38t-23 -48.5t-46.5 -14.5q-28 10 -61.5 13t-58.5 0.5t-65 -7.5t-61 -6q-28 -85 -48 -180q19 1 81.5 7t81.5 6.5t82 -0.5q22 -2 40.5 -14t19.5 -32t-15 -31t-36 -10q-60 2 -91 0.5t-91 -7t-91 -6.5q-28 -151 -53 -242q32 2 112 11t124 9
q42 1 47 -29q5 -28 -21 -46q-15 -10 -34 -10q-46 -1 -135 -12t-133 -12q-2 0 -23 3h-7q-19 -1 -31 13t-7 32q7 24 65.5 282.5t72.5 292.5q-5 25 13 52t44 26q34 -2 81 2.5t82.5 9t80 2t80.5 -15.5z" />
    <glyph glyph-name="afii10024" unicode="&#x416;" horiz-adv-x="714" 
d="M729 609q-53 -105 -154 -204q-48 -44 -75 -66q23 -16 41 -41q23 -32 42 -72.5t39.5 -92t32.5 -77.5q18 -36 -6 -63q-22 -24 -47 -7q-12 9 -20 25q-7 15 -37.5 91.5t-51.5 110.5q-29 44 -90 50q-20 -134 -44 -223q-12 -44 -59 -47q-20 0 -38 11t-13 30q19 72 49 248
q-23 -11 -49.5 -31t-39.5 -31.5t-42 -39.5q-35 -35 -73 -83q-4 -4 -8 -9.5t-8.5 -11.5t-5.5 -7q-1 -2 -5 -9l-6 -12v2q-7 -21 -23.5 -35t-37.5 -14q-19 -2 -31.5 12.5t-5.5 33.5q13 35 39 72.5t47.5 60.5t58.5 59q83 79 140 113q-107 122 -141 283q-7 32 29 60q34 26 56 11
q8 -6 11 -19q32 -147 121 -253q21 122 55 216q10 30 51 34q39 3 52 -21q6 -13 0 -30q-31 -88 -53 -214q48 35 94 81q97 101 132 175q18 38 48 17q27 -18 30 -54q2 -17 -4 -29z" />
    <glyph glyph-name="afii10025" unicode="&#x417;" horiz-adv-x="484" 
d="M372 701q48 -30 75.5 -79t9.5 -97q-30 -86 -145 -143q14 -12 21 -19q47 -48 57.5 -117.5t-21.5 -130.5q-34 -63 -103.5 -102t-144 -38.5t-141.5 39.5q-27 19 -18 61q8 37 33 43q14 3 29 -7q56 -38 143 -20t124 74q21 31 17.5 57.5t-21 44.5t-46.5 30q-13 5 -53 9.5
t-72.5 12.5t-41.5 24q-9 18 2 35t30 21q16 12 65 23.5t67 23.5q75 32 100 69q18 28 10.5 61t-36.5 50q-13 7 -27.5 10.5t-26 4.5t-30 -2t-27.5 -5t-29.5 -7.5t-26.5 -6.5q-55 -13 -72 20q-9 17 1.5 34.5t29.5 22.5q4 1 25 6.5t27.5 7t26.5 6t28.5 5.5t27 3t29 1.5t26.5 -1
t27.5 -4t25 -8.5t25.5 -12z" />
    <glyph glyph-name="afii10026" unicode="&#x418;" horiz-adv-x="685" 
d="M610 671q28 3 44.5 -10t5.5 -38t-19.5 -52.5t-15.5 -60.5t-11 -54t-10.5 -62.5t-9.5 -56.5q-36 -219 -68 -312q-10 -30 -51 -34q-39 -4 -52 19q-6 13 0 30q12 35 22.5 79t15.5 71.5t15 85.5t13 76q4 29 20 120q-105 -116 -380 -465q-22 -25 -45.5 -10t-30.5 47
q-19 11 -10 38q16 54 29.5 110.5t25.5 123t19 109t19 124t17 112.5t45 44q42 13 59 -7q9 -9 6 -24q-6 -36 -19.5 -129t-25 -160t-24.5 -129q199 251 365 423q20 19 51 -8z" />
    <glyph glyph-name="afii10027" unicode="&#x419;" horiz-adv-x="684" 
d="M566 661q13 18 37.5 26.5t43.5 0t16 -33.5q-24 -160 -120 -605q-5 -21 -21 -36t-38 -16q-18 -3 -34 9t-12 31q56 246 97 465q-25 -28 -71.5 -85t-70.5 -84q-223 -268 -247 -299q-11 -15 -29 -17q-16 -22 -36 -25q-19 -1 -29.5 16t-9.5 36q-5 12 4 26q12 84 61 282.5
t57 308.5q2 20 15.5 37.5t32.5 18.5q20 1 30 -15.5t9 -36.5q-6 -70 -20.5 -143.5t-40 -173t-34.5 -141.5q22 27 69.5 83.5t71.5 85.5q18 22 69 83.5t88 103.5t75 79q16 14 37 19zM591 785q-32 -27 -76.5 -46t-90 -24.5t-81.5 18t-45 77.5q-4 21 4 42t27 30q17 8 32.5 -2.5
t18.5 -29.5q7 -33 43 -28.5t72.5 21.5t53.5 32q33 26 52 -5q18 -29 5 -64q-5 -13 -15 -21z" />
    <glyph glyph-name="afii10028" unicode="&#x41a;" horiz-adv-x="556" 
d="M408 463q-47 -51 -89 -82q48 -38 94 -126q74 -141 101 -244q5 -18 -13 -30t-36 -10q-22 0 -39 11.5t-22 31.5v2v1q-1 1 -1 3q-5 10 -6 17q-9 22 -17 45q-28 67 -49 111q-4 8 -16 31t-21 38t-19 29q-7 11 -15 19q0 2 -3 4q-22 0 -43 13q0 2 -1 2h-3h-2q-26 -120 -79 -286
q-7 -21 -24 -35t-36 -10t-25.5 24t0.5 37q115 348 108 593q0 52 40 68q18 7 34.5 -2t17.5 -28q3 -135 -18 -267q52 24 113 95q75 85 90 150q8 30 47 42t55 -9q7 -10 3 -28q-25 -104 -126 -210z" />
    <glyph glyph-name="afii10029" unicode="&#x41b;" horiz-adv-x="664" 
d="M641 708q16 -6 20.5 -22t0.5 -31.5t-11 -27.5q-46 -85 -77 -192t-59 -236t-51 -202q-6 -18 -24.5 -30.5t-36.5 -5.5q-34 15 -17 68q20 63 69 268t95 311q-20 -2 -56 -12.5t-47 -12.5q-47 -8 -75 -4q-5 -46 -25 -126q-38 -142 -95 -252q-71 -138 -152 -192
q-43 -29 -91 -28q-29 1 -41.5 21t-6 46t25.5 43q13 11 29.5 10.5t26.5 -11.5q36 5 72 52q50 63 93 164q41 96 60 186q11 41 13 71q0 2 0.5 13.5t1.5 24.5t2.5 26t3.5 22t5 9q7 31 29 47t44 -3q9 -9 20.5 -13.5t26.5 -3.5t25 2.5t28.5 6.5t23.5 6q97 24 150 8z" />
    <glyph glyph-name="afii10030" unicode="&#x41c;" horiz-adv-x="777" 
d="M690 706q25 24 49 7t16 -49q-16 -65 -48.5 -206t-60.5 -248t-60 -203q-6 -19 -24 -31t-36 -5q-33 15 -16 68q43 129 121 469q-15 -19 -95 -127t-128 -160q-1 -23 -24.5 -41t-49 -16.5t-31.5 24.5q-22 94 -108 275q-8 -72 -31 -210.5t-31 -204.5q-5 -34 -39 -48
q-33 -13 -48 10q-8 12 -5 33q8 66 28 184t32.5 216t12.5 185q0 21 13 39.5t33 25.5q27 7 41 -12q23 -2 31 -24q21 -54 73 -166t74 -172q38 44 141 182.5t170 204.5z" />
    <glyph glyph-name="afii10031" unicode="&#x41d;" horiz-adv-x="644" 
d="M585 713q20 1 29.5 -15t9.5 -37q-1 -93 -23 -198.5t-52 -223.5t-42 -196q-3 -22 -16 -39.5t-33 -18.5q-19 -1 -29.5 16t-7.5 36q12 85 58 263q-25 -1 -102 -5t-102.5 -3.5t-102.5 5.5q-40 -172 -48 -248q-3 -33 -25.5 -44.5t-41.5 4.5t-16 49q8 77 60 309q22 87 35 160
q8 47 10 75q0 3 1 8.5t1.5 10t0.5 8.5l1 19v-1q-2 56 36 65q18 5 32 -9.5t16 -34.5q1 -95 -38 -261q68 -5 103.5 -4.5t103.5 4.5t103 4q29 140 32 244q0 20 14 38.5t33 19.5z" />
    <glyph glyph-name="afii10032" unicode="&#x41e;" horiz-adv-x="653" 
d="M254 704q26 2 43 -15q65 37 130 40q66 2 116 -31t71 -95q44 -136 -12 -296t-171 -252q-32 -25 -67.5 -43.5t-75.5 -30t-80 -5.5t-72 31q-86 67 -94 240q-10 157 43 293q58 158 169 164zM205 540q-8 2 -9 4q-30 -74 -39 -153q-22 -172 25 -270q14 -29 30 -43.5t37 -13.5
t37.5 6.5t43.5 19.5q98 49 152 175.5t38 242.5q-19 131 -93 134q-69 6 -146 -82q-13 -16 -34 -22t-42 2z" />
    <glyph glyph-name="afii10033" unicode="&#x41f;" horiz-adv-x="686" 
d="M620 704q27 6 38.5 -14.5t5 -47t-25.5 -37.5q4 -112 -47.5 -312t-59.5 -266q-2 -20 -17 -36.5t-35 -21.5q-18 -3 -35.5 6.5t-14.5 28.5q10 81 65 305q37 158 40 229q1 25 0 48q-36 -3 -106.5 -6t-75.5 -3q-88 -2 -113 -1q-71 -240 -95 -510q-2 -21 -16.5 -37.5
t-35.5 -21.5q-19 -4 -36 5.5t-15 28.5q30 338 121 603v1q6 19 20.5 32.5t31.5 13.5l2 -1q2 1 10 1q15 0 21 -6q13 -1 38 -1q61 0 119 3q166 7 216 17z" />
    <glyph glyph-name="afii10034" unicode="&#x420;" horiz-adv-x="590" 
d="M482 477q18 42 -5.5 87t-68.5 57q-57 15 -138 1q0 -18 -1.5 -37t-5 -40.5t-6 -36.5t-9 -40.5t-9 -36.5t-10.5 -40t-10 -36q-2 -8 -8 -26q45 0 108 23q128 53 163 125zM497 699q66 -33 86.5 -108.5t-14.5 -138.5q-62 -123 -234 -185q-84 -32 -152 -33q-36 -129 -44 -199
q-4 -32 -40 -47q-36 -14 -53 7q-8 12 -5 31q12 92 52 225q-21 12 -25 15q-31 22 -5.5 57.5t60.5 31.5q2 9 8.5 32.5t9 33t8.5 33.5t7.5 33.5t6 33.5t4.5 34t2 33.5t-1 33.5q-15 18 -1.5 47t42.5 36q64 12 100 16.5t92 1t96 -23.5z" />
    <glyph glyph-name="afii10035" unicode="&#x421;" horiz-adv-x="518" 
d="M513 695q29 -17 24 -63q-4 -40 -28 -48q-11 -3 -24 4q-73 37 -140.5 23t-127.5 -68q-95 -82 -92 -212q0 -61 19 -119t58 -92q89 -78 212 3q31 21 50 -14q17 -32 3 -65q-6 -13 -17 -20q-48 -31 -98 -44.5t-103 -3.5t-94 49q-58 56 -86.5 138.5t-28.5 171.5q2 194 139 308
q49 41 103.5 63t115.5 21t115 -32z" />
    <glyph glyph-name="afii10036" unicode="&#x422;" horiz-adv-x="544" 
d="M554 706q31 -3 44 -43q15 -40 -6 -60q-9 -9 -25 -7q-77 8 -183 4q-13 -38 -22.5 -79.5t-21 -102t-15.5 -81.5q-58 -278 -64 -303q-6 -24 -35.5 -28.5t-53.5 12t-17 44.5q10 43 20.5 93t22.5 109.5t19 94.5q3 15 20 103.5t30 133.5q-106 -4 -177 0q-32 2 -45.5 41t6.5 60
q10 10 26 9q71 -4 239 2t238 -2z" />
    <glyph glyph-name="afii10037" unicode="&#x423;" horiz-adv-x="524" 
d="M545 698q16 -9 18 -32t-8 -37q-15 -23 -28.5 -50.5t-30 -64t-23.5 -51.5q-70 -148 -119 -230q-14 -24 -26 -43t-31 -46.5t-36.5 -47.5t-39.5 -42t-45 -35.5t-48 -22.5t-52.5 -7.5t-54.5 13.5q-22 14 -19.5 40t26 47t48.5 11q27 -12 50 0q30 12 58 42q12 12 36 40
q-10 17 -20 38t-16 37t-14.5 42.5t-12 38.5t-12 43.5t-10.5 39.5q-7 24 -18.5 68.5t-16.5 61.5q-10 41 -14 54q0 3 -5 16l-2 10q-12 33 24 61q32 26 57 14q11 -7 15 -18q13 -32 23 -68.5t21.5 -85t17.5 -70.5q36 -135 53 -175q13 23 15 28q27 48 108 212q40 92 68 140
q11 18 28.5 28.5t35.5 0.5z" />
    <glyph glyph-name="afii10038" unicode="&#x424;" horiz-adv-x="756" 
d="M630 406q7 94 -43 150q-43 44 -121 24q-3 -4 -3 -10q-22 -90 -40 -199q-7 -37 -18.5 -103.5t-14.5 -85.5q50 -4 97 12t77 51q62 68 66 161zM237 179q28 -4 59 0q21 135 33 192q21 117 43 214h-4q-83 8 -140 -57q-62 -68 -73 -163q-8 -62 10 -116.5t72 -69.5zM668 631
q78 -78 66 -211q-14 -143 -116.5 -237.5t-243.5 -96.5q-3 -9 -6.5 -28.5t-5.5 -28.5q-3 -21 -17.5 -37.5t-35.5 -20.5q-19 -3 -33 9t-10 31q6 30 14 81q-121 -7 -181 61q-73 78 -55 214q20 136 118.5 224t232.5 77q14 38 25 58q18 34 53 31q29 -2 34 -28q3 -16 -8 -36v-2
l-3 -6t-3 -5q0 -3 -1 -4q111 18 176 -45z" />
    <glyph glyph-name="afii10039" unicode="&#x425;" horiz-adv-x="535" 
d="M499 713q27 28 54 1q26 -26 21 -60q-2 -15 -12 -25q-86 -92 -226 -281q22 -49 64.5 -144t63.5 -141q11 -25 -10.5 -44.5t-52.5 -19.5t-42 25q-17 37 -50 111.5t-50 111.5q-129 -162 -234 -246q-28 -22 -50 12t-11 68q5 13 14 20q110 89 234 250q-63 133 -77 161
q-17 36 -31 58q0 3 -1 3q0 1 -1 3q-1 1 -2.5 3t-2.5 3v1q-3 2 -8 7q-11 18 -4.5 34t22.5 28q18 11 33.5 11.5t26.5 -4.5t22 -18.5t17 -23.5t15 -28q32 -63 66 -137q7 10 38.5 51.5t44.5 58t38.5 48t47 56t43.5 47.5z" />
    <glyph glyph-name="afii10040" unicode="&#x426;" horiz-adv-x="670" 
d="M544 670q3 30 40 42q39 14 58 -8q9 -11 7 -29q-13 -112 -62.5 -311.5t-61.5 -265.5q44 0 65 -1q16 0 27.5 -9.5t10.5 -25.5q-2 -35 -22 -96.5t-24 -85.5q-6 -30 -42 -43q-37 -12 -53 9q-9 12 -5 33q5 22 19.5 63t19.5 61q-44 0 -132 -3.5t-131 -3.5q-7 0 -68.5 2.5
t-68.5 -1.5q-27 -17 -56 -8.5t-23 40.5q50 241 115 643q2 18 25 32.5t47.5 13.5t30.5 -23q8 -30 8 -57q0 -16 -18 -34q-47 -296 -89 -507q22 2 63.5 -1t53.5 -3q36 -2 142 3q13 68 62 265.5t62 308.5z" />
    <glyph glyph-name="afii10041" unicode="&#x427;" horiz-adv-x="583" 
d="M542 725q16 -13 20 -35.5t-4 -41.5q-28 -101 -48 -183q1 -1 5 -3q29 -21 -3 -65q-18 -21 -20 -23q-3 -9 -3 -16q-39 -190 -39 -324q-1 -21 -11.5 -38.5t-30.5 -17.5q-19 -1 -31 16.5t-12 38.5q1 126 23 260q-60 -34 -116 -41.5t-111 21.5q-39 23 -58.5 59.5t-20.5 82
t3.5 85t14.5 92t12 79.5q2 31 40.5 48.5t56.5 -2.5q8 -9 6 -26q-2 -31 -12.5 -89t-13.5 -84q-4 -34 -4.5 -54.5t7 -51.5t26.5 -47q21 -17 46.5 -19.5t51.5 7.5t49 25t45 35q24 119 75 291q5 18 23 25.5t34 -4.5z" />
    <glyph glyph-name="afii10042" unicode="&#x428;" horiz-adv-x="870" 
d="M762 641q13 36 47 39q30 3 39 -23q4 -16 -3 -36q-99 -279 -126 -516q19 -8 25 -34.5t-5 -49.5t-36 -23q-77 0 -290.5 -10t-330.5 -4q-17 0 -26 13q-10 6 -11 19q-14 31 4 59q5 37 12 74.5t18 80t19 70.5t23.5 79.5t21.5 72.5q7 27 19.5 76.5t16.5 64.5q1 3 4 17t4.5 19.5
t5.5 17.5t7.5 19t9 15.5t12.5 14.5q41 38 69 11q12 -14 10 -32t-14 -33q0 -3 -2 -4q-2 -5 -5 -14.5t-4 -14.5q-11 -42 -14 -56q-10 -46 -36 -136q-68 -226 -81 -325q77 -1 227 5q9 42 43 253t69 321q5 19 24.5 32.5t37.5 8.5q35 -10 21 -61q-32 -103 -62.5 -299.5
t-42.5 -250.5q113 6 166 7q27 230 134 533z" />
    <glyph glyph-name="afii10043" unicode="&#x429;" horiz-adv-x="870" 
d="M756 668q6 34 40 48t48 -9q8 -12 5 -33q-13 -79 -69 -271t-64 -299h13q22 0 36 -24.5t12 -48.5q-15 -96 -64 -157q-25 -30 -54 -4q-27 25 -24 60q1 15 9 25q16 18 25 37q-95 0 -286 6t-286 6q-22 0 -33 19q-30 12 -22 40q23 84 61 281t70 300q-5 18 10 37l6 6
q12 21 40.5 28t50.5 -5t16 -39q0 -1 -3 -10q-36 -105 -77 -309.5t-49 -239.5q83 0 165 -3q6 62 30 172t30 149q1 3 5 29.5t5 33t5.5 30t7.5 33t8 29.5t10 32t12 27t15 28q11 19 31 29.5t39 5.5q19 -4 24 -23t-5 -35q-36 -60 -58 -219q-5 -31 -30.5 -145.5t-28.5 -178.5
q128 -4 193 -4q11 105 64.5 293t66.5 273z" />
    <glyph glyph-name="afii10044" unicode="&#x42a;" horiz-adv-x="603" 
d="M461 193q16 37 4 86.5t-49 66.5q-8 4 -18.5 6.5t-18.5 4t-21.5 1t-20 -1t-22 -3t-19.5 -3t-21 -4.5t-18 -4q-1 -1 -4 -1q-32 -157 -50 -255q72 -2 137 19q99 35 121 88zM491 433q53 -40 67.5 -116t-11.5 -135q-29 -76 -100.5 -125.5t-153 -65t-162.5 -4.5q-25 3 -27.5 26
t12.5 43q-4 18 -1 39q34 184 111 531q-65 -2 -130 3q-56 5 -56 42q0 18 18 31t37 11q74 -6 154 -1q20 23 44 10q13 -9 19 -19q19 -13 19 -32q0 -17 -12 -24q-26 -125 -43 -201q148 34 215 -13z" />
    <glyph glyph-name="afii10045" unicode="&#x42b;" horiz-adv-x="806" 
d="M412 159q21 39 10.5 87.5t-50.5 69.5q-69 38 -146 16q-33 -152 -60 -247q59 -2 99 0.5t85 20.5t62 53zM442 403q59 -38 75 -112t-13 -137q-19 -45 -51 -77.5t-66 -49.5t-82.5 -26.5t-85.5 -11.5t-91 -2q-15 -13 -32.5 -12.5t-27.5 12.5q-18 3 -24.5 19.5t-0.5 33.5
q10 27 34 39q44 168 134 585q4 20 22 35t37 11q19 -3 25 -22.5t0 -36.5q-14 -72 -46 -216q110 21 193 -32zM679 657q7 25 36 26t52.5 -19t16.5 -45q-32 -111 -70 -317t-54 -276q-6 -26 -35 -26.5t-52.5 19.5t-17.5 46q17 71 54.5 276.5t69.5 315.5z" />
    <glyph glyph-name="afii10046" unicode="&#x42c;" horiz-adv-x="532" 
d="M390 180q21 48 -5.5 91t-77.5 63t-97 10q-24 -137 -52 -234q65 -8 120 6q93 21 112 64zM406 406q54 -40 74.5 -101t1.5 -125q-18 -58 -65 -99t-104.5 -57t-122 -19.5t-116.5 13.5q-34 8 -24 51q-14 17 -8 37q16 50 29 103t26 122t19 104t19.5 123t16.5 106q4 26 33.5 35
t56 -2.5t22.5 -36.5q-5 -34 -19 -107.5t-19 -105.5q101 18 180 -41z" />
    <glyph glyph-name="afii10047" unicode="&#x42d;" horiz-adv-x="561" 
d="M484 648q80 -92 47 -272q0 -6 -3 -13q0 -7 -1 -11q-2 0 -2 -2q-38 -170 -155 -268q-75 -62 -170 -81t-189 3q-27 6 -30.5 35.5t14 54t42.5 18.5q185 -41 291 52q66 57 98 144q-34 1 -72 1t-85 -0.5t-72 -0.5q-20 0 -30 16t-3 34q7 20 26 31.5t40 11.5q36 0 109 0.5
t109 0.5q16 116 -35 163q-84 77 -281 5q-18 -7 -30.5 8t-12.5 34q2 46 46 63q59 22 118 32t125.5 -2.5t105.5 -56.5z" />
    <glyph glyph-name="afii10048" unicode="&#x42e;" horiz-adv-x="886" 
d="M710 233q46 100 43 205q-2 131 -67 169q-57 32 -152 -31q-81 -55 -118 -138v-4l-1 -2q-12 -46 -16 -82v-5q-6 -49 0 -99q15 -110 59 -152q26 -22 53 -23q41 0 72 17q82 44 127 145zM762 664q44 -32 69 -81t30.5 -104.5t0 -109.5t-21.5 -106q-35 -108 -111 -187t-179 -87
q-103 -9 -172 54.5t-85 168.5q-8 50 -8 99q-27 -2 -79 -2q-25 -131 -57 -265q-8 -31 -48 -40.5t-55 13.5q-8 11 -4 28q35 142 63 292q-8 13 -7 26q3 15 16 24q23 128 46 283q4 25 33 37t54 1t20 -41q-8 -46 -23.5 -137.5t-22.5 -136.5q35 0 70 3q16 101 72 167q5 7 19 13
q52 56 116 90t134 38t130 -40z" />
    <glyph glyph-name="afii10049" unicode="&#x42f;" horiz-adv-x="555" 
d="M400 530q2 7 9.5 29t11.5 39t3 32q-79 -5 -135 -33q-39 -20 -70 -51.5t-37 -67.5q-5 -30 11.5 -52.5t46.5 -34.5t58.5 -17.5t58.5 -6.5q2 12 4 20q38 139 39 143zM535 624q0 -30 -19 -91q-15 -49 -41 -147q-61 -222 -67 -344q0 -26 -28.5 -35.5t-55.5 3t-26 38.5
q2 98 36 234q-14 0 -29 3q-9 -10 -19 -19q-13 -8 -25.5 -19t-22.5 -20.5t-22 -25t-19.5 -24.5t-18.5 -28.5t-16 -27.5t-16.5 -30t-14.5 -28.5t-14.5 -30t-13.5 -27.5q-9 -20 -25 -32t-34 -4q-17 7 -22 29.5t3 38.5q31 64 49 98.5t52 86.5t69 87q-36 16 -53 28
q-39 26 -59.5 66.5t-8.5 83.5q23 78 88.5 131.5t142 75t160.5 21.5q14 2 28.5 -6.5t18.5 -22.5q16 -9 20 -24q3 -15 3 -31v-7z" />
    <glyph glyph-name="afii10065" unicode="&#x430;" horiz-adv-x="524" 
d="M230 161q20 33 32.5 74.5t23 93t19.5 79.5q-1 0 -2 1t-2 1q-31 5 -55 -2q-56 -14 -97 -68q-35 -51 -52.5 -112.5t-4.5 -114.5q20 -73 85 -17q32 28 53 65zM420 139q16 38 48 21q28 -16 35 -51q3 -17 -3 -31q-43 -104 -101 -108q-36 -3 -62 20.5t-39 60.5q-1 3 -2.5 8.5
t-2.5 8.5q-32 -53 -76 -81q-36 -24 -74 -27t-72 25q-68 65 -70 174q-2 99 37.5 194t116.5 139q87 49 173 20q23 -7 39 -18q21 -5 35.5 -33t7.5 -54q-42 -122 -37 -277q0 -38 6 -49q23 10 41 58z" />
    <glyph glyph-name="afii10066" unicode="&#x431;" horiz-adv-x="515" 
d="M379 359q-10 42 -34.5 52.5t-59 -9t-61.5 -41t-60 -51.5q-2 -3 -3.5 -4t-3.5 -2.5t-3 -3t-3 -3t-3 -2.5q-3 -8 -11 -44q-6 -34 -8 -53t5.5 -47t30.5 -41q56 -31 113 11.5t85.5 114.5t15.5 123zM473 744q21 22 46 8.5t32 -41t-8 -48.5q-45 -49 -106 -62q-18 -3 -53 -7
t-48 -6q-62 -11 -109 -85q26 12 40 15q50 12 90 -3t64 -48.5t37 -77t12.5 -90t-13.5 -85.5q-20 -61 -57 -116t-85 -83q-53 -32 -115.5 -25t-103.5 54q-81 94 -42 272q-11 40 16 57q13 43 41 112q57 151 147 198q25 13 104.5 20.5t110.5 40.5z" />
    <glyph glyph-name="afii10067" unicode="&#x432;" horiz-adv-x="479" 
d="M252 98q28 15 57 45t15 51q-22 37 -96 22q-9 -3 -22 -3q-28 -7 -58 -10q-18 -86 20 -117q10 -9 31 -6q28 2 53 18zM312 423q-76 43 -139 -126q44 11 98 44q10 6 21.5 15t23 22.5t11 24.5t-14.5 20zM367 278q56 -27 68 -77.5t-26 -100.5q-33 -43 -81.5 -71.5t-102.5 -34.5
q-56 -5 -107 17t-71 70q-27 70 -9 154q-3 11 -2 17q0 12 11 23q3 7 8 21.5t6 18.5q54 151 147 188q48 21 110 10t97 -53q27 -32 23 -66.5t-24.5 -62t-53.5 -50.5q5 -2 7 -3z" />
    <glyph glyph-name="afii10068" unicode="&#x433;" horiz-adv-x="451" 
d="M148 408q-17 -8 -41 -5t-34 20t-0.5 34.5t28.5 25.5q41 16 57.5 22.5t50 13.5t62.5 6q37 -1 74 -18.5t56 -46.5q19 -33 19.5 -69t-21.5 -66q-12 -16 -35 -30.5t-34.5 -19.5t-44.5 -19q-4 -2 -24.5 -9t-34.5 -12.5t-34.5 -15.5t-33 -19.5t-21 -23t-6.5 -27.5
q6 -41 34.5 -63t65 -19t66.5 29q27 25 63 9q31 -13 27 -40q-2 -15 -18 -29q-56 -47 -134 -54.5t-140 30.5q-56 34 -71 98t29 114q20 23 50 43t51 29.5t63.5 27t56.5 23.5q30 11 32 22q5 37 -20 57q-13 9 -26 12.5t-31 -0.5t-25 -6t-30.5 -12.5t-25.5 -11.5z" />
    <glyph glyph-name="afii10069" unicode="&#x434;" horiz-adv-x="478" 
d="M222 -218q25 62 36 130q-101 -50 -134 -72q-60 -37 -72 -67q-6 -12 1 -27q18 -33 48 -45q36 -14 69 13.5t52 67.5zM119 151q24 -64 60 -75q19 -7 40.5 6t34.5 32q20 26 35 69q11 116 29 192q-24 10 -21 41q-5 5 -11 5q-13 5 -26 5q-27 0 -44 -8q-49 -22 -72 -72
q-25 -45 -32.5 -95t7.5 -100zM389 455q24 3 38.5 -7t7.5 -33q-26 -92 -41 -269.5t-33 -256.5q-33 -146 -106 -214q-29 -28 -63.5 -46t-74.5 -23.5t-78 10.5q-41 18 -70.5 52.5t-27.5 75.5q2 64 77 127q48 41 145 89q3 2 8 5t8 4q-63 -4 -108.5 51t-51.5 129
q-8 91 22.5 179.5t94.5 145.5q77 72 164 59q82 -13 89 -78z" />
    <glyph glyph-name="afii10070" unicode="&#x435;" horiz-adv-x="499" 
d="M357 343q14 22 5 47.5t-31 36.5q-27 15 -56 10t-51 -28q-45 -48 -66 -110q49 0 85 6q2 0 21 3t28 4.5t24 5.5t25 10.5t16 14.5zM403 499q44 -25 64.5 -69t3.5 -90q-32 -86 -170 -111q-80 -16 -166 -16q-7 -45 2 -79q15 -53 66 -71t93 22q36 36 78 17q18 -8 22.5 -26.5
t-8.5 -33.5q-48 -48 -119.5 -64.5t-138 10t-94.5 94.5q-35 84 10 220q47 134 123 180q56 36 115 42.5t119 -25.5z" />
    <glyph glyph-name="afii10072" unicode="&#x436;" horiz-adv-x="739" 
d="M718 484q4 -18 -11.5 -32t-34.5 -14q-86 0 -110 -162q-2 -31 -4.5 -70t14.5 -74.5t51 -40.5q33 -5 44 -28t-6 -42t-50 -14q-82 12 -123 73.5t-43 146.5q-11 0 -31 1t-30 1q-14 -128 -20 -191q-7 -57 -44 -63q-19 -2 -32 14.5t-11 36.5q4 30 10 98t11 105q-15 0 -21 -2
q-4 0 -12.5 -0.5t-13.5 -0.5v-2q-1 0 -4 -2t-5 -2q-55 -210 -206 -216q-20 -1 -38 11.5t-18 31.5q0 20 17.5 30.5t38.5 12.5q20 0 38.5 23.5t29.5 49.5q29 67 38 130q13 91 -3 133q0 1 -1 2v1h-51q-21 0 -39 11.5t-18 31.5t18.5 31.5t38.5 11.5q80 0 110 -13q27 -12 42 -35
q32 -50 20 -154q18 2 53 2q18 103 57 200q9 19 25.5 27.5t35.5 -0.5q34 -21 14 -73q-27 -67 -46 -156q38 0 55 -2q19 93 67.5 153t133.5 60q22 1 41.5 -9.5t22.5 -30.5z" />
    <glyph glyph-name="afii10073" unicode="&#x437;" horiz-adv-x="447" 
d="M330 273q24 -14 34 -27q31 -39 26 -94t-37 -92q-41 -47 -108 -68t-135 -16.5t-126 30.5q-38 17 -18 48q19 28 55 32q16 2 29 -4q47 -22 111 -22t94 36q18 19 23 50t-14 51q-18 15 -54.5 13t-58.5 4q-33 4 -35 32q-14 29 21 44q9 4 40.5 16t52.5 21.5t41.5 27t23.5 36.5
q2 12 -1 20.5t-11 12.5t-17 6.5t-22.5 1.5t-24 -2t-25.5 -4.5t-23.5 -5.5t-20 -5t-13.5 -4q-36 -9 -61 20q-23 28 -5 50q9 11 28 16q113 27 167 19q51 -6 91 -36t48 -78q12 -78 -75 -129z" />
    <glyph glyph-name="afii10074" unicode="&#x438;" horiz-adv-x="476" 
d="M341 467q1 36 35 53q32 16 50 -6q9 -12 9 -33q-1 -71 -33 -211t-33 -214q-1 -35 -35 -52q-32 -15 -49 7q-10 12 -10 33v3q-122 -92 -196 -40q-72 53 -56 208q5 48 24.5 134t24.5 121q5 34 28.5 44.5t42.5 -6t14 -50.5q-5 -30 -22 -102.5t-22 -112.5q-21 -121 14 -136
q31 -13 92 27q38 25 76 63q3 12 15 64t16.5 74t9.5 61t5 71z" />
    <glyph glyph-name="afii10075" unicode="&#x439;" horiz-adv-x="512" 
d="M432 492q19 -3 35 -17.5t7 -32.5q-34 -70 -43 -173q25 -18 9 -47q-11 -16 -14 -20q-7 -154 -12 -185q-4 -25 -34 -32.5t-56 7t-22 42.5q4 27 6 55q-23 -17 -47 -31q-27 -17 -45 -26.5t-47 -21t-55 -10.5t-48 14q-24 15 -35 42t-10 54t1 55q3 57 23 158.5t24 136.5
q2 15 15 25.5t29.5 12t32.5 -1.5t26.5 -15.5t8.5 -29.5q-5 -39 -20 -114.5t-20 -111.5q-7 -56 -6 -95q0 -30 2 -38q14 7 15 8q40 21 72 43q69 52 92 80q6 153 48 236q19 41 68 33zM471 627q-31 -26 -78.5 -47.5t-97 -30t-87 15t-42.5 80.5q-2 33 38 51q39 18 61 -1
q10 -9 11 -24q1 -24 13.5 -30t34.5 1q43 12 84 48q23 20 50 13t32 -29t-19 -47z" />
    <glyph glyph-name="afii10076" unicode="&#x43a;" horiz-adv-x="437" 
d="M402 532q14 -17 14.5 -40t-11.5 -41q-6 -9 -20.5 -31.5t-22 -34t-21.5 -32t-24 -34t-24 -30t-27 -29.5q9 -11 22.5 -33t14.5 -24q55 -88 72 -136q11 -36 -17 -63q-26 -25 -49 -8q-11 9 -17 27q-2 4 -6 15q-2 3 -6.5 11.5t-7.5 12.5q-19 34 -34 57q-5 10 -30 47
q-7 8 -14 19l-5 4q-3 2 -6 5q-19 -10 -35 -17q-2 0 -7.5 -1.5t-7.5 -1.5q-15 -75 -25 -168q-4 -34 -27 -42.5t-43 10t-17 49.5q28 262 98 469q14 41 47 30q27 -8 36 -39q5 -18 -1 -35q-24 -74 -41 -143q23 15 44 34.5t42 47t33 44.5t34 52t29 45q12 17 30.5 18t29.5 -14z
" />
    <glyph glyph-name="afii10077" unicode="&#x43b;" horiz-adv-x="529" 
d="M432 511q28 1 55 -14.5t20 -42.5q-86 -298 -109 -438q-5 -26 -35 -30t-55.5 14t-21.5 45q24 134 93 380q-64 0 -95 -7h-3q-6 -21 -17 -64.5t-17.5 -68.5t-19.5 -65t-25.5 -65t-32 -56.5t-41.5 -51.5t-52.5 -37t-66.5 -26q-26 -6 -40 19.5t-7 56t33 37.5q96 24 141 139
q18 47 42 139.5t30 112.5q7 19 22.5 27.5t34.5 -1.5q3 -2 7 -6q27 3 79.5 2t80.5 1z" />
    <glyph glyph-name="afii10078" unicode="&#x43c;" horiz-adv-x="641" 
d="M517 497q12 20 34 26t37.5 -6.5t10.5 -39.5q-3 -16 -21 -104.5t-24.5 -123t-16 -99.5t-14.5 -118q-3 -35 -38 -50q-33 -13 -49 10q-9 12 -7 33q10 106 40 263q-19 -22 -62.5 -71.5t-66.5 -77.5q-10 -11 -27 -15t-31 5q-14 10 -27 28t-18.5 28.5t-18 38.5t-14.5 32
q0 1 -2 6t-4 7q-13 -50 -69 -224q-10 -31 -52 -34q-39 -4 -53 21q-7 13 -1 31q41 119 60 191q18 62 26 116q5 35 3 47q0 7 -2 8l4 -4q-29 27 0 55q27 25 61 21q14 -2 24 -11q16 -12 23 -38q10 -6 18.5 -17.5t13.5 -21.5t12 -27t10 -23q41 -99 46 -108l40 45t45 51.5t37 45
t41 54t32 50.5z" />
    <glyph glyph-name="afii10079" unicode="&#x43d;" horiz-adv-x="547" 
d="M474 509q20 -3 28.5 -19.5t-1.5 -35.5q-41 -72 -55 -191l1 -3q1 -2 1 -3q1 -16 -7 -26q-14 -153 -22 -189q-6 -30 -46 -43q-41 -13 -58 8q-8 10 -4 28q16 69 23 175q-149 -6 -151 -6q-19 -84 -54 -184q-9 -25 -39 -26.5t-53 18t-14 46.5q33 86 51 178q-5 12 -5 21
q3 16 14 21q14 82 20 143q-4 7 -2 21q1 3 1.5 6t1.5 7t2 7q4 26 33.5 33t55.5 -8t24 -42q-7 -87 -20 -156q25 1 73.5 4t72.5 4q16 106 57 175q12 19 31.5 30t40.5 7z" />
    <glyph glyph-name="afii10080" unicode="&#x43e;" horiz-adv-x="515" 
d="M98 445q17 21 34 20.5t31 -16.5q90 82 160 80q58 -1 99 -50.5t50 -111.5q14 -112 -37 -225.5t-150 -158.5q-79 -36 -141 4t-86 126q-24 77 -14.5 171t54.5 161zM190 330q-22 -21 -45 -5q-29 -79 -11 -164q10 -44 33 -70t65 -10q70 29 112.5 96t44.5 144q0 38 -15.5 69.5
t-51.5 26.5q-9 -2 -19 -5.5t-17.5 -6.5t-18.5 -10.5t-16 -11t-16.5 -13.5t-15 -12.5t-15.5 -14t-14 -13.5z" />
    <glyph glyph-name="afii10081" unicode="&#x43f;" horiz-adv-x="524" 
d="M481 467q5 -28 1 -58t-17.5 -79t-15.5 -56q-10 -36 -15 -56t-10.5 -51.5t-4 -59t8.5 -54.5q9 -33 -24 -63q-31 -28 -54 -14q-10 7 -14 22q-11 39 -12 80t6.5 82.5t16.5 77.5t20.5 81.5t17.5 78.5q0 1 0.5 4.5t0.5 6.5h-3q-30 0 -73 -17q-75 -29 -133 -69q-2 -10 -6 -27.5
t-5 -24.5q-30 -143 -64 -246q-7 -19 -24 -29.5t-35 -0.5q-17 10 -21 33t3 40q30 89 52 191q1 4 6.5 30t6 30.5t4.5 31.5t3 32.5t0 33.5q-19 28 1 69q17 36 42 29q9 -3 18 -13q23 -24 28 -67q60 37 138 64q19 7 40.5 11t48 4.5t45.5 -11.5t23 -36z" />
    <glyph glyph-name="afii10082" unicode="&#x440;" horiz-adv-x="520" 
d="M385 311q4 40 -14.5 65t-58.5 23q-44 -2 -82 -17q-36 -11 -62 -35q-14 -111 -46 -240q86 -22 170.5 46t92.5 158zM348 506q68 -4 102.5 -53.5t28.5 -119.5q-6 -63 -41.5 -129.5t-86.5 -118t-120 -77t-135 -9.5q-24 -93 -34 -150q-5 -22 -21 -38t-37 -18q-19 -4 -33 9
t-10 33q13 62 46 189t51.5 226.5t18.5 192.5q0 47 45 68q18 6 37 -1t19 -27q0 -12 -1 -20q85 50 171 43z" />
    <glyph glyph-name="afii10083" unicode="&#x441;" horiz-adv-x="425" 
d="M386 503q37 -8 27 -44q-10 -32 -40 -47q-18 -8 -33 -5q-107 23 -170 -39q-33 -33 -51 -80.5t-16 -93.5q2 -92 63 -107q70 -20 156 20q51 22 64 -14q7 -19 -4 -39.5t-29 -28.5q-154 -68 -252 -30q-54 22 -79.5 74.5t-19.5 112.5q12 175 125 263q121 89 259 58z" />
    <glyph glyph-name="afii10084" unicode="&#x442;" horiz-adv-x="744" 
d="M701 430q7 -58 -2.5 -122.5t-28.5 -142.5t-25 -120q-5 -31 -44 -41q-41 -10 -61 12q-10 10 -7 27q5 38 31 154.5t27 181.5q0 23 -2 32q-12 -6 -18 -10q-20 -13 -64 -46t-68 -48q-2 -12 -4.5 -26t-5.5 -31.5t-5 -26.5q-9 -44 -43 -178q-7 -26 -38 -32t-56.5 9t-18.5 41
q2 6 14.5 53.5t15.5 60t12 52t12 61t6.5 53t3.5 58.5v4q-2 -1 -7.5 -4t-7.5 -5q-23 -11 -69 -38.5t-71 -39.5q-2 0 -4 -1t-4.5 -2t-3.5 -1q-49 -252 -61 -305q-5 -19 -21.5 -28.5t-33.5 -0.5q-18 10 -24.5 31.5t-1.5 43.5q18 81 45.5 229t39.5 204q6 19 23 29t33 0
q18 -10 25 -31.5t2 -43.5q0 -1 -1 -2v-1q36 20 62.5 33.5t61.5 25t59 10t43.5 -19.5t25.5 -54q0 -2 1 -6.5t1 -6.5q73 56 110 70q33 10 64 11t55 -17.5t28 -54.5z" />
    <glyph glyph-name="afii10085" unicode="&#x443;" horiz-adv-x="460" 
d="M364 495q16 30 62 28q42 -1 51 -26q5 -11 -2 -25q-25 -48 -92 -183t-108 -208q-80 -144 -133 -206q-87 -101 -165 -53q-17 10 -16 29t16 30q17 16 44 12v2q8 0 58 72q34 46 55 84q-17 7 -23 27q-13 57 -33 182.5t-37 190.5q-7 25 17.5 42.5t54 14t37.5 -30.5
q12 -44 21 -93.5t18.5 -111.5t15.5 -94q34 61 93 181.5t66 135.5z" />
    <glyph glyph-name="afii10086" unicode="&#x444;" horiz-adv-x="693" 
d="M547 294q1 23 -3.5 49.5t-20.5 51t-41 20.5q-11 -1 -37 -7t-39 -8q-15 -66 -25 -149q-8 -65 -23 -171q83 -11 117 43q1 2 11 18.5t12.5 21t11 20t12 23t9.5 21t8.5 23t5 21.5t2.5 23zM168 93q17 -12 49.5 -14t54.5 1q4 26 13 98.5t15 111.5q12 81 21 117q-25 6 -30 26
q-34 0 -60 -26q-32 -31 -59.5 -75.5t-36.5 -86.5q-11 -31 -3.5 -81.5t36.5 -70.5zM603 471q38 -39 47 -103t-10 -113q-50 -155 -126 -219q-68 -58 -171 -50q-17 -101 -31 -153q-5 -19 -22.5 -30t-35.5 -2q-33 17 -20 73q11 44 25 115h-23.5h-26t-23.5 0.5t-26 2.5t-22.5 4.5
t-23.5 7t-19.5 10.5t-20.5 14.5t-16 18.5q-38 63 -37.5 128t31.5 131q78 158 171 198q78 32 126 16q28 90 31 147q1 20 16 37t34 15q35 -6 35 -63q-3 -55 -33 -159q2 0 5.5 1t6.5 1q28 8 54 11q63 6 105 -39z" />
    <glyph glyph-name="afii10087" unicode="&#x445;" horiz-adv-x="444" 
d="M438 523q9 -20 3.5 -41.5t-22.5 -36.5q-50 -48 -165 -185q13 -24 49 -87.5t55 -98.5q10 -18 8 -42t-17 -38q-17 -13 -34 -7t-26 24q-10 18 -45 79.5t-53 96.5q-35 -44 -58 -77q-10 -15 -38 -46.5t-40 -50.5q-11 -17 -30.5 -19.5t-32.5 12.5q-26 32 3 80q6 8 47 55
q9 10 48 64q30 40 54 67q-9 16 -16 26q-12 24 -55 126q-6 9 -14.5 37t-0.5 41v1q9 23 29 27.5t37 -12.5q7 -7 12.5 -17.5t12 -27.5t7.5 -20q24 -58 40 -86q2 -4 10 -21q17 19 52.5 61t63.5 73t57 57q15 13 33 8.5t26 -22.5z" />
    <glyph glyph-name="afii10088" unicode="&#x446;" horiz-adv-x="553" 
d="M473 110q28 -2 37 -30t-7 -51q-23 -34 -52 -122q-5 -20 -21 -34t-35 -9q-19 6 -25.5 27.5t0.5 38.5q11 41 22 66q-43 0 -63 23q-13 15 -17 36q-69 -34 -136 -41q-119 -12 -144 47q-4 10 -7 21t-3.5 24.5t-1 23.5t2 26.5t3.5 24.5t5 26t5 23t6 24.5t5 20.5q3 14 15.5 62
t17.5 79.5t4 63.5q-1 27 27 38t57 0t29 -38q3 -60 -25 -167.5t-32 -147.5q0 -3 -2.5 -20t-3 -26t1.5 -22q14 0 21 1q72 11 144 57q8 5 28 12q4 23 14 80t15.5 87.5t16.5 76.5t23 83q6 20 22 34t36 9q18 -6 24.5 -27.5t0.5 -40.5q-25 -68 -47.5 -200.5t-29.5 -161.5h3
q4 0 11 1t10 1q22 4 45 1z" />
    <glyph glyph-name="afii10089" unicode="&#x447;" horiz-adv-x="489" 
d="M448 500q2 -20 -12 -81q-14 -79 -28 -131q-5 -22 -14 -63.5t-15 -68t-15.5 -61.5t-19.5 -64q-8 -21 -23 -35t-34 -9t-25.5 26.5t-0.5 40.5q11 31 40 146q-141 -64 -214 -7q-34 26 -42.5 65t0.5 73t21 79.5t13 72.5q1 22 14.5 41t34.5 23q20 4 32 -10t11 -34
q-1 -15 -4 -32.5t-6.5 -29.5t-9.5 -33t-8 -30q0 -2 -3 -12.5t-3.5 -15t-2.5 -14.5t-1 -16t2.5 -13.5t5.5 -13t11 -8.5q58 -27 177 38q4 16 15.5 70.5t16.5 71.5q-2 22 7.5 42t29.5 28q18 8 33 -4t17 -31z" />
    <glyph glyph-name="afii10090" unicode="&#x448;" horiz-adv-x="722" 
d="M646 533q21 -1 29.5 -19t4.5 -38q-26 -139 -44 -272q-20 -123 -19 -154q2 -37 -32 -58q-31 -19 -48 3q-9 10 -10 29v38q-34 -28 -71.5 -49t-76.5 -32.5t-70.5 1.5t-45.5 53q-1 4 -3.5 12.5t-2.5 10.5q-38 -37 -73 -54q-42 -24 -88 -12.5t-62 60.5q-12 35 -14 76t4.5 83
t15 78.5t19.5 82t16 74.5q1 8 -0.5 25.5t1 29.5t14.5 20q16 9 34.5 -1t25.5 -28q6 -18 7 -41t-1 -37t-8 -44t-7 -39q-1 -8 -16 -80t-18 -109v-43q14 -6 46 17q63 42 97 93q8 12 23 12q23 74 32 115q5 24 12.5 71.5t11.5 70.5q8 32 45 44q38 11 52 -11q8 -13 4 -33
q-5 -22 -13 -69t-15.5 -82.5t-17.5 -67.5q-24 -88 -24 -133q0 -41 11 -52q1 -1 16.5 4t21.5 9q68 32 100 76q12 17 35 23q0 2 1.5 9.5t1.5 11.5q31 199 46 272q3 21 18.5 38t34.5 16z" />
    <glyph glyph-name="afii10091" unicode="&#x449;" horiz-adv-x="750" 
d="M683 99q9 -9 14.5 -19t8 -21.5t4 -20t-1.5 -22t-4.5 -21t-7.5 -22.5t-8 -20.5t-9.5 -22t-9.5 -19.5q-9 -18 -26.5 -24t-33.5 7t-18.5 37t6.5 41q2 4 11 23q-33 -3 -50 12q-13 16 -18 35q-53 -32 -94.5 -48t-83.5 -11q-65 7 -65 93q-57 -38 -89 -52q-24 -12 -51.5 -18
t-55 -5t-48.5 17t-28 46q-3 15 -4 32.5t-0.5 31t3.5 35.5t5 31.5t7 35t6 31.5q32 140 51 211q8 31 49 39q40 8 55 -15q7 -13 3 -30q-2 -7 -14 -51.5t-15 -58t-12 -50.5t-12.5 -58t-8 -51.5t-5.5 -56.5q0 -52 3 -52q31 6 59 26q6 3 109 73q3 3 3 4q9 62 49 279q5 34 41 48
q34 13 49 -10q7 -12 4 -33q-43 -237 -52 -313q-6 -40 -6 -63q0 -1 0.5 -5t0.5 -6q2 -1 8 -1q21 -3 72 23q28 14 76 44q47 224 74 313q12 40 44 36q26 -4 36 -32q7 -18 1 -37q-33 -110 -75 -323q38 4 54 -12z" />
    <glyph glyph-name="afii10092" unicode="&#x44a;" horiz-adv-x="507" 
d="M250 95q33 8 88 44.5t25 60.5q-35 23 -77.5 19.5t-81.5 -25.5q-5 -23 -6.5 -37t0 -32.5t15 -26t37.5 -3.5zM449 272q32 -52 10.5 -105t-63.5 -92t-91 -62q-100 -42 -158 -10q-50 30 -48 110q4 51 31 181q12 65 37 137q-31 -2 -54 -7q-9 -3 -17 -3h2q-49 -11 -57 26
q-5 38 46 61q8 4 22 4q0 2 1 2q57 10 120 10q10 4 24 2q19 -6 23.5 -26.5t-3.5 -37.5q-27 -61 -49 -156q42 15 83 19t81 -8.5t60 -44.5z" />
    <glyph glyph-name="afii10093" unicode="&#x44b;" horiz-adv-x="639" 
d="M200 91q37 17 66.5 50.5t14.5 67.5q-10 22 -36 24.5t-51 -8t-41 -24.5q-2 -5 -4.5 -13t-3.5 -10q0 -1 -4.5 -14t-6.5 -22t-4.5 -21t-0.5 -20t8 -11q24 -16 63 1zM182 311q122 39 182 -26q38 -42 30 -91t-39.5 -90t-73.5 -66q-29 -18 -69.5 -30t-82.5 -14.5t-73 19
t-35 67.5q-2 24 3 49t15.5 57.5t13.5 46.5t13.5 55t15 61t9 53t5.5 60q0 32 39 48t61 -3q11 -9 10 -26q-1 -70 -24 -170zM513 488q7 42 38 36q28 -5 42 -35q8 -19 5 -37q-9 -57 -53 -219q-15 -64 -23 -110q-1 -7 -6 -24.5t-7.5 -31t-2.5 -22.5q0 -21 -10.5 -37.5
t-30.5 -14.5t-33 21t-13 39q0 16 2.5 33.5t7.5 40.5t7 33q8 49 23 110q43 158 54 218z" />
    <glyph glyph-name="afii10094" unicode="&#x44c;" horiz-adv-x="455" 
d="M300 200q2 25 -10 29q-30 9 -61 1q-54 -9 -86 -53q-20 -80 -1 -89q47 -23 99 18.5t59 93.5zM390 272q19 -21 22.5 -50t-3.5 -54.5t-22 -51.5q-62 -95 -155 -113q-45 -13 -101.5 -1.5t-86.5 48.5q-32 39 -17 112q-12 14 -2 35q8 10 14 20q6 24 21.5 78.5t25.5 95t17 78.5
q5 27 35 35t56.5 -5.5t23.5 -40.5q0 -2 -0.5 -4.5l-1 -5t-1.5 -5.5q0 -6 -3 -12q-13 -57 -32 -121q1 0 7 1.5t10 1.5q43 12 103 2t90 -43z" />
    <glyph glyph-name="afii10095" unicode="&#x44d;" horiz-adv-x="412" 
d="M301 509q35 -23 53 -67t17.5 -88.5t-7.5 -87.5q-37 -183 -138 -253q-58 -40 -123 -44t-125 34q-13 8 -16.5 24t2.5 31.5t17 29t26.5 16.5t30.5 -6q33 -23 83.5 -18.5t80.5 33.5q37 35 60 97q-80 -3 -155 -3q-21 0 -36.5 11.5t-12.5 30.5q3 20 22 31.5t41 11.5q29 0 159 5
q11 100 -51 122q-69 23 -139 -9q-18 -8 -32 6t-16 34q-1 22 10.5 40t31.5 27q48 23 110 22t107 -30z" />
    <glyph glyph-name="afii10096" unicode="&#x44e;" horiz-adv-x="709" 
d="M491 142q36 44 57.5 108t8.5 113q-9 30 -31 43.5t-47 12.5t-52 -12q-8 -12 -23 -19q-4 -1 -7 -6.5t-7 -14t-5 -10.5q-28 -58 -30 -64q-30 -71 -20 -127q4 -31 20 -58.5t43 -25.5q46 3 93 60zM661 403q21 -73 -24 -191q-34 -94 -105 -153q-103 -90 -187 -66
q-49 14 -80 48.5t-38 84.5q-5 39 -1 71q-34 -3 -69 -3q-18 -98 -24 -149q-2 -15 -15 -25t-30 -11.5t-33 2t-26 16t-8 29.5q10 83 40 217q17 80 22 96q19 68 20 87q1 27 29.5 41t56.5 6t28 -34q-2 -40 -34 -165q35 1 72 6q0 1 2 6t4 7q3 6 10 22.5t11.5 25.5t11.5 22.5
t14.5 24t15.5 19.5q11 16 31 29q38 24 84.5 35.5t91 8t81 -30.5t49.5 -76z" />
    <glyph glyph-name="afii10097" unicode="&#x44f;" horiz-adv-x="449" 
d="M163 365q-16 -21 -16.5 -46.5t11.5 -43t33 -26t49 4.5q21 11 43 3q4 18 11 52t13 61.5t12 51.5v2q-2 0 -6.5 0.5t-6.5 0.5h-22h-4q-3 0 -5 -1q-79 -13 -112 -59zM428 456q3 -14 -6 -28q-14 -57 -27 -116.5t-31 -151t-23 -117.5q-6 -32 -44 -44q-37 -12 -53 11
q-8 12 -4 32q4 19 12.5 61t13.5 64q-10 -8 -19 -12q-98 -74 -165 -153q-12 -16 -33.5 -20.5t-36.5 8.5q-14 19 -10 36.5t19 33.5q49 60 110 111q-40 17 -64 43q-38 44 -34.5 98t40.5 98q39 45 96 71t120 30q15 2 38 0.5t44.5 -5.5t38 -17t18.5 -33z" />
    <glyph glyph-name="afii10071" unicode="&#x451;" horiz-adv-x="504" 
d="M351 312q5 15 3 40q-9 46 -47 58.5t-74 -8.5q-14 -6 -39 -27q-25 -32 -33 -48q-11 -16 -22 -52q21 3 61.5 5.5t58.5 4.5q50 5 87 21q2 1 3 1t1 2zM338 509q63 -8 98 -61.5t22 -115.5q-12 -58 -54 -87.5t-109 -45.5q-40 -10 -113 -12q-1 0 -22.5 -2t-32.5 -4h-2
q0 -52 20 -89q26 -48 69 -52q33 -1 76.5 17t78.5 43q13 11 36.5 11t33.5 -17q20 -32 -24 -66q-62 -46 -143 -69q-65 -18 -104 -11q-75 13 -111.5 74t-36.5 142q0 85 36.5 163.5t102.5 129.5q88 64 179 52zM217 549q-20 5 -34.5 22t-8.5 36q9 26 10 29v5q0 19 16 29.5t37 8.5
q20 -2 39 -16t19 -33t-12 -57q-6 -19 -27.5 -25t-38.5 1zM452 663q17 -17 10 -33q-7 -26 -15 -46q-4 -18 -21 -26q-20 -9 -42 -6q-23 5 -38 20q-15 17 -11 32q2 6 7.5 21.5t8.5 24.5q7 20 21 27q20 10 41 5q21 -3 39 -19z" />
    <glyph glyph-name="afii10099" unicode="&#x452;" horiz-adv-x="544" 
d="M479 239q19 -133 -37 -284q-63 -169 -170 -172q-20 0 -39 11t-20 30q0 20 17 31.5t38 12.5l1 2l3 1q14 14 22 26q26 40 42 91q45 139 32 224q-6 39 -24.5 52.5t-36.5 8.5q-124 -59 -176 -257q-4 -17 -32 -33t-45 -11q-15 4 -25.5 26t-7.5 38q10 39 27 79q25 111 76 296
h-41q-39 0 -53 32q-13 30 11 47q13 8 33 8q12 0 36.5 0.5t37.5 0.5q7 26 20.5 77.5t20.5 77.5q5 19 22.5 33.5t35.5 9.5q19 -6 24.5 -28.5t-0.5 -40.5q-31 -115 -33 -124q49 4 113 4q39 0 54 -32q14 -29 -10 -46q-12 -9 -33 -10q-84 0 -149 -4q-12 -46 -28 -110
q43 36 100 52q79 20 130.5 -9.5t63.5 -109.5z" />
    <glyph glyph-name="afii10100" unicode="&#x453;" horiz-adv-x="441" 
d="M303 107q30 18 67 -3q33 -18 23 -43q-4 -10 -17 -19q-44 -28 -94.5 -45t-108 -16t-98.5 30q-71 51 -74 114q-1 55 51 105q45 40 119 77q68 31 98 63q45 49 -5 59q-58 13 -123 -32q-28 -19 -64 1q-32 17 -25 42q3 13 18 23q40 28 96 42.5t115 5.5t93 -46q24 -27 26 -56
t-15 -54.5t-39 -46t-50 -37.5q-18 -11 -56.5 -30.5t-56.5 -31.5q-71 -45 -74 -80q-1 -28 19.5 -45.5t48.5 -18.5q60 0 126 42zM255 549q-15 11 -19.5 34t4.5 40q10 20 39 72q22 36 39 49q30 24 50 -9q19 -30 7 -63q-5 -13 -14 -21l-2 -1l-3 -6t-4 -5q-7 -10 -16 -25
q-4 -6 -24 -46q-10 -18 -24.5 -24t-32.5 5z" />
    <glyph glyph-name="afii10101" unicode="&#x454;" horiz-adv-x="451" 
d="M360 404q-64 22 -123.5 -15.5t-97.5 -103.5q33 0 97 1.5t96 1.5q21 0 38 -10.5t17 -30.5q0 -19 -17 -29.5t-37 -10.5q-34 0 -201 -5q-25 -8 -26 -9q-14 -45 15.5 -73.5t76.5 -28.5q47 1 129 31q24 9 40.5 -13.5t13 -53t-27.5 -39.5q-185 -70 -271 7q-43 40 -56.5 103
t2.5 120q14 59 45.5 114t78 95.5t104 55t122.5 -6.5q30 -10 33 -50q2 -38 -22 -50q-12 -6 -29 0z" />
    <glyph glyph-name="afii10102" unicode="&#x455;" horiz-adv-x="340" 
d="M315 502q28 -15 24 -57q-3 -37 -28 -45q-12 -3 -27 5q-29 18 -77 15.5t-74 -28.5q-10 -9 -12.5 -18t2 -16.5t13 -15t20.5 -15t22.5 -13t21.5 -12t17 -11.5q60 -47 71 -94q13 -57 -7 -108t-70 -81q-100 -61 -225 -4q-22 10 -25.5 39.5t13 49.5t43.5 8q31 -13 67.5 -15.5
t71.5 11t51 44.5q12 23 -14 48q-16 14 -56 39.5t-57 43.5q-48 51 -42 119t66 106q46 29 105 30t106 -25z" />
    <glyph glyph-name="afii10103" unicode="&#x456;" horiz-adv-x="215" 
d="M93 476q7 32 49 37q39 5 56 -17q7 -12 4 -25q-90 -432 -93 -446q-7 -32 -49 -37q-40 -4 -55 18q-7 11 -4 24q19 86 51 245t41 201zM232 688q23 -28 23 -60q-7 -59 -71 -62q-20 0 -43 15q-19 13 -26 39.5t3 47.5q12 28 52.5 37.5t61.5 -17.5z" />
    <glyph glyph-name="afii10104" unicode="&#x457;" horiz-adv-x="287" 
d="M213 498q15 -12 16 -37t-4 -42q-1 -5 -27 -124q-5 -19 -15.5 -60.5t-16.5 -67t-11.5 -61.5t-5.5 -65q0 -15 -11 -26.5t-27 -14.5t-32.5 -1.5t-27.5 12t-11 27.5q1 27 6 60t10 54t15.5 62t13.5 54q1 4 12 52t15 73q6 30 8 47v6q-11 18 5.5 36.5t41.5 23t46 -7.5zM155 569
q-36 -8 -53 39q-14 40 15 69q1 0 1 2v0q1 1 2.5 4l2.5 5q12 21 27 33q18 11 33.5 3t22.5 -26q8 -22 -2 -51q3 -34 -22 -55l3 3l-3 -3q0 -1 -1.5 -2.5t-1.5 -2.5q-12 -14 -24 -18zM340 644q7 -13 6 -24q-3 -19 -20 -28q-19 -14 -41 -14q-24 0 -36 12q-17 24 -21 45
q0 6 -0.5 15.5t-0.5 13.5q0 16 21 30q17 12 40 12t35 -12q12 -11 12 -29v9q0 -1 3 -28l3 -3z" />
    <glyph glyph-name="afii10105" unicode="&#x458;" horiz-adv-x="194" 
d="M98 447q8 38 36 38q27 1 40 -26q8 -17 4 -37q-12 -57 -35.5 -173.5t-36.5 -177.5q-31 -139 -50 -192q-46 -121 -154 -108q-19 3 -30 21t-11 41q-2 21 8 35t29 11q28 -2 41 -1q5 0 9 1.5t8 5t7 6.5t6 8.5t5 9.5t5 10.5t4 10t3 10t3 8.5q17 54 44 183q13 61 36.5 176.5
t28.5 139.5zM209 669q25 -16 25 -43t-19 -49.5t-44 -27.5q-31 -4 -48.5 21t-6.5 57q7 20 18 33t30.5 18.5t44.5 -9.5z" />
    <glyph glyph-name="afii10106" unicode="&#x459;" horiz-adv-x="751" 
d="M474 82q27 0 61 8.5t60 29.5t15 48q-14 34 -50.5 44.5t-74.5 1.5t-66 -29q-7 -103 55 -103zM695 240q30 -65 3 -119t-79.5 -89.5t-112.5 -47.5q-61 -12 -101.5 2t-56 49.5t-20 77.5t6 98.5t22.5 101t29 94.5q-10 0 -32 0.5t-32 0.5h-51q0 -2 -1 -5.5t-1 -6.5
q-5 -21 -17 -82t-22.5 -102.5t-25.5 -79.5q-33 -79 -84.5 -125.5t-121.5 -22.5q-31 10 -36 55q-5 41 17 55q11 6 26 1q83 -27 131 119q16 48 45 194q-5 6 -9 16q-6 21 4.5 40t30.5 31q9 7 20.5 11t26.5 5.5t23.5 2t28 0t22.5 -0.5q15 0 43 -1t50 -1t42 2q26 2 32.5 -22.5
t-2.5 -42.5q-33 -85 -51 -150q36 14 72 19.5t71 1t64.5 -24.5t45.5 -54z" />
    <glyph glyph-name="afii10107" unicode="&#x45a;" horiz-adv-x="749" 
d="M604 165q4 17 -5.5 23.5t-34.5 10.5q-46 7 -124 1q-18 -89 14 -115q11 -10 39 -10.5t46 5.5q23 8 40.5 33t24.5 52zM467 298q34 5 77.5 3t81.5 -8.5t62 -31.5t20 -65q-7 -99 -89.5 -164t-179.5 -54q-51 7 -77.5 41.5t-27.5 78t6 89.5q0 6 2 7q-102 3 -184 2
q-4 -23 -15.5 -77.5t-16.5 -83.5q-6 -34 -29 -41.5t-42 12t-14 50.5q12 68 44 208t44 213q6 34 29 41.5t42 -12t14 -49.5q-9 -55 -33 -163h12q11 0 15 -1q26 0 79.5 -1t81.5 -1q35 113 39 154q2 22 15 38.5t35 22.5q19 5 36.5 -3.5t16.5 -28.5q-6 -62 -44 -176z" />
    <glyph glyph-name="afii10108" unicode="&#x45b;" horiz-adv-x="511" 
d="M432 323q18 -26 18.5 -62.5t-10 -67t-23.5 -70t-15 -63.5q-2 -21 -15 -37.5t-33 -21.5q-18 -5 -35.5 3t-15.5 27q4 46 27 119q22 67 19 95q-2 19 -23.5 23.5t-37.5 -2.5q-55 -15 -121 -70q-1 0 -1 -1q-20 -77 -44 -159q-6 -20 -20.5 -34t-33.5 -10q-18 5 -24.5 25
t-0.5 38q48 162 82 339h-13q-26 0 -40.5 27t-7.5 54t33 27h51q5 26 13 75t12 71q4 18 20.5 32.5t34.5 9.5t23.5 -24t1.5 -39q-19 -111 -21 -121q56 5 95 21q26 10 44.5 -12t17 -51.5t-25.5 -38.5q-58 -21 -153 -30q-3 -15 -8.5 -41.5t-7.5 -36.5q54 30 101 42q34 10 76 2
t61 -38z" />
    <glyph glyph-name="afii10109" unicode="&#x45c;" horiz-adv-x="468" 
d="M433 417q-9 -9 -65 -71t-90 -87q24 -31 61.5 -94.5t58.5 -91.5q17 -22 0.5 -47t-43 -30t-43.5 12q-19 25 -62.5 97.5t-74.5 107.5h-10q-18 -112 -33 -166q-8 -32 -42 -41q-32 -9 -45 13q-8 14 -2 36q12 48 35 185t48 209q6 19 23.5 33t36.5 12q19 -1 27 -17.5t2 -35.5
q-17 -45 -37 -143q35 9 65.5 36.5t64 71t48.5 58.5q25 26 62 14q31 -9 30 -33q-2 -14 -15 -28zM299 552q-18 4 -26.5 20t0.5 33q6 12 32 47q3 3 5.5 6t5 6.5t4.5 5.5l1 1q13 34 58 38q20 0 33 -11.5t9 -30.5q-3 -16 -29 -47q-9 -10 -18 -24q-2 -3 -3 -4t-3 -5
q-9 -18 -29 -28t-40 -7z" />
    <glyph glyph-name="afii10110" unicode="&#x45e;" horiz-adv-x="458" 
d="M179 555q-18 -6 -30 10t-14 35q-1 21 10 38.5t30 23.5q24 8 52 9.5t66.5 -1t52.5 -2.5q26 -1 32 -28t-8.5 -54t-40.5 -27q-14 0 -46.5 2.5t-57 1.5t-46.5 -8zM444 492q15 -12 14 -33.5t-14 -35.5q-20 -22 -38 -82q-15 -43 -50 -109q-55 -109 -105 -203q-47 -96 -89 -137
q-60 -56 -147 -65q-19 -2 -28.5 15.5t-4.5 34.5q5 20 20.5 34.5t35.5 16.5q73 8 126 105q-41 82 -68 223q-21 100 -21 105q0 19 -3 38v6q-23 31 -1 64q15 19 30 26q16 6 31 -9q18 -15 23 -72q5 -49 13 -91q29 -138 47 -186l90 180q8 17 19.5 51t23.5 59.5t30 44.5
q36 40 66 20z" />
    <glyph glyph-name="afii10193" unicode="&#x45f;" 
d="M352 447q8 29 48 37q40 7 53 -16q6 -12 2 -27q-18 -67 -36.5 -202t-35.5 -200q-8 -30 -48 -38t-54 15q-7 11 -2 28q1 3 2 9t2 9q-13 -11 -34 -21q-6 -83 -30 -216q-4 -19 -20.5 -34.5t-35.5 -13.5q-36 4 -29 58q19 95 26 181q-34 -2 -62 14q-65 35 -57 141q4 46 25.5 138
t25.5 141q4 32 40 49t52 -4q7 -10 5 -27q-5 -45 -23.5 -124t-22.5 -100q-1 -5 -3.5 -23.5t-3.5 -29.5t-0.5 -26.5t6 -26.5t16.5 -18q25 -17 79 14q38 18 70 57q3 20 11.5 79t16 99t17.5 78z" />
    <glyph glyph-name="afii10050" unicode="&#x490;" horiz-adv-x="517" 
d="M579 754q-11 -11 -18 -51q-1 -3 -2.5 -8t-2.5 -8q9 -14 2 -33.5t-26 -29.5q-9 -15 -27 -18.5t-32 8.5q-68 -5 -206 -5q-30 -255 -143 -647q-6 -19 -24.5 -24t-33.5 7q-18 12 -23.5 34t1.5 43q104 376 133 598q-18 16 -10 38q6 15 18 24q3 18 17.5 28t32.5 4q12 -5 21 -17
q144 0 215 5q5 12 10 35.5t7 29.5q14 44 41 75q14 14 32 11.5t27 -19.5q11 -20 8 -42t-17 -38z" />
    <glyph glyph-name="afii10098" unicode="&#x491;" horiz-adv-x="402" 
d="M408 524l4 4v-3q0 -3 -1.5 -9.5t-2.5 -10.5q0 -10 -2 -21v-23q0 -16 -9 -30.5t-23 -17.5q-12 -21 -36 -25q-17 -2 -69 -2.5t-79 -7.5q-15 -213 -54 -341q-11 -33 -47 -41q-35 -7 -46 17q-6 14 1 35q33 109 47 336q1 16 2 24q1 16 14 32.5t29 20.5l2 2q10 19 26 23
q22 8 46.5 11t61 3t48.5 1q2 76 27 111q14 16 32.5 11.5t29.5 -20.5q23 -37 5 -72v0q-4 -6 -6 -7z" />
    <glyph glyph-name="endash" unicode="&#x2013;" 
d="M92 248q-19 -3 -35.5 8t-15.5 30q0 19 16.5 30.5t38.5 15.5q38 7 84 10.5t77.5 3.5t86.5 -1t80 -1q53 0 53 -37q-1 -19 -19.5 -33.5t-37.5 -13.5q-25 0 -80 1t-87 1t-77.5 -3.5t-83.5 -10.5z" />
    <glyph glyph-name="emdash" unicode="&#x2014;" horiz-adv-x="762" 
d="M78 262q-29 0 -36 25.5t8.5 51t39.5 25.5q71 0 284 -8.5t330 -2.5q34 2 38 -32q3 -34 -22 -58q-13 -12 -28 -13q-119 -5 -339.5 3t-274.5 9z" />
    <glyph glyph-name="quoteleft" unicode="&#x2018;" horiz-adv-x="168" 
d="M146 615q21 -10 21.5 -37.5t-16.5 -49.5t-41 -17q-19 4 -30.5 14.5t-14.5 29t-4.5 31.5t4 39.5t7 33t8.5 30.5q4 19 19.5 33t34.5 8q18 -5 24.5 -26t-0.5 -37q-1 -2 -5.5 -20.5t-6.5 -29.5v-2z" />
    <glyph glyph-name="quoteright" unicode="&#x2019;" horiz-adv-x="168" 
d="M82 627q-21 10 -21.5 37.5t16.5 49.5t41 17q19 -4 30.5 -14.5t14.5 -29t4.5 -31.5t-4 -39.5t-7 -33t-8.5 -30.5q-4 -19 -19.5 -33t-34.5 -8q-18 5 -24.5 26t0.5 37q1 2 5.5 20.5t6.5 29.5v2z" />
    <glyph glyph-name="quotesinglbase" unicode="&#x201a;" horiz-adv-x="211" 
d="M10 -45q27 31 30 53v1q-44 -6 -56 32q-12 39 20 67.5t71 17.5q39 -10 59.5 -36.5t14.5 -66.5q-6 -57 -56 -109q-15 -16 -35 -22.5t-41 2.5q-18 9 -20 28t13 33z" />
    <glyph glyph-name="quotedblleft" unicode="&#x201c;" horiz-adv-x="306" 
d="M170 594q0 -1 9.5 -10t13.5 -18.5t-5 -26.5q-11 -16 -33.5 -18.5t-39.5 6.5q-24 11 -37.5 31t-16 43t2.5 47t17 46q10 19 35.5 20.5t46.5 -13t21 -34.5q0 -5 -10 -24.5t-4 -48.5zM284 615q21 -10 21.5 -37.5t-16.5 -49.5t-41 -17q-19 4 -30.5 14.5t-14.5 29t-4.5 31.5
t4 39.5t7 33t8.5 30.5q4 19 19.5 33t34.5 8q18 -5 24.5 -26t-0.5 -37q-1 -2 -5.5 -20.5t-6.5 -29.5v-2z" />
    <glyph glyph-name="quotedblright" unicode="&#x201d;" horiz-adv-x="306" 
d="M196 648q0 1 -9.5 10t-13.5 18.5t5 26.5q11 16 33.5 18.5t39.5 -6.5q24 -11 37.5 -31t16 -43t-2.5 -47t-17 -46q-10 -19 -35.5 -20.5t-46.5 13t-21 34.5q0 5 10 24.5t4 48.5zM82 627q-21 10 -21.5 37.5t16.5 49.5t41 17q19 -4 30.5 -14.5t14.5 -29t4.5 -31.5t-4 -39.5
t-7 -33t-8.5 -30.5q-4 -19 -19.5 -33t-34.5 -8q-18 5 -24.5 26t0.5 37q1 2 5.5 20.5t6.5 29.5v2z" />
    <glyph glyph-name="quotedblbase" unicode="&#x201e;" horiz-adv-x="324" 
d="M98 85q25 -22 25.5 -51.5t-10 -49t-31.5 -49.5q-12 -18 -32 -26t-40 -3q-19 5 -26.5 21.5t3.5 31.5q27 36 32 47q3 6 -11 18q-14 16 -6.5 34t23.5 28q40 26 73 -1zM207 87q34 -10 48 -34t4 -57q-10 -36 -39 -66q-13 -15 -36 -17t-40 8q-17 9 -22 25.5t7 32.5q17 17 23 40
q-12 10 -15 23q-9 26 19 40t51 5z" />
    <glyph glyph-name="dagger" unicode="&#x2020;" horiz-adv-x="456" 
d="M411 555q36 6 44 -30q6 -34 -16 -59q-10 -12 -24 -14q-84 -12 -128 -15q-68 -278 -97 -522q-3 -25 -31.5 -34t-54.5 3t-23 40q28 224 95 505h-61h-3h-17q-32 0 -34 34q-3 36 23 59q13 12 29 12q15 0 45.5 1t46.5 1q20 83 45 161q9 31 52 36q41 4 54 -19q6 -11 2 -25
q-9 -28 -23.5 -80.5t-18.5 -65.5q62 6 95 12z" />
    <glyph glyph-name="daggerdbl" unicode="&#x2021;" 
d="M429 346q41 3 47 -27q5 -28 -22 -46q-14 -10 -31 -11q-96 -6 -144 -8q-28 -162 -55 -291q-6 -31 -46 -41q-40 -9 -57 12q-8 9 -5 24q32 155 54 292q-3 0 -98 -3q-20 0 -36 9t-15 28t19 33t38 16q71 0 107 1q9 53 27 161q-78 -6 -117 -6q-19 0 -26.5 17.5t-2.5 35.5
q7 20 24.5 32.5t37.5 12.5q57 0 101 4q13 77 19 106q5 30 45 40q39 10 57 -10q8 -10 5 -26q-2 -11 -5.5 -32t-6.5 -38t-6 -32q90 3 92 3q19 0 26 -17.5t1 -35.5q-7 -20 -23.5 -32.5t-38.5 -12.5q-36 0 -73 -3l-27 -162q23 1 68 3t67 4z" />
    <glyph glyph-name="bullet" unicode="&#x2022;" horiz-adv-x="407" 
d="M310 450q26 -26 33 -59t-3 -63t-32 -55.5t-51 -40.5t-63 -14.5t-64 20.5q-66 45 -45 128q-3 38 21 68.5t59.5 43t76 6.5t68.5 -34z" />
    <glyph glyph-name="ellipsis" unicode="&#x2026;" horiz-adv-x="617" 
d="M94 87q12 -3 19 -12.5t6 -20.5q0 -31 -9 -44q-14 -18 -37 -26.5t-40.5 -8t-21.5 6.5q-12 3 -21.5 14.5t-8.5 24.5q0 7 2 13.5t6 12t7 9t10.5 8t10.5 6l12 6l11 5.5q29 14 54 6zM291 96q27 0 48 -23t7 -56q-1 -12 -40 -33t-56 -10q-31 13 -42 30q-17 40 12 66t71 26z
M538 74q28 -17 28 -39q2 -22 -18 -43.5t-42 -21.5q-23 -3 -47 12t-24 44q-2 10 9.5 24t24.5 23t14 7q27 11 55 -6z" />
    <glyph glyph-name="perthousand" unicode="&#x2030;" horiz-adv-x="987" 
d="M190 485q26 0 48 32t15 57q-8 29 -35.5 35.5t-50.5 -8.5q-13 -22 -18 -50q-1 -28 8 -47.5t33 -18.5zM190 398q-69 -13 -111 31t-31 113q0 2 1 6t1 5q-18 20 -2 48q28 50 85 80q38 24 85 24q16 -5 17 -6q85 -6 110 -63q30 -75 -22.5 -148.5t-132.5 -89.5zM522 694
q25 29 51 0q24 -28 18 -63q-3 -13 -10 -22q-82 -94 -222.5 -302.5t-224.5 -304.5q-24 -28 -50 0q-24 27 -18 62q2 15 11 24q82 95 222 303t223 303zM844 157q13 22 5.5 52t-31.5 48q-15 9 -28 10l-1 -1q-1 -1 -1 -2q-38 -82 -25 -128q4 -14 9 -15q5 0 12 2q46 9 60 34z
M483 105q26 14 48 50.5t18 64.5q-1 17 -15 31q-16 -10 -31 -5q-14 3 -18 1t-14 -14q-21 -22 -26 -56q-3 -12 -3.5 -26t2.5 -29t12 -19.5t27 2.5zM880 345q51 -32 63.5 -98.5t-19.5 -117.5q-21 -34 -66.5 -66.5t-95 -42.5t-79.5 37q-30 48 -13 118q-25 5 -26 27
q-12 -55 -54.5 -107.5t-89.5 -75.5q-31 -18 -72 -14.5t-62 32.5q-36 49 -17 128q9 33 23 63q0 7 3 14q49 99 137 114q40 5 74.5 -13t49.5 -55q13 -27 11 -63q0 1 1 4.5t2 6.5q38 73 101.5 112t128.5 -3z" />
    <glyph glyph-name="guilsinglleft" unicode="&#x2039;" horiz-adv-x="517" 
d="M413 241q14 -7 17 -22.5t-3.5 -32t-18 -31.5t-26.5 -20.5t-29 0.5q-38 19 -149 64.5t-166 79.5q-22 17 -16 44t29 49q48 46 115.5 83.5t143 74t122.5 70.5q41 29 58 0q16 -25 -4 -57q-8 -13 -21 -22q-71 -53 -199 -114q-92 -49 -104 -56q39 -19 124 -54t127 -56z" />
    <glyph glyph-name="guilsinglright" unicode="&#x203a;" horiz-adv-x="546" 
d="M505 410q22 -11 20.5 -32.5t-18 -44.5t-35.5 -31q-56 -26 -191.5 -79.5t-206.5 -89.5q-40 -20 -51 12q-11 31 12 62q10 13 24 20q96 49 278 120q-14 7 -105.5 52.5t-139.5 67.5q-14 7 -18 22.5t2 32.5t16.5 32t25.5 22t29 1q38 -18 111 -54.5t132 -64t115 -48.5z" />
    <glyph glyph-name="Euro" unicode="&#x20ac;" horiz-adv-x="577" 
d="M589 692q28 -13 27 -55q-1 -39 -26 -48q-13 -5 -28 2q-93 41 -178 -3.5t-140 -137.5q117 2 211 -5q25 -1 37.5 -29.5t3.5 -55t-34 -25.5q-101 7 -266 5q0 -1 -1.5 -7.5t-1.5 -9.5h209q29 0 32 -35q3 -38 -22 -61q-13 -12 -29 -12h-197q1 -3 1 -8q0 -2 1 -5.5t1 -4.5
q3 -7 3 -8q1 -9 7 -22q1 0 3 -4t4.5 -8t3.5 -5q12 -21 28 -31q18 -13 47 -23q60 -18 155 -1q25 4 39.5 -21.5t8.5 -54.5t-32 -33q-112 -19 -182 3q-149 52 -170 226h-72q-28 0 -31 35q-4 38 22 61q13 12 29 12h55q0 3 1 7t1 7q-18 0 -27 -2q-16 0 -27.5 11t-15 27t-2 32.5
t11.5 28t25 11.5q10 1 21 1.5t24.5 1t20.5 0.5q1 2 2.5 4.5t2.5 5t1 5.5q40 90 106 154t153.5 90t183.5 -15z" />
    <glyph glyph-name="afii61352" unicode="&#x2116;" horiz-adv-x="956" 
d="M520 78q28 -26 1 -52q-24 -24 -58 -18q-11 3 -20 10q-36 30 -68.5 77t-50.5 83t-43 94q-31 71 -74 176q-14 -73 -30 -213t-27 -202q-4 -24 -33 -33t-54.5 3.5t-21.5 40.5q11 63 24 180.5t29.5 212.5t46.5 177q11 30 55 33q41 3 52 -21q4 -10 -1 -23v-1q8 -8 11 -13
q21 -40 41.5 -87t43.5 -103.5t37 -88.5q3 -6 22 -50t30 -68q4 20 23.5 107.5t26.5 124.5t17 103t13 120q2 25 30 38t54.5 5t25.5 -33q-6 -86 -22.5 -181t-41 -210.5t-35.5 -178.5q-3 -5 -3 -9zM857 332q41 0 45 -30q4 -27 -22 -44q-16 -10 -34 -10h-208q-41 0 -45 30
q-4 27 22 44q16 10 34 10h208zM864 493q7 15 5 41t-14 37q-10 10 -15 12t-14 2q-27 -7 -60 -36q-2 -5 -6 -6q-19 -56 33 -69q22 -6 35 -6q7 1 12 3q1 0 5 1l4 2q6 6 8 6l1 1q1 1 2 3q3 4 4 6v3zM923 651q31 -43 32 -103.5t-23 -106.5q-30 -59 -95.5 -75.5t-119.5 23.5
q-44 34 -47 91.5t20.5 109t59.5 88.5q32 34 54 3q74 30 119 -30z" />
    <glyph glyph-name="trademark" unicode="&#x2122;" horiz-adv-x="846" 
d="M339 706q21 3 37 -6t13 -29t-22.5 -35t-40.5 -18q-38 -7 -68 -8q-7 -36 -19 -108t-19 -108q-6 -31 -47 -45t-61 6q-9 11 -6 28q24 136 40 224h-88q-20 0 -31 14t-2 33q10 20 31 31.5t43 11.5q179 0 240 9zM816 371q0 -20 -21 -29.5t-39 -6.5q-22 2 -36 15.5t-14 34.5
q0 24 23 149q-56 -64 -100 -119q-39 -47 -74 -36q-13 4 -16.5 19t2.5 28l-54 96q-16 -86 -35 -145q-6 -20 -24 -37t-39 -17q-20 0 -26 19t1 37q11 31 19 68t12 62.5t10.5 69.5t9.5 64q4 23 19 42.5t36 24.5q27 9 38 -18q11 -4 17 -18q14 -32 47 -86.5t41 -68.5
q56 68 124 140q5 18 22 25q1 1 3 2.5t3 2.5q14 16 35 22.5t36 -5.5q15 -15 3 -41q4 -11 5 -14q6 -50 -11 -145.5t-17 -134.5z" />
    </font>
</defs>
</svg>
